<svg width="40" height="40" viewBox="0 0 40 40" fill="none" xmlns="http://www.w3.org/2000/svg">
<path d="M20 40C31.0457 40 40 31.0457 40 20C40 8.95431 31.0457 0 20 0C8.95431 0 0 8.95431 0 20C0 31.0457 8.95431 40 20 40Z" fill="#F4A640"/>
<path d="M12.8662 20.272C12.4242 20.272 11.9822 20.2097 11.5402 20.085C11.1095 19.9603 10.7072 19.7677 10.3332 19.507C9.95918 19.2463 9.63051 18.9233 9.34718 18.538C9.07518 18.1413 8.87118 17.671 8.73518 17.127L10.7582 16.345C10.8828 16.9117 11.1208 17.365 11.4722 17.705C11.8348 18.045 12.2938 18.215 12.8492 18.215C13.1212 18.215 13.3705 18.1697 13.5972 18.079C13.8352 17.977 14.0392 17.841 14.2092 17.671C14.3905 17.501 14.5265 17.3027 14.6172 17.076C14.7192 16.838 14.7702 16.5773 14.7702 16.294C14.7702 16.022 14.7192 15.7727 14.6172 15.546C14.5265 15.308 14.3962 15.104 14.2262 14.934C14.0562 14.7527 13.8522 14.6167 13.6142 14.526C13.3875 14.424 13.1325 14.373 12.8492 14.373C12.4978 14.373 12.1862 14.4523 11.9142 14.611C11.6422 14.7583 11.4098 14.9453 11.2172 15.172L9.05818 14.186L9.73818 8.372H16.2832V10.327H11.5912L11.1492 13.047L11.2852 13.081C11.5118 12.8883 11.7895 12.724 12.1182 12.588C12.4468 12.452 12.8435 12.384 13.3082 12.384C13.7955 12.384 14.2602 12.4803 14.7022 12.673C15.1442 12.8543 15.5352 13.115 15.8752 13.455C16.2152 13.795 16.4872 14.2087 16.6912 14.696C16.8952 15.172 16.9972 15.7047 16.9972 16.294C16.9972 16.872 16.8952 17.4047 16.6912 17.892C16.4872 18.3793 16.1982 18.7987 15.8242 19.15C15.4615 19.5013 15.0252 19.779 14.5152 19.983C14.0165 20.1757 13.4668 20.272 12.8662 20.272ZM18.1949 11.007C18.1949 10.6103 18.2685 10.2363 18.4159 9.885C18.5745 9.53367 18.7842 9.22767 19.0449 8.967C19.3169 8.695 19.6342 8.48533 19.9969 8.338C20.3595 8.17933 20.7562 8.1 21.1869 8.1C21.6175 8.1 22.0142 8.17933 22.3769 8.338C22.7509 8.48533 23.0682 8.695 23.3289 8.967C23.6009 9.22767 23.8105 9.53367 23.9579 9.885C24.1165 10.2363 24.1959 10.6103 24.1959 11.007C24.1959 11.4037 24.1165 11.7833 23.9579 12.146C23.8105 12.4973 23.6009 12.8033 23.3289 13.064C23.0682 13.3247 22.7509 13.5343 22.3769 13.693C22.0142 13.8403 21.6175 13.914 21.1869 13.914C20.7562 13.914 20.3595 13.8403 19.9969 13.693C19.6342 13.5343 19.3169 13.3247 19.0449 13.064C18.7842 12.8033 18.5745 12.4973 18.4159 12.146C18.2685 11.7833 18.1949 11.4037 18.1949 11.007ZM20.0139 11.007C20.0139 11.381 20.1272 11.6813 20.3539 11.908C20.5805 12.1347 20.8582 12.248 21.1869 12.248C21.5155 12.248 21.7932 12.1347 22.0199 11.908C22.2465 11.6813 22.3599 11.381 22.3599 11.007C22.3599 10.633 22.2465 10.3327 22.0199 10.106C21.7932 9.87933 21.5155 9.766 21.1869 9.766C20.8582 9.766 20.5805 9.87933 20.3539 10.106C20.1272 10.3327 20.0139 10.633 20.0139 11.007ZM20.3539 19.371L27.9019 8.1L29.2449 9.001L21.6969 20.272L20.3539 19.371ZM25.4029 17.365C25.4029 16.9683 25.4765 16.5943 25.6239 16.243C25.7825 15.8917 25.9922 15.5857 26.2529 15.325C26.5249 15.053 26.8422 14.8433 27.2049 14.696C27.5675 14.5373 27.9642 14.458 28.3949 14.458C28.8255 14.458 29.2222 14.5373 29.5849 14.696C29.9589 14.8433 30.2762 15.053 30.5369 15.325C30.8089 15.5857 31.0185 15.8917 31.1659 16.243C31.3245 16.5943 31.4039 16.9683 31.4039 17.365C31.4039 17.7617 31.3245 18.1413 31.1659 18.504C31.0185 18.8553 30.8089 19.1613 30.5369 19.422C30.2762 19.6827 29.9589 19.8867 29.5849 20.034C29.2222 20.1927 28.8255 20.272 28.3949 20.272C27.9642 20.272 27.5675 20.1927 27.2049 20.034C26.8422 19.8867 26.5249 19.6827 26.2529 19.422C25.9922 19.1613 25.7825 18.8553 25.6239 18.504C25.4765 18.1413 25.4029 17.7617 25.4029 17.365ZM27.2219 17.365C27.2219 17.739 27.3352 18.0393 27.5619 18.266C27.7885 18.4927 28.0662 18.606 28.3949 18.606C28.7235 18.606 29.0012 18.4927 29.2279 18.266C29.4545 18.0393 29.5679 17.739 29.5679 17.365C29.5679 16.991 29.4545 16.6907 29.2279 16.464C29.0012 16.2373 28.7235 16.124 28.3949 16.124C28.0662 16.124 27.7885 16.2373 27.5619 16.464C27.3352 16.6907 27.2219 16.991 27.2219 17.365ZM18.4575 29.42C18.4575 30.48 18.1042 31.3667 17.3975 32.08C16.6842 32.8 15.8109 33.16 14.7775 33.16C13.7375 33.16 12.8642 32.8 12.1575 32.08C11.4509 31.3667 11.0975 30.48 11.0975 29.42C11.0975 28.36 11.4509 27.4733 12.1575 26.76C12.8642 26.04 13.7375 25.68 14.7775 25.68C15.8175 25.68 16.6909 26.0433 17.3975 26.77C18.1042 27.4833 18.4575 28.3667 18.4575 29.42ZM12.0375 29.42C12.0375 30.2467 12.2975 30.93 12.8175 31.47C13.3442 32.01 13.9975 32.28 14.7775 32.28C15.5575 32.28 16.2075 32.01 16.7275 31.47C17.2542 30.9367 17.5175 30.2533 17.5175 29.42C17.5175 28.5867 17.2542 27.9033 16.7275 27.37C16.2075 26.83 15.5575 26.56 14.7775 26.56C13.9975 26.56 13.3442 26.83 12.8175 27.37C12.2975 27.91 12.0375 28.5933 12.0375 29.42ZM20.4632 29.93V33H19.5432V25.84H23.7232V26.72H20.4632V29.07H23.4032V29.93H20.4632ZM25.6879 29.93V33H24.7679V25.84H28.9479V26.72H25.6879V29.07H28.6279V29.93H25.6879Z" fill="#FAFAFB"/>
</svg>
