<svg width="16" height="16" viewBox="0 0 16 16" fill="none" xmlns="http://www.w3.org/2000/svg">
<g id="Group 1000005803">
<path id="Vector" d="M0 7.87886C0 6.15396 0 4.42906 0 2.70416C0 1.88756 0.558955 1.33297 1.37992 1.32861C1.52839 1.32861 1.72927 1.39848 1.8166 1.29804C1.89084 1.2107 1.83407 1.01856 1.83844 0.870088C1.83844 0.284932 2.31442 -0.0993499 2.84281 0.0534894C3.16159 0.145193 3.39303 0.437771 3.40613 0.778384C3.4105 0.926857 3.4105 1.07533 3.40613 1.21943C3.40177 1.29804 3.41923 1.33297 3.51094 1.33297C3.87775 1.32861 4.2402 1.32861 4.60701 1.33297C4.68998 1.33297 4.72492 1.31551 4.71618 1.22817C4.70745 1.08843 4.71182 0.944324 4.71618 0.804585C4.72492 0.367902 5.0699 0.0272884 5.50221 0.0272884C5.93016 0.0272884 6.27951 0.367902 6.28825 0.804585C6.29261 0.953058 6.29261 1.10153 6.28825 1.24564C6.28388 1.31551 6.31008 1.33734 6.37995 1.33734C6.84283 1.33297 7.30572 1.33297 7.77297 1.33734C7.84721 1.33734 7.86467 1.31551 7.86467 1.24564C7.86031 1.09716 7.86031 0.953058 7.86467 0.804585C7.87341 0.367902 8.22275 0.0272884 8.6507 0.0272884C9.07865 0.0272884 9.42363 0.367902 9.43237 0.808952C9.43674 0.944324 9.4411 1.08406 9.43237 1.21943C9.42363 1.32861 9.46294 1.34607 9.55901 1.34171C9.91272 1.33734 10.2664 1.33297 10.6245 1.34171C10.7337 1.34607 10.7512 1.30677 10.7468 1.2107C10.7381 1.07096 10.7424 0.926857 10.7468 0.787118C10.7599 0.354801 11.1092 0.0185547 11.5328 0.0185547C11.9477 0.0185547 12.297 0.350434 12.3145 0.769651C12.3188 0.909389 12.3232 1.0535 12.3145 1.19323C12.3101 1.29804 12.3319 1.33297 12.4455 1.32861C12.6376 1.31987 12.8298 1.31114 13.0175 1.34171C13.7031 1.44651 14.1486 1.98363 14.1486 2.69106C14.1486 5.06662 14.1486 7.43781 14.1442 9.81337C14.1442 9.94874 14.1748 10.0186 14.3014 10.0885C15.4935 10.7086 16.1529 12.0361 15.9433 13.3592C15.7293 14.6868 14.6638 15.7785 13.332 15.9619C12.0088 16.1453 10.9608 15.6606 10.2009 14.5645C10.1354 14.4684 10.0743 14.4291 9.95202 14.4291C7.11358 14.4291 4.27077 14.4291 1.42796 14.4291C0.541488 14.4291 0 13.8876 0 13.0055C0 11.2981 0 9.58629 0 7.87886ZM15.07 11.5033C14.5852 10.7086 13.8691 10.2763 12.9477 10.2413C11.2839 10.1802 10.0306 11.5819 10.2533 13.237C10.3625 14.0405 10.7817 14.6649 11.4848 15.0841C11.5328 15.1147 11.5809 15.154 11.6333 15.1802C12.9171 15.8483 14.5066 15.3462 15.1573 14.0536C15.594 13.1977 15.5721 12.3374 15.07 11.5033ZM12.3188 8.76533C12.3188 9.05791 12.3188 9.35485 12.3101 9.64743C12.3101 9.73913 12.3363 9.76097 12.4237 9.74787C12.821 9.68237 13.2184 9.72167 13.6158 9.81337C13.6158 9.09721 13.6158 8.38978 13.6158 7.68235C13.6202 6.67361 13.6158 5.66488 13.6245 4.65614C13.6245 4.5033 13.5852 4.47273 13.4368 4.47273C9.19219 4.4771 4.94326 4.4771 0.698694 4.47273C0.550221 4.47273 0.515287 4.51203 0.515287 4.65614C0.52402 7.19327 0.52402 9.7304 0.52402 12.2675C0.52402 12.3199 0.528387 12.3767 0.528387 12.4291C0.528387 12.6256 0.52402 12.8221 0.52402 13.0186C0.52402 13.5951 0.834066 13.9051 1.41486 13.9051C4.17033 13.9051 6.92144 13.9051 9.67691 13.9051C9.73368 13.9051 9.79482 13.9051 9.86032 13.9051C9.43674 12.4116 9.84722 11.1977 11.0743 10.237C10.8865 10.237 10.7206 10.2326 10.559 10.237C10.4062 10.2457 10.2926 10.1977 10.2228 10.0579C10.2184 9.50769 10.214 8.95747 10.2184 8.40725C10.2184 8.24131 10.3232 8.14087 10.4848 8.1365C11.0001 8.13214 11.5197 8.13214 12.035 8.1365C12.2053 8.1365 12.3014 8.24131 12.3101 8.41598C12.3188 8.53389 12.3188 8.64742 12.3188 8.76533ZM7.07864 3.94871C9.20529 3.94871 11.3363 3.94871 13.463 3.95307C13.594 3.95307 13.6289 3.91814 13.6245 3.7915C13.6158 3.40285 13.6245 3.01857 13.6202 2.62992C13.6158 2.27621 13.38 1.97926 13.0394 1.88756C12.8254 1.83079 12.6071 1.87009 12.3887 1.85699C12.3145 1.85263 12.3101 1.89629 12.3101 1.95306C12.3101 2.10154 12.3145 2.25001 12.3101 2.39411C12.3014 2.82643 11.9477 3.17141 11.5197 3.16704C11.1005 3.16268 10.7512 2.82206 10.7381 2.39848C10.7337 2.25001 10.7337 2.1059 10.7381 1.95743C10.7381 1.89193 10.725 1.85699 10.6507 1.85699C10.2752 1.86136 9.89962 1.86136 9.5197 1.85699C9.44547 1.85699 9.42363 1.88319 9.428 1.95306C9.43237 2.10154 9.43237 2.25001 9.428 2.39411C9.41927 2.82643 9.06555 3.17141 8.6376 3.16704C8.21839 3.16268 7.86904 2.82206 7.86031 2.39848C7.85594 2.25001 7.85594 2.1059 7.86031 1.95743C7.86031 1.89193 7.84721 1.85699 7.77297 1.85699C7.31009 1.86136 6.8472 1.86136 6.37995 1.85699C6.30571 1.85699 6.28388 1.88319 6.28825 1.95306C6.29261 2.10154 6.29261 2.25001 6.28825 2.39411C6.27951 2.82643 5.9258 3.17141 5.49785 3.16704C5.07863 3.16268 4.72928 2.82206 4.72055 2.39848C4.71618 2.25001 4.71618 2.1059 4.72055 1.95743C4.72055 1.89193 4.70745 1.85699 4.63321 1.85699C4.25767 1.86136 3.88212 1.86136 3.5022 1.85699C3.42797 1.85699 3.40613 1.88319 3.4105 1.95306C3.41487 2.08407 3.4105 2.21507 3.4105 2.34608C3.40177 2.81333 3.06115 3.16704 2.61574 3.16268C2.17905 3.15831 1.84281 2.8046 1.83407 2.34608C1.83407 2.18887 1.89957 1.98363 1.80787 1.88756C1.70743 1.78712 1.49783 1.85699 1.33625 1.85699C0.860267 1.85263 0.528387 2.19324 0.52402 2.67359C0.52402 3.04041 0.532754 3.40722 0.519654 3.76967C0.515287 3.92687 0.567689 3.95307 0.711794 3.95307C2.83408 3.94871 4.95636 3.94871 7.07864 3.94871ZM11.7905 9.21511C11.7905 9.04917 11.7861 8.9138 11.7905 8.77843C11.7948 8.69546 11.7686 8.66489 11.6813 8.66489C11.4018 8.66926 11.1267 8.66926 10.8472 8.66489C10.773 8.66489 10.7381 8.67799 10.7381 8.76096C10.7424 9.04481 10.7424 9.32865 10.7381 9.6125C10.7381 9.6911 10.7599 9.7173 10.8385 9.7173C10.9782 9.71293 11.1223 9.7173 11.2621 9.7173C11.428 9.71293 11.6551 9.77407 11.7512 9.68673C11.8647 9.58629 11.7774 9.35485 11.7905 9.21511ZM11.2664 1.57315C11.2664 1.83079 11.2664 2.08407 11.2664 2.34171C11.2664 2.52075 11.3712 2.63429 11.5241 2.63866C11.6769 2.64302 11.7905 2.52512 11.7905 2.35045C11.7948 1.84389 11.7948 1.33734 11.7905 0.830786C11.7905 0.656113 11.6769 0.538208 11.5241 0.542575C11.3712 0.546942 11.2708 0.66048 11.2664 0.83952C11.2664 1.08406 11.2664 1.32861 11.2664 1.57315ZM8.90835 1.59062C8.90835 1.34607 8.90835 1.10153 8.90835 0.856987C8.90835 0.664847 8.80791 0.546942 8.6507 0.546942C8.4935 0.546942 8.38869 0.66048 8.38869 0.852621C8.38869 1.34607 8.38869 1.84389 8.38869 2.33735C8.38869 2.52512 8.49786 2.64302 8.65507 2.63866C8.80791 2.63429 8.90835 2.52075 8.91271 2.34171C8.91271 2.08844 8.90835 1.83953 8.90835 1.59062ZM5.76423 1.59062C5.76423 1.34607 5.76423 1.10153 5.76423 0.856987C5.76423 0.664847 5.66379 0.546942 5.50658 0.542575C5.34938 0.538208 5.2402 0.656113 5.2402 0.848254C5.2402 1.34171 5.2402 1.83953 5.2402 2.33298C5.2402 2.52075 5.34501 2.63866 5.50658 2.63866C5.66379 2.63429 5.76423 2.52075 5.76423 2.32861C5.76423 2.0797 5.76423 1.83516 5.76423 1.59062ZM2.88211 1.59062C2.88211 1.34607 2.88211 1.10153 2.88211 0.856987C2.88211 0.664847 2.78168 0.546942 2.62447 0.546942C2.46726 0.546942 2.36246 0.66048 2.35809 0.852621C2.35809 1.34607 2.35809 1.84389 2.35809 2.33735C2.35809 2.52512 2.46726 2.64302 2.62447 2.63866C2.78168 2.63429 2.88211 2.52075 2.88211 2.32424C2.88211 2.0797 2.88211 1.83516 2.88211 1.59062Z" fill="#0E1024"/>
<path id="Vector_2" d="M0.529242 12.4334C0.529242 12.381 0.524875 12.3243 0.524875 12.2719C0.524875 9.73472 0.524875 7.19759 0.520508 4.66046C0.520508 4.51199 0.555443 4.47705 0.703915 4.47705C4.94848 4.48142 9.19741 4.48142 13.442 4.47705C13.5905 4.47705 13.6298 4.51199 13.6298 4.66046C13.621 5.6692 13.621 6.67794 13.621 7.68668C13.5948 7.69978 13.5599 7.70851 13.538 7.73034C13.3459 7.90938 13.1581 8.10153 12.9573 8.27183C12.7564 8.44651 12.5642 8.63865 12.3241 8.76529C12.3241 8.65175 12.3241 8.53821 12.3197 8.42467C12.311 8.25 12.2149 8.14956 12.0446 8.14519C11.5293 8.14083 11.0097 8.14083 10.4944 8.14519C10.3328 8.14519 10.228 8.25 10.228 8.41594C10.228 8.96616 10.2324 9.51638 10.2324 10.0666C10.2105 10.1234 10.1581 10.1452 10.1101 10.167C9.65156 10.4028 9.17558 10.6037 8.69959 10.8002C8.53802 10.8657 8.35461 10.8832 8.22361 11.0186C8.03583 11.0229 7.84806 11.0229 7.66029 11.0273C7.45941 11.0317 7.38954 11.0841 7.33714 11.2893C7.07076 11.333 6.83059 11.4553 6.55984 11.4858C6.55984 11.4596 6.55548 11.4334 6.55548 11.4029C6.55111 11.1015 6.48124 11.0273 6.1843 11.0273C5.73451 11.0273 5.28036 11.0273 4.83058 11.0273C4.538 11.0273 4.45939 11.1059 4.45939 11.3898C4.45939 11.5863 4.45503 11.7828 4.45503 11.9749C4.19302 11.9967 3.93974 12.0579 3.6821 12.1059C3.6821 11.857 3.67773 11.6037 3.67773 11.3548C3.67773 11.119 3.58603 11.0273 3.35459 11.0273C2.86987 11.0273 2.38515 11.0273 1.90043 11.0273C1.66899 11.0273 1.58165 11.119 1.57728 11.3592C1.57728 11.6867 1.57292 12.0098 1.57292 12.3374C1.48558 12.3679 1.39388 12.3636 1.30217 12.3723C1.04453 12.3941 0.782518 12.381 0.529242 12.4334ZM1.57292 6.30676C1.57292 6.55567 1.56855 6.80894 1.57292 7.05785C1.57728 7.24999 1.67335 7.35043 1.86549 7.35043C2.36768 7.3548 2.86987 7.3548 3.36769 7.35043C3.56856 7.35043 3.66463 7.24999 3.66463 7.04475C3.66463 6.54693 3.66463 6.05348 3.66463 5.55566C3.66463 5.35042 3.56856 5.25435 3.36332 5.25435C2.8655 5.24998 2.37205 5.25435 1.87423 5.25435C1.66025 5.25435 1.56855 5.35042 1.56855 5.56876C1.57292 5.81767 1.57292 6.06221 1.57292 6.30676ZM4.45503 6.28929C4.45503 6.54693 4.45066 6.80021 4.45503 7.05785C4.45939 7.24999 4.55547 7.35043 4.74761 7.3548C5.25416 7.35916 5.76071 7.35916 6.26727 7.3548C6.45067 7.3548 6.55111 7.24999 6.55111 7.06659C6.55548 6.56003 6.55548 6.05348 6.55111 5.54693C6.55111 5.36352 6.45067 5.26308 6.26727 5.25871C5.76071 5.25435 5.25416 5.25435 4.74761 5.25871C4.55547 5.25871 4.45939 5.35915 4.45503 5.55129C4.45503 5.8002 4.45503 6.04475 4.45503 6.28929ZM8.39392 7.3548C8.64283 7.3548 8.8961 7.35916 9.14501 7.3548C9.32842 7.35043 9.42886 7.25436 9.42886 7.07095C9.43322 6.5644 9.43322 6.05785 9.42886 5.55129C9.42886 5.35915 9.32842 5.26308 9.13191 5.26308C8.62972 5.25871 8.12754 5.25871 7.62972 5.26308C7.43758 5.26308 7.33714 5.36352 7.33714 5.55566C7.33277 6.05785 7.33277 6.56003 7.33714 7.05785C7.33714 7.25873 7.43758 7.3548 7.64282 7.3548C7.89173 7.35916 8.14501 7.3548 8.39392 7.3548ZM12.3153 6.31112C12.3153 6.06658 12.3153 5.82204 12.3153 5.57749C12.3153 5.35915 12.2193 5.26308 12.0097 5.26308C11.5118 5.26308 11.0184 5.26308 10.5206 5.26308C10.3153 5.26308 10.2193 5.35915 10.2193 5.56439C10.2149 6.06221 10.2193 6.55567 10.2193 7.05348C10.2193 7.26746 10.3153 7.35916 10.5337 7.35916C11.0228 7.35916 11.5162 7.35916 12.0053 7.35916C12.2193 7.35916 12.3153 7.26309 12.3153 7.04912C12.3153 6.80021 12.3153 6.55567 12.3153 6.31112ZM7.33714 9.1714C7.33714 9.43341 7.33277 9.69542 7.33714 9.95743C7.34151 10.1321 7.43758 10.2325 7.61225 10.2369C8.12317 10.2413 8.63846 10.2413 9.14938 10.2369C9.33279 10.2369 9.43322 10.1321 9.43322 9.9487C9.43759 9.44214 9.43759 8.93559 9.43322 8.42904C9.43322 8.24563 9.33279 8.14519 9.14938 8.14083C8.64283 8.13646 8.13627 8.13646 7.62972 8.14083C7.43758 8.14083 7.34151 8.24126 7.33714 8.43777C7.33714 8.68231 7.33714 8.92686 7.33714 9.1714ZM5.50307 10.2369C5.75198 10.2369 6.00526 10.2413 6.25417 10.2369C6.44631 10.2325 6.54674 10.1365 6.55111 9.94433C6.55548 9.44214 6.55548 8.93996 6.55111 8.44214C6.55111 8.24126 6.45067 8.14519 6.24543 8.14519C5.74761 8.14519 5.25416 8.14519 4.75634 8.14519C4.5511 8.14519 4.45503 8.24126 4.45503 8.44651C4.45066 8.94432 4.45503 9.43778 4.45503 9.9356C4.45503 10.1496 4.5511 10.2413 4.76507 10.2413C5.01398 10.2413 5.25853 10.2369 5.50307 10.2369ZM1.57292 9.18887C1.57292 9.43778 1.56855 9.69105 1.57292 9.93996C1.57728 10.1321 1.67335 10.2325 1.86549 10.2325C2.36768 10.2369 2.86987 10.2369 3.36769 10.2325C3.56856 10.2325 3.66463 10.1321 3.66463 9.92686C3.66463 9.42904 3.66463 8.93559 3.66463 8.43777C3.66463 8.23253 3.56856 8.13646 3.36332 8.13646C2.8655 8.13209 2.37205 8.13646 1.87423 8.13646C1.66025 8.13646 1.56855 8.23253 1.56855 8.45087C1.57292 8.69978 1.57292 8.94432 1.57292 9.18887Z" fill="#DDD7CF"/>
<path id="Vector_3" d="M7.07825 3.94886C4.95597 3.94886 2.83369 3.94886 0.707039 3.95323C0.562934 3.95323 0.510532 3.92703 0.514898 3.76982C0.527999 3.40301 0.519265 3.04056 0.519265 2.67375C0.523632 2.19339 0.855512 1.85715 1.3315 1.85715C1.49307 1.85715 1.70268 1.78728 1.80312 1.88772C1.89482 1.98379 1.82495 2.18903 1.82932 2.34623C1.83368 2.80475 2.16993 3.16283 2.61098 3.16283C3.06076 3.1672 3.40138 2.81349 3.40138 2.34187C3.40138 2.21086 3.40574 2.07986 3.40138 1.94885C3.40138 1.87898 3.42321 1.85278 3.49308 1.85278C3.86863 1.85715 4.24418 1.85715 4.62409 1.85278C4.69833 1.85278 4.7158 1.88772 4.71143 1.95322C4.70706 2.10169 4.70706 2.25016 4.71143 2.39427C4.72016 2.81785 5.06951 3.16283 5.48873 3.16283C5.91668 3.1672 6.27039 2.82222 6.27912 2.3899C6.28349 2.24143 6.28349 2.09296 6.27912 1.94885C6.27912 1.87898 6.30096 1.85278 6.37083 1.85278C6.83371 1.85715 7.2966 1.85715 7.76385 1.85278C7.84245 1.85278 7.85555 1.88772 7.85118 1.95322C7.84682 2.10169 7.84682 2.25016 7.85118 2.39427C7.85992 2.81785 8.20927 3.16283 8.62848 3.16283C9.05643 3.1672 9.41014 2.82222 9.41888 2.3899C9.42325 2.24143 9.42325 2.09296 9.41888 1.94885C9.41888 1.87898 9.44071 1.85278 9.51058 1.85278C9.88613 1.85715 10.2617 1.85715 10.6416 1.85278C10.7202 1.85278 10.7333 1.88772 10.7289 1.95322C10.7246 2.10169 10.7246 2.25016 10.7289 2.39427C10.742 2.81785 11.087 3.15847 11.5106 3.16283C11.9385 3.1672 12.2923 2.82222 12.301 2.3899C12.3054 2.24143 12.301 2.09732 12.301 1.94885C12.301 1.89645 12.3054 1.85278 12.3796 1.85278C12.5979 1.86588 12.8163 1.82221 13.0303 1.88335C13.3709 1.97505 13.6067 2.272 13.611 2.62571C13.6154 3.01436 13.6067 3.40301 13.6154 3.78729C13.6198 3.91393 13.5848 3.94886 13.4538 3.94886C11.3359 3.94886 9.20927 3.94886 7.07825 3.94886Z" fill="#E24E4B"/>
<path id="Vector_4" d="M11.4846 15.0884C10.7815 14.6692 10.3623 14.0447 10.2531 13.2412C10.026 11.5862 11.2837 10.1844 12.9475 10.2456C13.8689 10.2805 14.585 10.7085 15.0697 11.5076C15.0654 11.5818 15.0741 11.6561 15.0872 11.7347C15.1745 12.2718 15.1571 12.8045 14.9518 13.3198C14.7553 13.8089 14.4627 14.2281 14.0435 14.5513C13.5719 14.9137 13.0435 15.1277 12.4409 15.1583C12.1178 15.1714 11.8033 15.1102 11.4846 15.0884ZM13.1003 11.6037C13.1003 11.4508 13.1003 11.298 13.1003 11.1451C13.1003 10.7565 13.1003 10.7609 12.7116 10.7609C12.6068 10.7609 12.5763 10.7871 12.5763 10.8962C12.5806 11.3417 12.5763 11.7914 12.5806 12.2369C12.5806 12.3373 12.5763 12.4246 12.4802 12.4901C12.3972 12.5469 12.3361 12.643 12.3405 12.739C12.3492 12.9443 12.2182 13.0316 12.0828 13.1364C11.9474 13.2369 11.8164 13.346 11.6854 13.4508C11.3536 13.7172 11.3579 13.7128 11.633 14.0316C11.6942 14.1015 11.7247 14.0884 11.7859 14.0404C12.0348 13.8351 12.2881 13.6386 12.537 13.4377C12.6068 13.381 12.668 13.3504 12.7684 13.3722C12.9693 13.4203 13.1876 13.3024 13.2968 13.119C13.4016 12.9399 13.4103 12.691 13.2575 12.5556C13.0872 12.4072 13.1003 12.2412 13.1047 12.0578C13.1003 11.9093 13.1003 11.7565 13.1003 11.6037Z" fill="#F3A847"/>
<path id="Vector_5" d="M6.55456 11.4812C6.82093 11.4507 7.06548 11.3284 7.33185 11.2847C7.33185 11.7913 7.33622 12.2978 7.33622 12.8044C7.33622 13.0184 7.43229 13.1188 7.6419 13.1188C8.13972 13.1188 8.63317 13.1188 9.13099 13.1188C9.33623 13.1188 9.4323 13.0227 9.4323 12.8175C9.43667 12.3197 9.4323 11.8262 9.4323 11.3284C9.4323 11.1188 9.33623 11.0227 9.11789 11.0227C8.81658 11.0183 8.51963 11.0183 8.21832 11.014C8.34496 10.8786 8.53273 10.8611 8.69431 10.7956C9.17029 10.5991 9.64628 10.3983 10.1048 10.1624C10.1528 10.1362 10.2052 10.1188 10.2271 10.062C10.2969 10.1974 10.4105 10.2454 10.5633 10.2411C10.7249 10.2323 10.8865 10.2411 11.0786 10.2411C9.85152 11.2018 9.44104 12.4157 9.86462 13.9092C9.79912 13.9092 9.74235 13.9092 9.68121 13.9092C6.92574 13.9092 4.17463 13.9092 1.41916 13.9092C0.838366 13.9092 0.52832 13.5991 0.52832 13.0227C0.52832 12.8262 0.532687 12.6297 0.532687 12.4332C0.785964 12.3808 1.04361 12.3983 1.30125 12.3721C1.39295 12.3633 1.48466 12.3677 1.57199 12.3371C1.57199 12.49 1.57636 12.6428 1.57636 12.7957C1.58073 13.0315 1.66806 13.1232 1.89951 13.1275C2.38423 13.1275 2.86895 13.1275 3.35366 13.1275C3.58511 13.1275 3.67244 13.0358 3.67681 12.7957C3.67681 12.5686 3.68118 12.3371 3.68118 12.1101C3.93882 12.062 4.1921 12.0009 4.45411 11.9791C4.45411 12.2454 4.45847 12.5118 4.45847 12.7782C4.45847 13.0358 4.54581 13.1232 4.79472 13.1232C5.26634 13.1232 5.74232 13.1232 6.21394 13.1232C6.45849 13.1232 6.55019 13.0358 6.55019 12.7913C6.55456 12.3502 6.55456 11.9179 6.55456 11.4812Z" fill="#C8C3BC"/>
<path id="Vector_6" d="M11.4854 15.0883C11.8041 15.1102 12.1185 15.167 12.4417 15.1538C13.0443 15.1233 13.5727 14.9093 14.0443 14.5469C14.4635 14.2237 14.7561 13.8089 14.9526 13.3154C15.1579 12.8001 15.1753 12.2674 15.088 11.7302C15.0749 11.656 15.0662 11.5818 15.0705 11.5032C15.5727 12.3372 15.5945 13.1975 15.1622 14.0534C14.5116 15.346 12.922 15.8438 11.6382 15.1801C11.5858 15.1582 11.5378 15.1189 11.4854 15.0883Z" fill="#EC9B3A"/>
<path id="Vector_7" d="M12.3183 8.76538C12.5585 8.63874 12.7506 8.4466 12.9515 8.27192C13.1524 8.09725 13.3401 7.90948 13.5323 7.73044C13.5541 7.7086 13.5891 7.69987 13.6153 7.68677C13.6153 8.3942 13.6153 9.10162 13.6153 9.81778C13.2135 9.72608 12.8205 9.68241 12.4231 9.75228C12.3401 9.76538 12.3096 9.74355 12.3096 9.65184C12.3183 9.35053 12.3183 9.05795 12.3183 8.76538Z" fill="#C8C3BC"/>
<path id="Vector_8" d="M11.7907 9.21526C11.7776 9.35937 11.8649 9.58644 11.7558 9.68688C11.6597 9.77422 11.437 9.71308 11.2667 9.71745C11.1269 9.71745 10.9828 9.71308 10.8431 9.71745C10.7645 9.72181 10.7383 9.69125 10.7426 9.61264C10.747 9.3288 10.747 9.04495 10.7426 8.76111C10.7426 8.67814 10.7776 8.66504 10.8518 8.66504C11.1313 8.66941 11.4064 8.66941 11.6859 8.66504C11.7732 8.66504 11.7994 8.69124 11.7951 8.77858C11.7863 8.90958 11.7907 9.04932 11.7907 9.21526Z" fill="#50B5CE"/>
<path id="Vector_9" d="M11.2666 1.57317C11.2666 1.32863 11.2666 1.08409 11.2666 0.839543C11.2666 0.660502 11.3714 0.546965 11.5242 0.542598C11.6771 0.538231 11.7863 0.656136 11.7906 0.830809C11.795 1.33736 11.795 1.84392 11.7906 2.35047C11.7906 2.52514 11.6771 2.64305 11.5242 2.63868C11.3714 2.63431 11.271 2.52077 11.2666 2.34173C11.2666 2.08846 11.2666 1.83081 11.2666 1.57317Z" fill="#F2A746"/>
<path id="Vector_10" d="M8.90781 1.59055C8.90781 1.83946 8.90781 2.09274 8.90781 2.34165C8.90781 2.52069 8.80301 2.63422 8.65017 2.63859C8.49296 2.64296 8.38379 2.52505 8.38379 2.33728C8.38379 1.84383 8.38379 1.34601 8.38379 0.852554C8.38379 0.660413 8.48859 0.546875 8.6458 0.546875C8.80301 0.546875 8.90344 0.66478 8.90344 0.85692C8.90781 1.10146 8.90781 1.34601 8.90781 1.59055Z" fill="#F2A746"/>
<path id="Vector_11" d="M5.76425 1.59049C5.76425 1.83504 5.76425 2.07958 5.76425 2.32412C5.76425 2.51626 5.66382 2.63417 5.50661 2.63417C5.34941 2.63853 5.24023 2.52063 5.24023 2.32849C5.24023 1.83504 5.24023 1.33722 5.24023 0.843765C5.24023 0.655991 5.34504 0.538086 5.50661 0.538086C5.66382 0.542453 5.76425 0.655991 5.76425 0.852498C5.76425 1.10141 5.76425 1.34595 5.76425 1.59049Z" fill="#F2A746"/>
<path id="Vector_12" d="M2.88242 1.59052C2.88242 1.83506 2.88242 2.07961 2.88242 2.32415C2.88242 2.51629 2.78198 2.6342 2.62478 2.63856C2.46757 2.64293 2.3584 2.52502 2.3584 2.33288C2.3584 1.83943 2.3584 1.34161 2.3584 0.848159C2.3584 0.656018 2.4632 0.54248 2.62478 0.54248C2.78198 0.54248 2.88242 0.660385 2.88242 0.852526C2.88242 1.10144 2.88242 1.34598 2.88242 1.59052Z" fill="#F2A746"/>
<path id="Vector_13" d="M6.55455 11.4815C6.55455 11.9182 6.55018 12.3505 6.55018 12.7872C6.55018 13.0317 6.45848 13.1191 6.21394 13.1191C5.74232 13.1191 5.26633 13.1191 4.79471 13.1191C4.54144 13.1191 4.45847 13.0317 4.45847 12.7741C4.45847 12.5077 4.4541 12.2413 4.4541 11.9749C4.4541 11.7784 4.45847 11.5819 4.45847 11.3898C4.45847 11.1059 4.53707 11.0273 4.82965 11.0273C5.27943 11.0273 5.73359 11.0273 6.18337 11.0273C6.48031 11.0273 6.55455 11.1016 6.55455 11.4029C6.55018 11.4291 6.55455 11.4553 6.55455 11.4815ZM6.02616 12.0972C6.02616 11.9313 6.0218 11.7959 6.02616 11.6605C6.03053 11.5776 6.0087 11.547 5.91699 11.547C5.63751 11.5514 5.3624 11.5514 5.08293 11.547C4.99559 11.547 4.97376 11.5776 4.97376 11.6605C4.97812 11.9313 4.97812 12.2064 4.97376 12.4771C4.97376 12.5688 4.99559 12.6038 5.09166 12.5994C5.22703 12.5907 5.3624 12.5994 5.50214 12.595C5.66808 12.5907 5.89516 12.6518 5.99123 12.5688C6.1004 12.4684 6.01306 12.2413 6.02616 12.0972Z" fill="#0E1023"/>
<path id="Vector_14" d="M3.67266 12.1062C3.67266 12.3332 3.66829 12.5647 3.66829 12.7918C3.66829 13.0276 3.57659 13.1236 3.34515 13.1236C2.86043 13.1236 2.37571 13.1236 1.89099 13.1236C1.65955 13.1236 1.57221 13.0319 1.56784 12.7918C1.56784 12.6389 1.56348 12.4861 1.56348 12.3332C1.56348 12.0057 1.56784 11.6826 1.56784 11.3551C1.56784 11.1193 1.65955 11.0232 1.89099 11.0232C2.37571 11.0232 2.86043 11.0232 3.34515 11.0232C3.57659 11.0232 3.66392 11.1149 3.66829 11.3507C3.67266 11.604 3.67266 11.8529 3.67266 12.1062ZM2.10933 12.0581C2.10496 12.0581 2.1006 12.0581 2.09623 12.0581C2.09623 12.1979 2.1006 12.342 2.09623 12.4817C2.09186 12.5778 2.1268 12.5996 2.2185 12.5996C2.48925 12.5953 2.76436 12.5953 3.0351 12.5996C3.11807 12.5996 3.14864 12.5778 3.14864 12.4905C3.14427 12.211 3.14427 11.9359 3.14864 11.6564C3.14864 11.5647 3.11807 11.5472 3.0351 11.5472C2.89536 11.5516 2.75126 11.5428 2.61152 11.5516C2.44558 11.5559 2.22287 11.4773 2.1268 11.5865C2.04383 11.6739 2.10933 11.8922 2.10933 12.0581Z" fill="#0E1023"/>
<path id="Vector_15" d="M1.57227 6.30683C1.57227 6.06229 1.57227 5.81774 1.57227 5.5732C1.57227 5.35923 1.66834 5.26316 1.87794 5.25879C2.37576 5.25879 2.86922 5.25879 3.36704 5.25879C3.56791 5.25879 3.66835 5.35923 3.66835 5.5601C3.66835 6.05792 3.66835 6.55137 3.66835 7.04919C3.66835 7.25443 3.57228 7.3505 3.3714 7.35487C2.86922 7.35924 2.36703 7.35924 1.86921 7.35487C1.67707 7.35487 1.581 7.25443 1.57663 7.06229C1.57227 6.80902 1.57227 6.56011 1.57227 6.30683ZM2.63777 5.79591C2.63777 5.79154 2.63777 5.78718 2.63777 5.78718C2.5024 5.78718 2.36703 5.79154 2.22729 5.78718C2.13559 5.78281 2.09192 5.80028 2.09629 5.90945C2.10502 6.18019 2.10065 6.4553 2.09629 6.72605C2.09629 6.80902 2.11812 6.83958 2.20546 6.83958C2.48493 6.83522 2.76005 6.83522 3.03952 6.83958C3.13123 6.83958 3.14869 6.80465 3.14869 6.72605C3.14433 6.58631 3.15306 6.4422 3.14433 6.30246C3.13559 6.13652 3.21856 5.91381 3.10939 5.81774C3.01769 5.73041 2.79935 5.79591 2.63777 5.79591Z" fill="#0E1023"/>
<path id="Vector_16" d="M4.45409 6.28925C4.45409 6.0447 4.44972 5.80016 4.45409 5.55562C4.45846 5.36348 4.55453 5.26304 4.74667 5.26304C5.25322 5.25867 5.75977 5.25867 6.26633 5.26304C6.44973 5.26304 6.5458 5.36784 6.55017 5.55125C6.55454 6.05781 6.55454 6.56436 6.55017 7.07091C6.55017 7.25432 6.44973 7.35476 6.26633 7.35912C5.75977 7.36349 5.25322 7.36349 4.74667 7.35912C4.55453 7.35912 4.45846 7.25869 4.45409 7.06218C4.45409 6.80453 4.45409 6.54689 4.45409 6.28925ZM5.4934 6.83074C5.63314 6.83074 5.77724 6.82637 5.91698 6.83074C6.00432 6.8351 6.02615 6.80017 6.02615 6.7172C6.02178 6.43772 6.02178 6.16261 6.02615 5.88313C6.02615 5.8089 6.00432 5.77833 5.92571 5.77833C5.64187 5.78269 5.35802 5.78269 5.07418 5.77833C4.99121 5.77833 4.97374 5.8089 4.97374 5.88313C4.97811 6.16261 4.97811 6.43772 4.97374 6.7172C4.97374 6.80017 4.99558 6.8351 5.08291 6.83074C5.22265 6.82637 5.35802 6.83074 5.4934 6.83074Z" fill="#0E1023"/>
<path id="Vector_17" d="M8.39306 7.35476C8.14415 7.35476 7.89087 7.35476 7.64196 7.35476C7.43672 7.35476 7.34065 7.25869 7.33628 7.05781C7.33192 6.55562 7.33192 6.05344 7.33628 5.55562C7.33628 5.36348 7.43672 5.26304 7.62886 5.26304C8.13105 5.25867 8.63323 5.25867 9.13105 5.26304C9.32319 5.26304 9.428 5.36348 9.428 5.55125C9.43236 6.05781 9.43236 6.56436 9.428 7.07091C9.428 7.25432 9.32756 7.35039 9.14415 7.35476C8.89524 7.35912 8.64633 7.35476 8.39306 7.35476ZM8.39306 6.83074C8.52843 6.83074 8.6638 6.82637 8.80354 6.83074C8.89088 6.8351 8.91708 6.80453 8.91271 6.72156C8.90834 6.44209 8.90834 6.16698 8.91271 5.8875C8.91271 5.79579 8.87778 5.77833 8.79917 5.78269C8.52843 5.78706 8.25332 5.78706 7.98257 5.78269C7.89087 5.78269 7.8603 5.8089 7.86467 5.9006C7.86904 6.16261 7.8734 6.42462 7.86467 6.68663C7.8603 6.81763 7.90834 6.84384 8.02188 6.8351C8.13978 6.82637 8.26642 6.83074 8.39306 6.83074Z" fill="#0E1023"/>
<path id="Vector_18" d="M12.3148 6.3112C12.3148 6.55574 12.3148 6.80028 12.3148 7.04483C12.3148 7.2588 12.2188 7.35487 12.0048 7.35487C11.5157 7.35487 11.0222 7.35487 10.5332 7.35487C10.3192 7.35487 10.2231 7.2588 10.2188 7.04919C10.2188 6.55137 10.2188 6.05792 10.2188 5.5601C10.2188 5.35923 10.3192 5.25879 10.5201 5.25879C11.0179 5.25879 11.5113 5.25879 12.0092 5.25879C12.2188 5.25879 12.3105 5.35923 12.3148 5.5732C12.3148 5.82211 12.3148 6.06665 12.3148 6.3112ZM11.7908 6.3112C11.7908 6.17146 11.7864 6.02735 11.7908 5.88761C11.7952 5.81338 11.7733 5.78281 11.6904 5.78281C11.4065 5.78718 11.1227 5.78718 10.8388 5.78281C10.7602 5.78281 10.7384 5.80901 10.7384 5.88761C10.7428 6.16709 10.7428 6.4422 10.7384 6.72168C10.7384 6.80465 10.7559 6.83522 10.8476 6.83522C11.1271 6.83085 11.4022 6.83085 11.6816 6.83522C11.769 6.83522 11.7952 6.80465 11.7908 6.72168C11.7864 6.58631 11.7908 6.44657 11.7908 6.3112Z" fill="#0E1023"/>
<path id="Vector_19" d="M7.33593 9.17154C7.33593 8.927 7.33156 8.68246 7.33593 8.43792C7.34029 8.24577 7.43636 8.14534 7.6285 8.14097C8.13506 8.1366 8.64161 8.1366 9.14816 8.14097C9.33157 8.14097 9.43201 8.24577 9.43201 8.42918C9.43637 8.93574 9.43637 9.44229 9.43201 9.94884C9.43201 10.1322 9.33157 10.2327 9.14816 10.2371C8.63724 10.2414 8.12196 10.2414 7.61104 10.2371C7.44073 10.2371 7.34029 10.1322 7.33593 9.95757C7.33156 9.69556 7.33593 9.43355 7.33593 9.17154ZM8.90799 9.23268C8.90799 9.05801 8.90362 8.90953 8.90799 8.76543C8.90799 8.69993 8.89052 8.66936 8.81628 8.66936C8.52807 8.67372 8.23986 8.67372 7.95165 8.66936C7.87741 8.66936 7.85995 8.69556 7.85995 8.76543C7.86431 9.04927 7.86431 9.33312 7.85995 9.61696C7.85995 9.70867 7.89925 9.72613 7.97785 9.72177C8.11759 9.7174 8.26169 9.72177 8.40143 9.72177C8.56301 9.72177 8.78135 9.77853 8.87305 9.69556C8.98222 9.59076 8.89052 9.36805 8.90799 9.23268Z" fill="#0E1023"/>
<path id="Vector_20" d="M5.50168 10.237C5.25714 10.237 5.0126 10.237 4.76805 10.237C4.55408 10.237 4.45801 10.1409 4.45801 9.93127C4.45801 9.43345 4.45801 8.94 4.45801 8.44218C4.45801 8.24131 4.55845 8.14524 4.75932 8.14087C5.25714 8.14087 5.75059 8.14087 6.24841 8.14087C6.45365 8.14087 6.54972 8.23694 6.55409 8.43781C6.55846 8.94 6.55846 9.44219 6.55409 9.94001C6.55409 10.1321 6.45365 10.2282 6.25714 10.2326C6.00387 10.2413 5.75496 10.237 5.50168 10.237ZM6.0257 9.18891C6.0257 9.05354 6.02134 8.91817 6.0257 8.77843C6.03007 8.68236 5.99513 8.66052 5.90343 8.66052C5.63269 8.66489 5.35758 8.66489 5.08683 8.66052C5.00386 8.66052 4.97329 8.68236 4.97329 8.76969C4.97766 9.04917 4.97766 9.32428 4.97329 9.60376C4.97329 9.6911 5.00386 9.71293 5.08683 9.71293C5.35758 9.70856 5.63269 9.70856 5.90343 9.71293C5.99513 9.71293 6.03007 9.6911 6.0257 9.59503C6.02134 9.46402 6.0257 9.32428 6.0257 9.18891Z" fill="#0E1023"/>
<path id="Vector_21" d="M1.57227 9.18891C1.57227 8.94437 1.57227 8.69982 1.57227 8.45528C1.57227 8.24131 1.66834 8.14524 1.87794 8.14087C2.37576 8.14087 2.86922 8.14087 3.36704 8.14087C3.56791 8.14087 3.66835 8.24131 3.66835 8.44218C3.66835 8.94 3.66835 9.43345 3.66835 9.93127C3.66835 10.1365 3.57228 10.2326 3.3714 10.237C2.86922 10.2413 2.36703 10.2413 1.86921 10.237C1.67707 10.237 1.581 10.1365 1.57663 9.94437C1.57227 9.6911 1.57227 9.44219 1.57227 9.18891ZM2.62467 8.66489C2.48493 8.66489 2.34083 8.66926 2.20109 8.66489C2.12685 8.66489 2.09192 8.67799 2.09629 8.76096C2.10065 9.0448 2.10065 9.32865 2.09629 9.61249C2.09629 9.6911 2.12249 9.7173 2.19672 9.71293C2.48057 9.70856 2.76441 9.70856 3.04826 9.71293C3.11376 9.71293 3.14869 9.69983 3.14433 9.62123C3.13996 9.33302 3.13996 9.0448 3.14433 8.75659C3.14433 8.68672 3.12249 8.66052 3.04826 8.66489C2.90852 8.66926 2.76878 8.66489 2.62467 8.66489Z" fill="#0E1023"/>
<path id="Vector_22" d="M8.2185 11.0186C8.51981 11.0229 8.81676 11.0229 9.11807 11.0273C9.33204 11.0317 9.43248 11.1234 9.43248 11.333C9.43248 11.8308 9.43685 12.3242 9.43248 12.8221C9.43248 13.0229 9.33204 13.1234 9.13117 13.1234C8.63335 13.1234 8.1399 13.1234 7.64208 13.1234C7.43247 13.1234 7.3364 13.0229 7.3364 12.809C7.33203 12.3024 7.33203 11.7959 7.33203 11.2893C7.3888 11.0841 7.4543 11.0317 7.65518 11.0273C7.84295 11.0229 8.03073 11.0186 8.2185 11.0186ZM8.90846 12.0797C8.90846 11.94 8.90409 11.7959 8.90846 11.6561C8.91283 11.5688 8.87789 11.5469 8.79492 11.5469C8.51544 11.5513 8.24033 11.5513 7.96086 11.5469C7.88662 11.5469 7.85605 11.5688 7.85605 11.6474C7.86042 11.9312 7.86042 12.2151 7.85605 12.4989C7.85605 12.5819 7.88662 12.5994 7.96086 12.5994C8.24033 12.595 8.51544 12.595 8.79492 12.5994C8.87789 12.5994 8.91283 12.5775 8.90846 12.4902C8.90409 12.3504 8.90846 12.2151 8.90846 12.0797Z" fill="#0E1023"/>
<path id="Vector_23" d="M13.1005 11.6038C13.1005 11.7567 13.1005 11.9095 13.1005 12.0623C13.1005 12.2457 13.0874 12.4117 13.2534 12.5602C13.4062 12.6955 13.3931 12.9444 13.2927 13.1235C13.1835 13.3069 12.9695 13.4204 12.7643 13.3768C12.6639 13.3549 12.6027 13.3855 12.5329 13.4423C12.2839 13.6475 12.0307 13.844 11.7818 14.0449C11.7206 14.0929 11.6901 14.106 11.6289 14.0361C11.3538 13.713 11.3538 13.7174 11.6813 13.4554C11.8123 13.3506 11.9433 13.2414 12.0787 13.1409C12.2141 13.0405 12.3451 12.9488 12.3363 12.7436C12.332 12.6475 12.3931 12.5514 12.4761 12.4947C12.5722 12.4291 12.5809 12.3418 12.5765 12.2414C12.5722 11.796 12.5765 11.3462 12.5722 10.9008C12.5722 10.7916 12.6027 10.7654 12.7075 10.7654C13.0962 10.7654 13.0962 10.761 13.0962 11.1497C13.1005 11.2981 13.1005 11.451 13.1005 11.6038Z" fill="#0F1023"/>
<path id="Vector_24" d="M6.02604 12.0971C6.01294 12.2412 6.10028 12.4683 5.99111 12.5687C5.89504 12.6517 5.67233 12.5949 5.50202 12.5949C5.36665 12.5949 5.23128 12.5905 5.09154 12.5993C4.99547 12.6036 4.97363 12.5687 4.97363 12.477C4.978 12.2063 4.978 11.9312 4.97363 11.6604C4.97363 11.5774 4.99547 11.5469 5.0828 11.5469C5.36228 11.5512 5.63739 11.5512 5.91687 11.5469C6.00421 11.5469 6.03041 11.5774 6.02604 11.6604C6.02167 11.7958 6.02604 11.9312 6.02604 12.0971Z" fill="#50B5CE"/>
<path id="Vector_25" d="M2.10854 12.0579C2.10854 11.8963 2.04304 11.678 2.126 11.5862C2.21771 11.4771 2.44478 11.56 2.61072 11.5513C2.75046 11.5469 2.89457 11.5557 3.03431 11.5469C3.11728 11.5426 3.14784 11.5644 3.14784 11.6561C3.14348 11.9356 3.14348 12.2107 3.14784 12.4902C3.14784 12.5775 3.11728 12.5994 3.03431 12.5994C2.76356 12.595 2.48845 12.595 2.21771 12.5994C2.13037 12.5994 2.09107 12.5819 2.09544 12.4814C2.10417 12.3417 2.09544 12.1976 2.09544 12.0579C2.0998 12.0579 2.10417 12.0579 2.10854 12.0579Z" fill="#50B5CE"/>
<path id="Vector_26" d="M2.63765 5.79604C2.79922 5.79604 3.01756 5.73053 3.10927 5.8135C3.21844 5.90521 3.13547 6.13228 3.1442 6.29822C3.14857 6.43796 3.13983 6.58207 3.14857 6.72181C3.15293 6.80478 3.1311 6.83971 3.0394 6.83535C2.75992 6.83098 2.48481 6.83098 2.20533 6.83535C2.11799 6.83535 2.09179 6.80914 2.09616 6.72181C2.10053 6.45106 2.10489 6.17595 2.09616 5.90521C2.09179 5.79604 2.13546 5.77857 2.22717 5.78294C2.36254 5.7873 2.49791 5.78294 2.63765 5.78294C2.63765 5.7873 2.63765 5.79167 2.63765 5.79604Z" fill="#50B5CE"/>
<path id="Vector_27" d="M5.49329 6.83097C5.35791 6.83097 5.22254 6.82661 5.0828 6.83097C4.99547 6.83534 4.97363 6.8004 4.97363 6.71743C4.978 6.43796 4.978 6.16285 4.97363 5.88337C4.97363 5.80913 4.9911 5.77856 5.07407 5.77856C5.35791 5.78293 5.64176 5.78293 5.9256 5.77856C6.00421 5.77856 6.02604 5.80913 6.02604 5.88337C6.02167 6.16285 6.02167 6.43796 6.02604 6.71743C6.02604 6.8004 6.00857 6.83534 5.91687 6.83097C5.77713 6.82661 5.63739 6.83097 5.49329 6.83097Z" fill="#50B5CE"/>
<path id="Vector_28" d="M8.39306 6.83089C8.26643 6.83089 8.13979 6.82215 8.01752 6.83089C7.90398 6.83962 7.85158 6.81342 7.86031 6.68242C7.87341 6.4204 7.86904 6.15839 7.86031 5.89638C7.86031 5.80468 7.88651 5.77411 7.97822 5.77848C8.24896 5.78285 8.52407 5.78285 8.79481 5.77848C8.87342 5.77848 8.91272 5.79158 8.90835 5.88328C8.90398 6.16276 8.90398 6.43787 8.90835 6.71735C8.90835 6.80469 8.88652 6.83089 8.79918 6.82652C8.66381 6.82652 8.52844 6.83089 8.39306 6.83089Z" fill="#50B5CE"/>
<path id="Vector_29" d="M11.7907 6.3111C11.7907 6.44647 11.7863 6.58185 11.7907 6.72158C11.7951 6.80455 11.7689 6.83512 11.6815 6.83512C11.402 6.83076 11.1269 6.83076 10.8475 6.83512C10.7601 6.83512 10.7383 6.80455 10.7383 6.72158C10.7426 6.44211 10.7426 6.167 10.7383 5.88752C10.7383 5.81328 10.7601 5.78271 10.8387 5.78271C11.1226 5.78708 11.4064 5.78708 11.6903 5.78271C11.7732 5.78271 11.7907 5.81328 11.7907 5.88752C11.7863 6.02726 11.7907 6.17136 11.7907 6.3111Z" fill="#50B5CE"/>
<path id="Vector_30" d="M8.90839 9.23246C8.89093 9.3722 8.98263 9.5949 8.87346 9.68661C8.78175 9.76958 8.56341 9.71281 8.40184 9.71281C8.2621 9.71281 8.11799 9.70844 7.97826 9.71281C7.89965 9.71718 7.86035 9.69971 7.86035 9.608C7.86472 9.32416 7.86472 9.04032 7.86035 8.75647C7.86035 8.6866 7.88219 8.6604 7.95206 8.6604C8.24027 8.66477 8.52848 8.66477 8.81669 8.6604C8.89092 8.6604 8.90839 8.69097 8.90839 8.75647C8.90403 8.90931 8.90839 9.05342 8.90839 9.23246Z" fill="#50B5CE"/>
<path id="Vector_31" d="M6.02604 9.18906C6.02604 9.32443 6.02167 9.4598 6.02604 9.59954C6.03041 9.69561 5.99547 9.71745 5.90377 9.71745C5.63302 9.71308 5.35791 9.71308 5.08717 9.71745C5.0042 9.71745 4.97363 9.69561 4.97363 9.60828C4.978 9.3288 4.978 9.05369 4.97363 8.77421C4.97363 8.68687 5.0042 8.66504 5.08717 8.66504C5.35791 8.66941 5.63302 8.66941 5.90377 8.66504C5.99547 8.66504 6.03041 8.68687 6.02604 8.78294C6.02167 8.91832 6.02604 9.05369 6.02604 9.18906Z" fill="#50B5CE"/>
<path id="Vector_32" d="M2.62455 8.66492C2.76429 8.66492 2.9084 8.66929 3.04813 8.66492C3.118 8.66492 3.1442 8.68676 3.1442 8.75663C3.13984 9.04484 3.13984 9.33305 3.1442 9.62126C3.1442 9.6955 3.11364 9.71296 3.04813 9.71296C2.76429 9.7086 2.48044 9.7086 2.1966 9.71296C2.118 9.71296 2.0918 9.69113 2.09616 9.61253C2.10053 9.32868 2.10053 9.04484 2.09616 8.76099C2.09616 8.67802 2.1311 8.66056 2.20097 8.66492C2.34507 8.66929 2.48481 8.66492 2.62455 8.66492Z" fill="#50B5CE"/>
<path id="Vector_33" d="M8.90885 12.0796C8.90885 12.215 8.90449 12.3504 8.90885 12.4901C8.91322 12.5774 8.87829 12.5993 8.79532 12.5993C8.51584 12.5949 8.24073 12.5949 7.96125 12.5993C7.88701 12.5993 7.85645 12.5818 7.85645 12.4988C7.86081 12.215 7.86081 11.9312 7.85645 11.6473C7.85645 11.5687 7.88701 11.5469 7.96125 11.5469C8.24073 11.5512 8.51584 11.5512 8.79532 11.5469C8.87829 11.5469 8.91322 11.5643 8.90885 11.656C8.90449 11.7958 8.90885 11.9399 8.90885 12.0796Z" fill="#50B5CE"/>
</g>
</svg>
