<svg width="30" height="20" viewBox="0 0 30 20" fill="none" xmlns="http://www.w3.org/2000/svg">
<path id="Vector" d="M30 1.85599C30 7.28533 30 12.7147 30 18.144C29.9844 18.1825 29.9688 18.2133 29.9531 18.2518C29.625 19.4147 28.8672 20 27.6641 20C19.2188 20 10.7734 20 2.32031 20C2.25 20 2.1875 20 2.11719 20C1.10156 19.9692 0.242188 19.253 0.046875 18.2749C0.0078125 18.0978 0 17.913 0 17.7281C0 12.576 0 7.42395 0 2.27955C0 1.50173 0.289062 0.870235 0.921875 0.408163C1.35938 0.0924143 1.85156 0 2.39062 0C10.7969 0.00770119 19.2031 0 27.6172 0C27.7031 0 27.7969 0 27.8828 0C28.8125 0.0308048 29.6094 0.623797 29.8984 1.49403C29.9297 1.62495 29.9688 1.74047 30 1.85599ZM5.38281 6.00693C4.76562 6.00693 4.15625 6.00693 3.53906 6.00693C3.03125 6.00693 2.80469 6.23027 2.80469 6.73084C2.79688 7.58568 2.79688 8.44051 2.80469 9.29534C2.80469 9.78822 3.03906 10.027 3.53125 10.027C4.75781 10.0347 5.98438 10.0347 7.21875 10.027C7.71094 10.027 7.96094 9.78052 7.96094 9.29534C7.96875 8.44051 7.96875 7.58568 7.96094 6.73084C7.96094 6.24567 7.71094 6.00693 7.21875 5.99923C6.60938 6.00693 5.99219 6.00693 5.38281 6.00693ZM8.75781 17.1275C10.4453 17.1275 12.1328 17.1275 13.8203 17.1275C14.3984 17.1275 14.7109 16.9041 14.7031 16.4806C14.6953 16.0724 14.3906 15.8568 13.8281 15.8568C10.4375 15.8568 7.05469 15.8568 3.66406 15.8568C3.54688 15.8568 3.42969 15.8568 3.3125 15.8799C2.99219 15.9415 2.78906 16.1956 2.80469 16.5191C2.82031 16.8964 3.08594 17.1275 3.53906 17.1275C5.28125 17.1275 7.01562 17.1275 8.75781 17.1275ZM23.0391 4.99037C23.7109 4.99037 24.3828 4.99037 25.0625 4.99037C25.5781 4.99037 26.0938 4.99807 26.6172 4.98267C26.9453 4.97497 27.1797 4.72083 27.2031 4.41278C27.2266 4.08933 27.0391 3.82749 26.7188 3.75048C26.625 3.72738 26.5234 3.71968 26.4297 3.71968C24.1875 3.71968 21.9375 3.71968 19.6953 3.71968C19.5781 3.71968 19.4609 3.73508 19.3516 3.76588C19.0547 3.8583 18.8906 4.12014 18.9219 4.43589C18.9531 4.72853 19.1719 4.95187 19.4766 4.98267C19.5859 4.99807 19.6875 4.99037 19.7969 4.99037C20.875 4.99037 21.9531 4.99037 23.0391 4.99037ZM16.5 14.2934C16.9766 14.2934 17.4531 14.3011 17.9375 14.2934C18.3594 14.2857 18.6328 14.0393 18.6406 13.6773C18.6484 13.3 18.3672 13.0304 17.9375 13.0304C16.9922 13.0227 16.0469 13.0227 15.0938 13.0304C14.6641 13.0304 14.375 13.3077 14.375 13.6696C14.375 14.0393 14.6641 14.2934 15.1016 14.3011C15.5625 14.3011 16.0312 14.2934 16.5 14.2934ZM4.90625 14.2934C5.38281 14.2934 5.85938 14.3011 6.34375 14.2934C6.78906 14.2857 7.05469 14.0393 7.05469 13.6619C7.05469 13.3 6.78125 13.0304 6.36719 13.0304C5.41406 13.0227 4.45312 13.0227 3.5 13.0304C3.0625 13.0381 2.79688 13.3 2.80469 13.685C2.8125 14.0547 3.07812 14.2934 3.50781 14.3011C3.96875 14.3011 4.4375 14.2934 4.90625 14.2934ZM10.7109 14.2934C11.1875 14.2934 11.6641 14.3011 12.1484 14.2934C12.5703 14.2857 12.8359 14.0393 12.8438 13.6696C12.8516 13.2923 12.5781 13.0227 12.1406 13.0227C11.1953 13.015 10.25 13.015 9.29688 13.0227C8.85938 13.0227 8.58594 13.2923 8.58594 13.6619C8.58594 14.0393 8.85938 14.2857 9.30469 14.2934C9.77344 14.3011 10.2422 14.2934 10.7109 14.2934ZM22.2891 14.2934C22.7656 14.2934 23.2422 14.3011 23.7266 14.2934C24.1406 14.2857 24.4219 14.0316 24.4297 13.6773C24.4375 13.3154 24.1484 13.0304 23.7188 13.0227C22.7734 13.015 21.8281 13.015 20.875 13.0227C20.4453 13.0227 20.1562 13.2923 20.1562 13.6619C20.1562 14.0316 20.4453 14.2857 20.875 14.2934C21.3516 14.3011 21.8203 14.2934 22.2891 14.2934Z" fill="#ABA9C2"/>
</svg>
