<svg width="14" height="19" viewBox="0 0 14 19" fill="none" xmlns="http://www.w3.org/2000/svg">
<g id="Group 1000005802">
<path id="Vector" d="M3.01695 18.8564C3.18962 18.4779 3.06344 18.2588 2.63843 18.2322C2.49897 18.2255 2.47905 18.1724 2.47905 18.0529C2.48569 17.1298 2.46576 16.2134 2.48569 15.2903C2.50561 14.4137 3.2029 13.7563 4.07949 13.7363C4.37833 13.7297 4.67717 13.743 4.976 13.7297C5.11546 13.7231 5.17523 13.7629 5.21507 13.909C5.49399 14.925 6.33738 15.5825 7.35343 15.5891C8.39604 15.5891 9.24607 14.945 9.52498 13.9223C9.57147 13.7629 9.63124 13.7297 9.77733 13.7363C9.9832 13.7496 10.1891 13.743 10.4016 13.7496C11.0723 14.2145 11.3778 14.8454 11.3512 15.6688C11.3247 16.5188 11.3446 17.3689 11.3446 18.2255C10.3684 18.2255 9.38552 18.2322 8.40932 18.2322C7.14092 18.2322 5.87252 18.2322 4.60412 18.2322C4.16582 18.2322 4.01972 18.458 4.18574 18.8564C3.79393 18.8564 3.40212 18.8564 3.01695 18.8564Z" fill="#3C86CF"/>
<path id="Vector_2" d="M2.9168 6.91618C3.17579 6.86969 3.28204 6.71031 3.32853 6.45796C3.4215 5.93998 3.62073 5.46184 3.91292 5.03018C3.97269 5.0169 3.97269 5.06339 3.98597 5.08331C4.63678 6.29858 5.66611 6.89626 7.03412 6.9029C8.33573 6.90954 9.63733 6.9029 10.9389 6.9029C11.0053 6.9029 11.0718 6.90954 11.1382 6.91618C11.1116 7.77949 11.1979 8.6428 11.085 9.49947C10.7928 9.49947 10.5073 9.49947 10.2151 9.50611C9.96273 9.51275 9.78343 9.71198 9.79007 9.95769C9.79671 10.1901 9.96273 10.3429 10.2084 10.3495C10.4143 10.3561 10.6202 10.3495 10.826 10.3561C10.7464 10.7878 10.4874 11.1331 10.2682 11.4917C10.1487 11.6843 9.90297 11.7839 9.88304 12.0429C9.8432 12.0429 9.80335 12.0562 9.78343 12.096C8.04353 13.5637 4.82272 13.1519 3.60744 10.5354C3.46799 10.2366 3.36173 9.91784 3.30861 9.59244C3.26876 9.35337 3.14923 9.22055 2.91016 9.18735C2.92344 8.43029 2.92344 7.67324 2.9168 6.91618ZM7.35952 11.5116C8.05681 11.5116 8.62792 10.9804 8.68769 10.2831C8.70761 10.0307 8.56816 9.83815 8.34901 9.81823C8.14314 9.79831 7.9904 9.94441 7.94392 10.1968C7.88415 10.562 7.68492 10.7612 7.36616 10.7612C7.05404 10.7612 6.85482 10.5686 6.78841 10.2034C6.74192 9.93777 6.5759 9.79167 6.3634 9.82487C6.14425 9.85808 6.03135 10.0374 6.05128 10.3097C6.09776 10.9937 6.66887 11.5116 7.35952 11.5116ZM4.45083 10.3495C4.59029 10.3495 4.72975 10.3561 4.86921 10.3495C5.11492 10.3362 5.26102 10.1702 5.25437 9.92448C5.25437 9.67877 5.10828 9.51275 4.86256 9.50611C4.57037 9.49947 4.28481 9.49947 3.99261 9.50611C3.7469 9.51275 3.60744 9.68541 3.60744 9.93113C3.60744 10.1768 3.75354 10.3362 3.99925 10.3495C4.15199 10.3561 4.30473 10.3495 4.45083 10.3495ZM9.17911 8.37717C9.17911 8.51662 9.16583 8.65608 9.17911 8.79554C9.1924 9.01469 9.33849 9.15415 9.54436 9.15415C9.75687 9.15415 9.89633 9.03461 9.90961 8.82874C9.92953 8.52327 9.92953 8.21779 9.90961 7.91231C9.89633 7.70644 9.75023 7.58691 9.53772 7.59355C9.32521 7.60019 9.19904 7.71972 9.17911 7.93223C9.17247 8.07833 9.17911 8.23107 9.17911 8.37717ZM4.8028 8.37053C4.8028 8.51662 4.79616 8.66936 4.8028 8.81546C4.81608 9.01469 4.93561 9.13422 5.1282 9.15415C5.34071 9.17407 5.49345 9.07446 5.52001 8.86195C5.56649 8.54319 5.55985 8.21779 5.52665 7.89903C5.50009 7.69316 5.35399 7.58027 5.14148 7.59355C4.92897 7.60683 4.80944 7.733 4.79616 7.94551C4.79616 8.09161 4.8028 8.23107 4.8028 8.37053Z" fill="#FDCCBD"/>
<path id="Vector_3" d="M11.0868 6.13257C10.7415 6.13921 10.3895 6.15249 10.0442 6.15249C9.05472 6.15913 8.07188 6.15914 7.08239 6.15914C5.72766 6.15914 4.81786 5.46849 4.4659 4.16688C4.42605 4.0075 4.33972 3.89461 4.18034 3.84812C4.01432 3.80164 3.88814 3.86804 3.78189 3.98758C3.33031 4.47236 2.99827 5.03683 2.77248 5.66107C2.75256 5.72084 2.726 5.78061 2.68615 5.88686C2.46036 4.75128 2.41388 3.65554 2.42052 2.52659C2.71271 2.61956 2.98499 2.7059 3.2639 2.78559C3.5561 2.87192 3.669 2.83871 3.82838 2.57972C4.50574 1.47734 5.48859 0.906227 6.77691 0.826537C7.4742 0.786692 8.16485 0.733565 8.8555 0.886304C8.9219 0.899586 8.98167 0.926149 9.04808 0.946072C9.05472 0.999199 9.09457 1.02576 9.13441 1.05897C10.0708 1.78282 10.6884 2.71254 10.9606 3.8614C11.1333 4.61182 11.0935 5.36887 11.0868 6.13257Z" fill="#D67E49"/>
<path id="Vector_4" d="M11.0866 6.13274C11.0932 5.37568 11.1397 4.61199 10.9604 3.86821C10.6881 2.71935 10.0705 1.78299 9.13418 1.06578C9.09434 1.03257 9.05449 1.00601 9.04785 0.952881C10.4225 1.31813 11.3522 2.19472 11.93 3.4764C12.3019 4.30651 12.2554 5.18974 12.2487 6.06633C12.2487 6.14602 12.2155 6.18587 12.1292 6.17923C11.7772 6.15266 11.4319 6.13938 11.0866 6.13274Z" fill="#C26A35"/>
<path id="Vector_5" d="M11.3385 18.2189C11.3385 17.3689 11.3186 16.5122 11.3451 15.6622C11.3717 14.8388 11.0596 14.2079 10.3955 13.743C11.3385 13.6965 12.0026 14.1481 12.2018 14.9716C12.235 15.0977 12.2417 15.2306 12.2417 15.3634C12.2417 16.24 12.235 17.1166 12.2483 17.9932C12.2483 18.1857 12.1885 18.2389 12.0092 18.2256C11.7834 18.2123 11.5643 18.2189 11.3385 18.2189Z" fill="#0177C7"/>
<path id="Vector_6" d="M11.0859 9.49939C11.1988 8.63608 11.1125 7.77277 11.1391 6.9161C11.491 6.9161 11.843 6.84969 12.1883 6.96923C12.1883 7.69308 12.195 8.41029 12.195 9.13414C12.102 9.15407 12.0024 9.18727 11.9094 9.20055C11.5176 9.2404 11.4844 9.26696 11.3848 9.65877C11.2852 9.58572 11.1988 9.51267 11.0859 9.49939Z" fill="#FCAE9C"/>
<path id="Vector_7" d="M2.91709 6.91636C2.91709 7.67342 2.91709 8.43048 2.91709 9.18753C2.24637 9.20745 1.7151 8.69611 1.72174 8.03867C1.72838 7.38122 2.26629 6.88316 2.91709 6.91636Z" fill="#FCAE9C"/>
<path id="Vector_8" d="M8.69482 13.9887C8.4159 14.5665 7.9112 14.8719 7.26039 14.8387C6.68928 14.8122 6.18458 14.4337 5.98535 13.8891C6.07832 13.8692 6.16465 13.9157 6.25099 13.9422C6.68928 14.0551 7.14086 14.1415 7.59244 14.1282C7.96432 14.1215 8.33621 14.075 8.69482 13.9887Z" fill="#FCAE9C"/>
<path id="Vector_9" d="M12.1951 9.12781C12.1951 8.40395 12.1885 7.68674 12.1885 6.96289C12.6733 7.10235 12.9854 7.51408 12.992 8.02543C12.992 8.55005 12.6932 8.96178 12.1951 9.12781Z" fill="#FAA48C"/>
<path id="Vector_10" d="M8.6948 13.9888C8.3362 14.0751 7.96431 14.1216 7.59906 14.1282C7.14749 14.1415 6.69591 14.0618 6.25761 13.9423C6.17128 13.9224 6.08495 13.8693 5.99198 13.8892C5.9787 13.8693 5.96542 13.8493 5.95878 13.8228C5.93221 13.7165 5.84588 13.5837 5.92557 13.4974C5.98534 13.4243 6.11151 13.5173 6.19785 13.5372C7.02131 13.7298 7.83813 13.7232 8.64832 13.4974C8.70144 13.4841 8.76121 13.4708 8.82762 13.4575C8.83426 13.6634 8.79442 13.8294 8.6948 13.9888Z" fill="#FAA48C"/>
<path id="Vector_11" d="M11.0864 9.49951C11.2059 9.51279 11.2856 9.58584 11.3786 9.65225C11.3387 9.89796 11.2723 10.1304 11.166 10.3562C11.0531 10.3562 10.9469 10.3562 10.834 10.3562C10.6281 10.3562 10.4223 10.3562 10.2164 10.3495C9.96405 10.3429 9.80467 10.1835 9.79803 9.95773C9.79139 9.71202 9.97069 9.51279 10.223 9.50615C10.5086 9.49951 10.7942 9.49951 11.0864 9.49951Z" fill="#FD8F83"/>
<path id="Vector_12" d="M10.8336 10.3562C10.9465 10.3562 11.0528 10.3562 11.1657 10.3562C10.9 11.0336 10.4883 11.6113 9.89062 12.043C9.91055 11.784 10.1629 11.6844 10.2758 11.4918C10.5016 11.1265 10.7539 10.7879 10.8336 10.3562Z" fill="#FCAE9C"/>
<path id="Vector_13" d="M9.79102 12.0961C9.81094 12.0563 9.84414 12.043 9.89063 12.043C9.87071 12.0828 9.84414 12.116 9.79102 12.0961Z" fill="#FCAE9C"/>
<path id="Vector_14" d="M7.36011 11.5117C6.66946 11.5117 6.09835 10.9871 6.04522 10.3031C6.0253 10.0308 6.13819 9.85154 6.35734 9.81833C6.56985 9.78513 6.73587 9.93123 6.78236 10.1969C6.84876 10.5687 7.04799 10.7613 7.36011 10.7547C7.67887 10.7547 7.87809 10.5555 7.93786 10.1902C7.97771 9.93123 8.13045 9.79177 8.34295 9.81169C8.5621 9.83161 8.7082 10.0242 8.68164 10.2766C8.62851 10.9871 8.0574 11.5117 7.36011 11.5117Z" fill="#050404"/>
<path id="Vector_15" d="M4.45198 10.3496C4.30588 10.3496 4.15314 10.3562 4.00704 10.3496C3.76133 10.3363 3.61523 10.1703 3.61523 9.93122C3.61523 9.68551 3.76133 9.51949 4.0004 9.5062C4.2926 9.49292 4.57816 9.49956 4.87035 9.5062C5.11607 9.51284 5.26216 9.67887 5.26216 9.92458C5.26216 10.1703 5.11607 10.3363 4.877 10.3496C4.73754 10.3562 4.59144 10.3496 4.45198 10.3496Z" fill="#FD8F83"/>
<path id="Vector_16" d="M9.17973 8.37714C9.17973 8.23105 9.16645 8.07831 9.17973 7.93221C9.19965 7.7197 9.32583 7.60017 9.53834 7.59352C9.75084 7.58688 9.89694 7.70642 9.91022 7.91228C9.93015 8.21776 9.93015 8.52324 9.91022 8.82872C9.89694 9.03459 9.75748 9.15412 9.54498 9.15412C9.33911 9.15412 9.19965 9.01467 9.17973 8.79552C9.17309 8.6627 9.17973 8.5166 9.17973 8.37714Z" fill="#050404"/>
<path id="Vector_17" d="M4.80373 8.37076C4.80373 8.2313 4.79709 8.09184 4.80373 7.95238C4.81701 7.73988 4.93655 7.6137 5.14906 7.60042C5.36156 7.58714 5.50766 7.70003 5.53423 7.9059C5.57407 8.22466 5.57407 8.55006 5.52758 8.86882C5.49438 9.07469 5.34164 9.18094 5.13577 9.16102C4.93655 9.14109 4.82366 9.02156 4.81037 8.82233C4.79709 8.66959 4.80373 8.51686 4.80373 8.37076Z" fill="#050404"/>
<path id="Vector_18" d="M12.2282 13.6036C11.5442 12.9793 10.7473 12.9461 9.9238 12.9594C9.98356 12.9129 10.05 12.8731 10.1097 12.8266C11.066 12.1559 11.7102 11.2593 12.0356 10.137C12.0821 9.9843 12.1485 9.91789 12.3079 9.87804C12.8923 9.73859 13.304 9.3667 13.5763 8.84207C13.7091 8.43698 13.7423 7.82602 13.7423 7.82602C13.6692 7.3346 13.4567 6.92287 13.0782 6.60411C12.9919 6.53106 12.9985 6.45137 12.9985 6.3584C12.9985 5.88026 13.0118 5.39547 12.9919 4.91733C12.9122 3.17743 12.1418 1.80942 10.6875 0.846496C9.58511 0.116003 8.3632 -0.0168141 7.08816 0.0429535C5.58068 0.116003 4.30564 0.614066 3.40249 1.86919C3.32944 1.97544 3.23647 1.98872 3.11693 1.94888C2.82473 1.8559 2.53254 1.76293 2.24034 1.6766C1.9083 1.57699 1.69579 1.71645 1.68251 2.06177C1.6493 3.44307 1.68251 4.81772 1.98799 6.17245C2.02119 6.31855 1.98799 6.36504 1.87509 6.44473C1.20437 6.88966 0.885607 7.52055 1.00514 8.31745C1.12468 9.14091 1.62938 9.67218 2.43292 9.89133C2.58566 9.93117 2.63879 9.99094 2.68528 10.137C3.01068 11.2726 3.66148 12.1758 4.63104 12.8465C4.68417 12.8863 4.74394 12.9262 4.85019 12.9992C4.50487 12.9992 4.23259 12.9926 3.96032 12.9992C2.86458 13.0391 1.88173 13.8958 1.77548 14.9849C1.65595 16.1935 1.74892 17.4088 1.73564 18.6174C1.73564 18.7701 1.81533 18.9229 1.96142 18.9428C2.31339 18.9893 2.68528 19.0756 3.01732 18.8631C3.18998 18.4846 3.0638 18.2654 2.63879 18.2389C2.49933 18.2322 2.47941 18.1791 2.47941 18.0596C2.48605 17.1365 2.46613 16.2201 2.48605 15.297C2.50597 14.4204 3.20326 13.7629 4.07985 13.743C4.37869 13.7364 4.67753 13.7497 4.97637 13.7364C5.11583 13.7297 5.17559 13.7696 5.21544 13.9157C5.49435 14.9317 6.33774 15.5892 7.35379 15.5958C8.3964 15.5958 9.24643 14.9516 9.52535 13.929C9.57183 13.7696 9.6316 13.7364 9.7777 13.743C9.98356 13.7563 10.1894 13.7497 10.4019 13.7563C11.3449 13.7098 12.009 14.1614 12.2082 14.9849C12.2415 15.111 12.2481 15.2438 12.2481 15.3767C12.2481 16.2533 12.2415 17.1298 12.2547 18.0064C12.2547 18.199 12.195 18.2521 12.0157 18.2389C11.7965 18.2256 11.5707 18.2322 11.3449 18.2256C10.3687 18.2256 9.38589 18.2322 8.40968 18.2322C7.14128 18.2322 5.87288 18.2322 4.60448 18.2322C4.16618 18.2322 4.02009 18.458 4.18611 18.8565C4.30564 18.9561 4.4451 18.976 4.60448 18.976C7.2409 18.976 9.87731 18.976 12.5204 18.976C12.5602 18.976 12.6067 18.976 12.6465 18.976C12.859 18.9494 13.0118 18.8565 13.0051 18.6174C12.9653 17.2295 13.118 15.8415 12.8923 14.4536C12.5735 13.836 12.2282 13.6036 12.2282 13.6036ZM2.42628 2.52663C2.71848 2.6196 2.99076 2.70593 3.26967 2.78562C3.56187 2.87195 3.67476 2.83875 3.83414 2.57976C4.51151 1.47738 5.49435 0.906263 6.78268 0.826573C7.47997 0.786728 8.17061 0.733601 8.86126 0.886341C8.92767 0.899622 8.98744 0.926186 9.05385 0.946108C10.4285 1.31135 11.3582 2.18795 11.936 3.46963C12.3079 4.29974 12.2614 5.18297 12.2547 6.05956C12.2547 6.13925 12.2215 6.17909 12.1352 6.17245C11.7899 6.15917 11.4446 6.14589 11.0926 6.13261C10.7473 6.13925 10.3953 6.15253 10.05 6.15253C9.06049 6.15917 8.07764 6.15917 7.08816 6.15917C5.73342 6.15917 4.82363 5.46852 4.47166 4.16692C4.43182 4.00754 4.34549 3.89464 4.18611 3.84816C4.02009 3.80167 3.89391 3.86808 3.78766 3.98762C3.32944 4.4724 2.9974 5.03687 2.77161 5.66111C2.75168 5.72088 2.72512 5.78064 2.68528 5.8869C2.45949 4.75131 2.413 3.65557 2.42628 2.52663ZM8.69524 13.9887C8.41633 14.5665 7.91162 14.872 7.26082 14.8388C6.68971 14.8122 6.185 14.4337 5.98578 13.8891C5.97249 13.8692 5.95921 13.8493 5.95257 13.8227C5.92601 13.7165 5.83968 13.5836 5.91937 13.4973C5.97914 13.4243 6.10531 13.5172 6.19164 13.5371C7.01511 13.7297 7.83193 13.7231 8.64211 13.4973C8.69524 13.484 8.75501 13.4707 8.82142 13.4575C8.8347 13.6633 8.79485 13.8293 8.69524 13.9887ZM9.89059 12.043C9.87067 12.0828 9.84411 12.116 9.79098 12.0961C8.05108 13.5637 4.83027 13.152 3.61499 10.5355C3.47554 10.2366 3.36928 9.91789 3.31616 9.59249C3.27631 9.35342 3.15678 9.2206 2.91771 9.1874C2.24698 9.20732 1.71571 8.69597 1.72235 8.03853C1.72899 7.38773 2.26026 6.88966 2.91771 6.91623C3.1767 6.86974 3.28295 6.71036 3.32944 6.45801C3.42241 5.94002 3.62164 5.46188 3.91383 5.03023C3.9736 5.01695 3.9736 5.06343 3.98688 5.08335C4.63768 6.29863 5.66702 6.89631 7.03503 6.90295C8.33664 6.90959 9.63824 6.90295 10.9398 6.90295C11.0063 6.90295 11.0727 6.90959 11.1391 6.91623C11.491 6.91623 11.843 6.84982 12.1883 6.96935C12.6731 7.10881 12.9852 7.52055 12.9919 8.03189C12.9985 8.54988 12.6997 8.96825 12.195 9.13427C12.102 9.15419 12.0024 9.1874 11.9094 9.20068C11.5176 9.24052 11.4844 9.26709 11.3848 9.6589C11.3449 9.90461 11.2785 10.137 11.1723 10.3628C10.9 11.0402 10.4883 11.6113 9.89059 12.043Z" fill="#030202"/>
</g>
</svg>
