<svg width="40" height="40" viewBox="0 0 40 40" fill="none" xmlns="http://www.w3.org/2000/svg">
<path d="M20 40C31.0457 40 40 31.0457 40 20C40 8.95431 31.0457 0 20 0C8.95431 0 0 8.95431 0 20C0 31.0457 8.95431 40 20 40Z" fill="#3F71EE"/>
<path d="M3.87526 21V18.977C4.54393 18.3197 5.1616 17.7077 5.72826 17.141C5.96626 16.903 6.20993 16.6593 6.45926 16.41C6.7086 16.1607 6.94093 15.9283 7.15626 15.713C7.3716 15.4977 7.56426 15.305 7.73426 15.135C7.90426 14.9537 8.0346 14.812 8.12526 14.71C8.3066 14.4947 8.46526 14.302 8.60126 14.132C8.7486 13.962 8.86193 13.7977 8.94126 13.639C9.03193 13.469 9.09993 13.3047 9.14526 13.146C9.1906 12.976 9.21326 12.7947 9.21326 12.602C9.21326 12.228 9.06593 11.905 8.77126 11.633C8.4766 11.3497 8.07426 11.208 7.56426 11.208C7.05426 11.208 6.6576 11.3553 6.37426 11.65C6.09093 11.9333 5.89826 12.2563 5.79626 12.619L3.77326 11.786C3.86393 11.48 4.01126 11.1683 4.21526 10.851C4.41926 10.5223 4.67993 10.2333 4.99726 9.984C5.3146 9.72333 5.6886 9.51367 6.11926 9.355C6.56126 9.185 7.05426 9.1 7.59826 9.1C8.1876 9.1 8.72026 9.19067 9.19626 9.372C9.67226 9.542 10.0746 9.78 10.4033 10.086C10.7319 10.392 10.9869 10.7547 11.1683 11.174C11.3496 11.582 11.4403 12.024 11.4403 12.5C11.4403 13.2253 11.2589 13.894 10.8963 14.506C10.5449 15.1067 10.1143 15.6677 9.60426 16.189L8.14226 17.651C7.75693 18.0363 7.3206 18.467 6.83326 18.943L6.90126 19.045H11.6103V21H3.87526ZM17.9839 21.272C17.2359 21.272 16.5616 21.119 15.9609 20.813C15.3603 20.4957 14.8446 20.065 14.4139 19.521C13.9946 18.977 13.6716 18.3367 13.4449 17.6C13.2183 16.852 13.1049 16.0473 13.1049 15.186C13.1049 14.3247 13.2183 13.5257 13.4449 12.789C13.6716 12.041 13.9946 11.395 14.4139 10.851C14.8446 10.307 15.3603 9.882 15.9609 9.576C16.5616 9.25867 17.2359 9.1 17.9839 9.1C18.7319 9.1 19.4063 9.25867 20.0069 9.576C20.6076 9.882 21.1176 10.307 21.5369 10.851C21.9676 11.395 22.2963 12.041 22.5229 12.789C22.7496 13.5257 22.8629 14.3247 22.8629 15.186C22.8629 16.0473 22.7496 16.852 22.5229 17.6C22.2963 18.3367 21.9676 18.977 21.5369 19.521C21.1176 20.065 20.6076 20.4957 20.0069 20.813C19.4063 21.119 18.7319 21.272 17.9839 21.272ZM17.9839 19.164C18.3919 19.164 18.7603 19.0677 19.0889 18.875C19.4176 18.671 19.6953 18.3933 19.9219 18.042C20.1599 17.6793 20.3356 17.2543 20.4489 16.767C20.5736 16.2797 20.6359 15.7527 20.6359 15.186C20.6359 14.608 20.5736 14.081 20.4489 13.605C20.3356 13.1177 20.1599 12.6983 19.9219 12.347C19.6953 11.9843 19.4176 11.7067 19.0889 11.514C18.7603 11.31 18.3919 11.208 17.9839 11.208C17.5646 11.208 17.1906 11.31 16.8619 11.514C16.5333 11.7067 16.2556 11.9843 16.0289 12.347C15.8023 12.6983 15.6266 13.1177 15.5019 13.605C15.3886 14.081 15.3319 14.608 15.3319 15.186C15.3319 15.7527 15.3886 16.2797 15.5019 16.767C15.6266 17.2543 15.8023 17.6793 16.0289 18.042C16.2556 18.3933 16.5333 18.671 16.8619 18.875C17.1906 19.0677 17.5646 19.164 17.9839 19.164ZM24.1568 12.007C24.1568 11.6103 24.2305 11.2363 24.3778 10.885C24.5365 10.5337 24.7461 10.2277 25.0068 9.967C25.2788 9.695 25.5961 9.48533 25.9588 9.338C26.3215 9.17933 26.7181 9.1 27.1488 9.1C27.5795 9.1 27.9761 9.17933 28.3388 9.338C28.7128 9.48533 29.0301 9.695 29.2908 9.967C29.5628 10.2277 29.7725 10.5337 29.9198 10.885C30.0785 11.2363 30.1578 11.6103 30.1578 12.007C30.1578 12.4037 30.0785 12.7833 29.9198 13.146C29.7725 13.4973 29.5628 13.8033 29.2908 14.064C29.0301 14.3247 28.7128 14.5343 28.3388 14.693C27.9761 14.8403 27.5795 14.914 27.1488 14.914C26.7181 14.914 26.3215 14.8403 25.9588 14.693C25.5961 14.5343 25.2788 14.3247 25.0068 14.064C24.7461 13.8033 24.5365 13.4973 24.3778 13.146C24.2305 12.7833 24.1568 12.4037 24.1568 12.007ZM25.9758 12.007C25.9758 12.381 26.0891 12.6813 26.3158 12.908C26.5425 13.1347 26.8201 13.248 27.1488 13.248C27.4775 13.248 27.7551 13.1347 27.9818 12.908C28.2085 12.6813 28.3218 12.381 28.3218 12.007C28.3218 11.633 28.2085 11.3327 27.9818 11.106C27.7551 10.8793 27.4775 10.766 27.1488 10.766C26.8201 10.766 26.5425 10.8793 26.3158 11.106C26.0891 11.3327 25.9758 11.633 25.9758 12.007ZM26.3158 20.371L33.8638 9.1L35.2068 10.001L27.6588 21.272L26.3158 20.371ZM31.3648 18.365C31.3648 17.9683 31.4385 17.5943 31.5858 17.243C31.7445 16.8917 31.9541 16.5857 32.2148 16.325C32.4868 16.053 32.8041 15.8433 33.1668 15.696C33.5295 15.5373 33.9261 15.458 34.3568 15.458C34.7875 15.458 35.1841 15.5373 35.5468 15.696C35.9208 15.8433 36.2381 16.053 36.4988 16.325C36.7708 16.5857 36.9805 16.8917 37.1278 17.243C37.2865 17.5943 37.3658 17.9683 37.3658 18.365C37.3658 18.7617 37.2865 19.1413 37.1278 19.504C36.9805 19.8553 36.7708 20.1613 36.4988 20.422C36.2381 20.6827 35.9208 20.8867 35.5468 21.034C35.1841 21.1927 34.7875 21.272 34.3568 21.272C33.9261 21.272 33.5295 21.1927 33.1668 21.034C32.8041 20.8867 32.4868 20.6827 32.2148 20.422C31.9541 20.1613 31.7445 19.8553 31.5858 19.504C31.4385 19.1413 31.3648 18.7617 31.3648 18.365ZM33.1838 18.365C33.1838 18.739 33.2971 19.0393 33.5238 19.266C33.7505 19.4927 34.0281 19.606 34.3568 19.606C34.6855 19.606 34.9631 19.4927 35.1898 19.266C35.4165 19.0393 35.5298 18.739 35.5298 18.365C35.5298 17.991 35.4165 17.6907 35.1898 17.464C34.9631 17.2373 34.6855 17.124 34.3568 17.124C34.0281 17.124 33.7505 17.2373 33.5238 17.464C33.2971 17.6907 33.1838 17.991 33.1838 18.365ZM18.9575 30.42C18.9575 31.48 18.6042 32.3667 17.8975 33.08C17.1842 33.8 16.3109 34.16 15.2775 34.16C14.2375 34.16 13.3642 33.8 12.6575 33.08C11.9509 32.3667 11.5975 31.48 11.5975 30.42C11.5975 29.36 11.9509 28.4733 12.6575 27.76C13.3642 27.04 14.2375 26.68 15.2775 26.68C16.3175 26.68 17.1909 27.0433 17.8975 27.77C18.6042 28.4833 18.9575 29.3667 18.9575 30.42ZM12.5375 30.42C12.5375 31.2467 12.7975 31.93 13.3175 32.47C13.8442 33.01 14.4975 33.28 15.2775 33.28C16.0575 33.28 16.7075 33.01 17.2275 32.47C17.7542 31.9367 18.0175 31.2533 18.0175 30.42C18.0175 29.5867 17.7542 28.9033 17.2275 28.37C16.7075 27.83 16.0575 27.56 15.2775 27.56C14.4975 27.56 13.8442 27.83 13.3175 28.37C12.7975 28.91 12.5375 29.5933 12.5375 30.42ZM20.9632 30.93V34H20.0432V26.84H24.2232V27.72H20.9632V30.07H23.9032V30.93H20.9632ZM26.1879 30.93V34H25.2679V26.84H29.4479V27.72H26.1879V30.07H29.1279V30.93H26.1879Z" fill="#FAFAFB"/>
</svg>
