<svg width="30" height="24" viewBox="0 0 30 24" fill="none" xmlns="http://www.w3.org/2000/svg">
<g clip-path="url(#clip0_16177_16558)">
<path d="M9.9974 15.6895C10.7218 15.0345 11.4332 14.3912 12.1443 13.7479C15.8426 10.4027 19.5413 7.05756 23.2396 3.7124C24.3886 2.6734 25.5364 1.63333 26.6857 0.594673C27.0104 0.301002 27.3816 0.0941213 27.8224 0.0207922C28.7165 -0.127992 29.3663 0.541181 29.1602 1.40554C29.0751 1.76192 28.9014 2.07826 28.6599 2.35599C23.675 8.09125 18.6893 13.8255 13.704 19.56C12.8575 20.5338 12.0138 21.5094 11.1636 22.4804C10.8638 22.823 10.5027 23.0787 10.0392 23.1708C9.6525 23.2477 9.28742 23.1733 8.97497 22.9558C8.71368 22.7741 8.44807 22.569 8.25887 22.3199C5.76027 19.0276 3.27176 15.7278 0.789023 12.4237C0.480528 12.0131 0.333848 11.5335 0.425388 11.0184C0.572428 10.1919 1.58261 9.64392 2.43061 9.94007C2.69081 10.0308 2.942 10.1799 3.15968 10.3489C5.39555 12.0893 7.6235 13.8396 9.85396 15.5868C9.89541 15.6194 9.93973 15.6484 9.9974 15.6895Z" fill="#2FC68D"/>
</g>
<defs>
<clipPath id="clip0_16177_16558">
<rect width="28.8" height="23.2" fill="white" transform="translate(0.398438)"/>
</clipPath>
</defs>
</svg>
