<svg width="25" height="22" viewBox="0 0 25 22" fill="none" xmlns="http://www.w3.org/2000/svg">
<g id="Group 20391">
<path id="Vector" d="M24.7707 4.45752L16.0657 12.719C15.0951 13.6379 13.7801 14.1539 12.4091 14.1539C11.0382 14.1539 9.7232 13.6379 8.75257 12.719L0.0475683 4.45752C0.033091 4.61258 0 4.75292 0 4.907V16.6839C0.00164199 17.9848 0.546914 19.2321 1.51621 20.152C2.4855 21.0719 3.79968 21.5894 5.17047 21.5909H19.6478C21.0186 21.5894 22.3327 21.0719 23.302 20.152C24.2713 19.2321 24.8166 17.9848 24.8182 16.6839V4.907C24.8182 4.75292 24.7852 4.61258 24.7707 4.45752Z" fill="#374557" fill-opacity="0.6"/>
<path id="Vector_2" d="M14.6041 11.3313L24.0495 2.36617C23.592 1.64613 22.9466 1.05014 22.1757 0.635688C21.4048 0.221232 20.5344 0.00229715 19.6484 0H5.17112C4.28513 0.00229715 3.41472 0.221232 2.64382 0.635688C1.87293 1.05014 1.22758 1.64613 0.77002 2.36617L10.2154 11.3313C10.7982 11.8822 11.5872 12.1915 12.4098 12.1915C13.2323 12.1915 14.0213 11.8822 14.6041 11.3313Z" fill="#374557" fill-opacity="0.6"/>
</g>
</svg>
