<svg width="40" height="40" viewBox="0 0 40 40" fill="none" xmlns="http://www.w3.org/2000/svg">
<path d="M20 40C31.0457 40 40 31.0457 40 20C40 8.95431 31.0457 0 20 0C8.95431 0 0 8.95431 0 20C0 31.0457 8.95431 40 20 40Z" fill="#5ECBE3"/>
<path d="M5.9763 20V13.11L4.4033 13.773L3.7793 12.33L6.3923 11.108H7.6793V20H5.9763Z" fill="#FEFEFF"/>
<path d="M9.49402 20V18.453C10.0053 17.9504 10.4777 17.4824 10.911 17.049C11.093 16.867 11.2793 16.6807 11.47 16.49C11.6607 16.2994 11.8383 16.1217 12.003 15.957C12.1677 15.7924 12.315 15.645 12.445 15.515C12.575 15.3764 12.6747 15.268 12.744 15.19C12.8827 15.0254 13.004 14.878 13.108 14.748C13.2207 14.618 13.3073 14.4924 13.368 14.371C13.4373 14.241 13.4893 14.1154 13.524 13.994C13.5587 13.864 13.576 13.7254 13.576 13.578C13.576 13.292 13.4633 13.045 13.238 12.837C13.0127 12.6204 12.705 12.512 12.315 12.512C11.925 12.512 11.6217 12.6247 11.405 12.85C11.1883 13.0667 11.041 13.3137 10.963 13.591L9.41602 12.954C9.48535 12.72 9.59802 12.4817 9.75402 12.239C9.91002 11.9877 10.1093 11.7667 10.352 11.576C10.5947 11.3767 10.8807 11.2164 11.21 11.095C11.548 10.965 11.925 10.9 12.341 10.9C12.7917 10.9 13.199 10.9694 13.563 11.108C13.927 11.238 14.2347 11.42 14.486 11.654C14.7373 11.888 14.9323 12.1654 15.071 12.486C15.2097 12.798 15.279 13.136 15.279 13.5C15.279 14.0547 15.1403 14.566 14.863 15.034C14.5943 15.4934 14.265 15.9224 13.875 16.321L12.757 17.439C12.4623 17.7337 12.1287 18.063 11.756 18.427L11.808 18.505H15.409V20H9.49402Z" fill="#FEFEFF"/>
<path d="M17.735 20.078C17.423 20.078 17.1543 19.9697 16.929 19.753C16.7123 19.5277 16.604 19.259 16.604 18.947C16.604 18.635 16.7123 18.3707 16.929 18.154C17.1543 17.9374 17.423 17.829 17.735 17.829C18.047 17.829 18.3113 17.9374 18.528 18.154C18.7447 18.3707 18.853 18.635 18.853 18.947C18.853 19.259 18.7447 19.5277 18.528 19.753C18.3113 19.9697 18.047 20.078 17.735 20.078Z" fill="#FEFEFF"/>
<path d="M23.1502 20.208C22.8122 20.208 22.4742 20.1604 22.1362 20.065C21.8069 19.9697 21.4992 19.8224 21.2132 19.623C20.9272 19.4237 20.6759 19.1767 20.4592 18.882C20.2512 18.5787 20.0952 18.219 19.9912 17.803L21.5382 17.205C21.6335 17.6384 21.8155 17.985 22.0842 18.245C22.3615 18.505 22.7125 18.635 23.1372 18.635C23.3452 18.635 23.5359 18.6004 23.7092 18.531C23.8912 18.453 24.0472 18.349 24.1772 18.219C24.3159 18.089 24.4199 17.9374 24.4892 17.764C24.5672 17.582 24.6062 17.3827 24.6062 17.166C24.6062 16.958 24.5672 16.7674 24.4892 16.594C24.4199 16.412 24.3202 16.256 24.1902 16.126C24.0602 15.9874 23.9042 15.8834 23.7222 15.814C23.5489 15.736 23.3539 15.697 23.1372 15.697C22.8685 15.697 22.6302 15.7577 22.4222 15.879C22.2142 15.9917 22.0365 16.1347 21.8892 16.308L20.2382 15.554L20.7582 11.108H25.7632V12.603H22.1752L21.8372 14.683L21.9412 14.709C22.1145 14.5617 22.3269 14.436 22.5782 14.332C22.8295 14.228 23.1329 14.176 23.4882 14.176C23.8609 14.176 24.2162 14.2497 24.5542 14.397C24.8922 14.5357 25.1912 14.735 25.4512 14.995C25.7112 15.255 25.9192 15.5714 26.0752 15.944C26.2312 16.308 26.3092 16.7154 26.3092 17.166C26.3092 17.608 26.2312 18.0154 26.0752 18.388C25.9192 18.7607 25.6982 19.0814 25.4122 19.35C25.1349 19.6187 24.8012 19.831 24.4112 19.987C24.0299 20.1344 23.6095 20.208 23.1502 20.208Z" fill="#FEFEFF"/>
<path d="M27.2251 13.123C27.2251 12.8197 27.2814 12.5337 27.3941 12.265C27.5154 11.9964 27.6758 11.7624 27.8751 11.563C28.0831 11.355 28.3258 11.1947 28.6031 11.082C28.8804 10.9607 29.1838 10.9 29.5131 10.9C29.8424 10.9 30.1458 10.9607 30.4231 11.082C30.7091 11.1947 30.9518 11.355 31.1511 11.563C31.3591 11.7624 31.5194 11.9964 31.6321 12.265C31.7534 12.5337 31.8141 12.8197 31.8141 13.123C31.8141 13.4264 31.7534 13.7167 31.6321 13.994C31.5194 14.2627 31.3591 14.4967 31.1511 14.696C30.9518 14.8954 30.7091 15.0557 30.4231 15.177C30.1458 15.2897 29.8424 15.346 29.5131 15.346C29.1838 15.346 28.8804 15.2897 28.6031 15.177C28.3258 15.0557 28.0831 14.8954 27.8751 14.696C27.6758 14.4967 27.5154 14.2627 27.3941 13.994C27.2814 13.7167 27.2251 13.4264 27.2251 13.123ZM28.6161 13.123C28.6161 13.409 28.7028 13.6387 28.8761 13.812C29.0494 13.9854 29.2618 14.072 29.5131 14.072C29.7644 14.072 29.9768 13.9854 30.1501 13.812C30.3234 13.6387 30.4101 13.409 30.4101 13.123C30.4101 12.837 30.3234 12.6074 30.1501 12.434C29.9768 12.2607 29.7644 12.174 29.5131 12.174C29.2618 12.174 29.0494 12.2607 28.8761 12.434C28.7028 12.6074 28.6161 12.837 28.6161 13.123ZM28.8761 19.519L34.6481 10.9L35.6751 11.589L29.9031 20.208L28.8761 19.519ZM32.7371 17.985C32.7371 17.6817 32.7934 17.3957 32.9061 17.127C33.0274 16.8584 33.1878 16.6244 33.3871 16.425C33.5951 16.217 33.8378 16.0567 34.1151 15.944C34.3924 15.8227 34.6958 15.762 35.0251 15.762C35.3544 15.762 35.6578 15.8227 35.9351 15.944C36.2211 16.0567 36.4638 16.217 36.6631 16.425C36.8711 16.6244 37.0314 16.8584 37.1441 17.127C37.2654 17.3957 37.3261 17.6817 37.3261 17.985C37.3261 18.2884 37.2654 18.5787 37.1441 18.856C37.0314 19.1247 36.8711 19.3587 36.6631 19.558C36.4638 19.7574 36.2211 19.9134 35.9351 20.026C35.6578 20.1474 35.3544 20.208 35.0251 20.208C34.6958 20.208 34.3924 20.1474 34.1151 20.026C33.8378 19.9134 33.5951 19.7574 33.3871 19.558C33.1878 19.3587 33.0274 19.1247 32.9061 18.856C32.7934 18.5787 32.7371 18.2884 32.7371 17.985ZM34.1281 17.985C34.1281 18.271 34.2148 18.5007 34.3881 18.674C34.5614 18.8474 34.7738 18.934 35.0251 18.934C35.2764 18.934 35.4888 18.8474 35.6621 18.674C35.8354 18.5007 35.9221 18.271 35.9221 17.985C35.9221 17.699 35.8354 17.4694 35.6621 17.296C35.4888 17.1227 35.2764 17.036 35.0251 17.036C34.7738 17.036 34.5614 17.1227 34.3881 17.296C34.2148 17.4694 34.1281 17.699 34.1281 17.985Z" fill="#FEFEFF"/>
<path d="M18.9571 29.42C18.9571 30.48 18.6037 31.3667 17.8971 32.08C17.1837 32.8 16.3104 33.16 15.2771 33.16C14.2371 33.16 13.3637 32.8 12.6571 32.08C11.9504 31.3667 11.5971 30.48 11.5971 29.42C11.5971 28.36 11.9504 27.4734 12.6571 26.76C13.3637 26.04 14.2371 25.68 15.2771 25.68C16.3171 25.68 17.1904 26.0434 17.8971 26.77C18.6037 27.4834 18.9571 28.3667 18.9571 29.42ZM12.5371 29.42C12.5371 30.2467 12.7971 30.93 13.3171 31.47C13.8437 32.01 14.4971 32.28 15.2771 32.28C16.0571 32.28 16.7071 32.01 17.2271 31.47C17.7537 30.9367 18.0171 30.2534 18.0171 29.42C18.0171 28.5867 17.7537 27.9034 17.2271 27.37C16.7071 26.83 16.0571 26.56 15.2771 26.56C14.4971 26.56 13.8437 26.83 13.3171 27.37C12.7971 27.91 12.5371 28.5934 12.5371 29.42Z" fill="#FEFEFF"/>
<path d="M20.9628 29.93V33H20.0428V25.84H24.2228V26.72H20.9628V29.07H23.9028V29.93H20.9628Z" fill="#FEFEFF"/>
<path d="M26.1874 29.93V33H25.2674V25.84H29.4474V26.72H26.1874V29.07H29.1274V29.93H26.1874Z" fill="#FEFEFF"/>
</svg>
