<svg width="28" height="23" viewBox="0 0 28 23" fill="none" xmlns="http://www.w3.org/2000/svg">
<g id="Frame" clip-path="url(#clip0_1470_2206)">
<g id="Group">
<path id="Vector" d="M7.89755 16.9008C10.1923 16.9008 12.4881 16.8986 14.7828 16.9019C15.5524 16.903 15.7437 17.1031 15.7459 17.8784C15.7481 19.2268 15.7514 20.5752 15.7437 21.9236C15.7415 22.3808 15.8552 22.7591 16.3155 22.9385C16.7571 23.1102 17.0829 22.8958 17.3836 22.5951C20.7824 19.1918 24.1835 15.7919 27.5813 12.3875C28.1432 11.8243 28.1378 11.4197 27.5649 10.8466C24.1802 7.45541 20.7912 4.06855 17.4054 0.678418C17.0917 0.364557 16.7615 0.126153 16.2947 0.320813C15.8377 0.512191 15.7393 0.896043 15.7426 1.34988C15.7514 2.62501 15.7459 3.90123 15.7459 5.17636C15.7459 6.20434 15.642 6.31042 14.6221 6.31042C10.1409 6.31151 5.65969 6.30933 1.1796 6.31261C0.273309 6.3137 0.00109252 6.58928 -6.78214e-07 7.48384C-5.57991e-07 10.2342 -4.3772e-07 12.9857 0.00109292 15.7372C0.00109296 16.6372 0.265657 16.8986 1.17632 16.8997C3.41746 16.903 5.6575 16.9008 7.89755 16.9008Z" fill="white"/>
<path id="Vector_2" d="M7.89764 16.9007C5.6576 16.9007 3.41646 16.9018 1.17642 16.8996C0.264656 16.8985 0.00118586 16.6361 0.00118582 15.7371C9.24639e-05 12.9857 9.23436e-05 10.2342 0.00118546 7.48272C0.00118542 6.58816 0.274495 6.31148 1.18079 6.31148C5.66197 6.3082 10.1431 6.31039 14.6232 6.30929C15.6421 6.30929 15.746 6.20321 15.7471 5.17524C15.7471 3.90011 15.7526 2.62389 15.7438 1.34876C15.7405 0.896013 15.84 0.511068 16.2959 0.31969C16.7616 0.12503 17.0929 0.363433 17.4066 0.677295C20.7924 4.06852 24.1814 7.45538 27.5661 10.8455C28.1389 11.4196 28.1444 11.8232 27.5825 12.3864C24.1847 15.7907 20.7825 19.1907 17.3848 22.594C17.0841 22.8947 16.7594 23.1101 16.3167 22.9374C15.8553 22.758 15.7416 22.3796 15.7449 21.9225C15.7526 20.5741 15.7493 19.2257 15.7471 17.8773C15.746 17.1019 15.5547 16.9018 14.7839 16.9007C12.4881 16.8985 10.1934 16.9007 7.89764 16.9007Z" fill="#2BC48A"/>
</g>
</g>
<defs>
<clipPath id="clip0_1470_2206">
<rect width="22.75" height="28" fill="white" transform="translate(0 23) rotate(-90)"/>
</clipPath>
</defs>
</svg>
