<svg width="19" height="23" viewBox="0 0 19 23" fill="none" xmlns="http://www.w3.org/2000/svg">
<path d="M15.8627 7.85949V6.53196C15.8627 2.92564 12.9371 0 9.33077 0C5.72445 0 2.79881 2.92564 2.79881 6.53196V7.85949C1.09923 8.59936 0 10.2778 0 12.1296V17.7314C0.00422781 20.3062 2.08853 22.3947 4.66749 22.3989H14.0025C16.5772 22.3947 18.6658 20.3104 18.67 17.7314V12.1338C18.6573 10.2778 17.5581 8.60359 15.8627 7.85949ZM10.2609 15.867C10.2609 16.3828 9.84233 16.8013 9.32654 16.8013C8.81075 16.8013 8.3922 16.3828 8.3922 15.867V13.9983C8.3922 13.4825 8.81075 13.0639 9.32654 13.0639C9.84233 13.0639 10.2609 13.4825 10.2609 13.9983V15.867ZM13.994 7.46631H4.65904V6.53196C4.65904 3.953 6.74758 1.86446 9.32654 1.86446C11.9055 1.86446 13.994 3.953 13.994 6.53196V7.46631Z" fill="#374557" fill-opacity="0.6"/>
</svg>
