<svg width="25" height="26" viewBox="0 0 25 26" fill="none" xmlns="http://www.w3.org/2000/svg">
<g id="male">
<path id="Vector" d="M-0.000381524 16.0442C0.0466396 10.2561 4.89396 5.79024 10.6679 6.23931C12.1753 6.35676 13.6039 6.79201 14.9067 7.57408C15.2054 7.75371 15.3949 7.80207 15.6701 7.51605C16.6119 6.53915 17.5772 5.58298 18.555 4.64201C18.8523 4.35599 18.808 4.18327 18.5245 3.93317C18.129 3.58359 17.7722 3.18979 17.3946 2.8181C17.1457 2.57353 17.0212 2.29718 17.1526 1.95036C17.2799 1.61736 17.5648 1.55103 17.8745 1.52478C19.8923 1.35206 21.9101 1.1752 23.9278 1.00801C24.806 0.936156 25.0619 1.21941 24.9844 2.07057C24.8088 3.99259 24.6525 5.91736 24.4865 7.84076C24.4533 8.22765 24.4769 8.65737 24.0149 8.82595C23.5696 8.98899 23.2986 8.69192 22.9985 8.42248C22.5448 8.01486 22.1936 7.21483 21.6459 7.27424C21.1771 7.32537 20.7746 8.02453 20.3501 8.44459C19.7443 9.04288 19.1607 9.66467 18.5356 10.2422C18.2189 10.5352 18.2189 10.759 18.4277 11.1266C21.8119 17.057 18.5508 24.3264 11.8655 25.7828C6.47608 26.9559 0.971848 23.1879 0.131001 17.759C0.0466395 17.1897 -0.00729639 16.6204 -0.000381524 16.0442ZM4.2813 16.1064C4.28268 19.2278 6.76097 21.7025 9.89617 21.7121C12.994 21.7232 15.5 19.2043 15.4986 16.0801C15.4972 13.0002 13.0051 10.4923 9.94043 10.4854C6.75821 10.4799 4.27992 12.9394 4.2813 16.1064Z" fill="#1A98C8"/>
</g>
</svg>
