<svg width="1183" height="844" viewBox="0 0 1183 844" fill="none" xmlns="http://www.w3.org/2000/svg">
<path d="M580.512 0.610596H100.751V141.868H580.512V0.610596Z" fill="#F4A640"/>
<path d="M580.512 159.149H100.751V300.406H580.512V159.149Z" fill="#F95A5A"/>
<path d="M580.512 317.681H100.751V458.939H580.512V317.681Z" fill="#5ECBE3"/>
<path d="M580.512 476.219H100.751V617.477H580.512V476.219Z" fill="#2FC68D"/>
<path d="M580.512 634.757H100.751V776.015H580.512V634.757Z" fill="#3F71EE"/>
<path d="M1183 400H799V475H1183V400Z" fill="#D58319"/>
<path d="M1183 485H799V560H1183V485Z" fill="#CD4343"/>
<path d="M1183 569H799V645H1183V569Z" fill="#2E9FB8"/>
<path d="M1183 654H799V729H1183V654Z" fill="#19B077"/>
<path d="M1183 738H799V814H1183V738Z" fill="#1D4DC8"/>
<path d="M580.508 0.610596L798.403 399.993C798.403 399.993 798.403 487.923 798.403 475.359C798.403 462.796 580.508 141.868 580.508 141.868V0.610596Z" fill="#F19A28"/>
<path d="M580.508 159.149L798.403 484.575V559.941L580.508 300.406V159.149Z" fill="#E15656"/>
<path d="M580.508 317.681L798.403 569.161V644.527L580.508 458.944V317.681Z" fill="#49BCD6"/>
<path d="M580.508 476.219L798.403 653.748V729.114L580.508 617.482V476.219Z" fill="#22B87F"/>
<path d="M580.508 634.757L798.403 738.334V813.7L580.508 776.02V634.757Z" fill="#315FD5"/>
<path d="M910.884 812.413L909.063 812.957L907.424 814.051V821.883C907.424 821.883 921.814 823.521 931.829 823.16C931.829 823.16 934.561 818.606 939.299 823.343C939.299 823.343 970.445 825.531 1000.32 824.62C1000.32 824.62 1000.13 822.091 999.821 819.939C999.608 818.438 993.39 817.847 993.089 817.7C992.362 817.333 937.838 810.779 937.838 810.779L910.884 812.413Z" fill="#5E3118"/>
<path d="M803.058 805.859C803.058 805.859 800.692 814.057 797.232 819.883C793.772 825.709 792.495 831.174 791.95 836.456C791.95 836.456 796.138 844.104 815.627 843.377C835.116 842.649 838.576 839.55 838.576 838.822C838.576 838.095 841.492 830.808 837.666 819.878C833.839 808.948 834.022 806.948 834.022 806.948C834.022 806.948 817.266 791.835 803.058 805.859Z" fill="#733D1C"/>
<path d="M918.37 600.771C920.919 600.405 899.064 575.634 899.064 575.634C899.064 575.634 920.558 567.253 919.097 566.525C917.642 565.798 899.425 562.882 898.331 562.154C897.237 561.427 905.251 525.726 905.251 525.726L896.143 525.222L896.148 525.364C896.148 525.364 896.148 559.605 894.693 562.154C893.237 564.704 863.363 554.506 862.274 557.056C861.185 559.605 890.688 568.347 890.688 568.347C890.688 568.347 860.452 568.714 857.903 570.896C855.353 573.085 887.411 574.901 888.866 575.268C889.772 575.497 888.989 584.188 888.266 590.721L893.584 578.183L894.688 585.556L896.881 580.371C896.876 580.371 915.82 601.132 918.37 600.771Z" fill="#884A20"/>
<path d="M924.563 683.826C925.657 683.826 912.905 679.821 912.905 679.821L900.285 623.033L909.119 682.126L903.654 703.982L903.867 706.429L912.172 684.187C912.177 684.187 923.468 683.826 924.563 683.826Z" fill="#884A20"/>
<path d="M840.052 701.794C837.137 704.221 826.695 715.634 827.423 716.123C828.15 716.606 840.292 713.935 840.292 713.935L843.691 726.804L843.594 743.677L846.586 719.156L845.858 700.578L854.3 681.139C848.861 689.602 841.788 700.349 840.052 701.794Z" fill="#884A20"/>
<path d="M950.045 519.171L937.294 504.237L835.116 504.781C835.116 504.781 821.453 550.135 821.453 551.957C821.453 553.778 825.458 578.672 825.458 578.672L817.688 668.525L808.34 708.23L802.514 794.201L837.482 793.835L843.599 743.677L843.695 726.803L840.296 713.935C840.296 713.935 828.155 716.606 827.427 716.123C826.7 715.639 837.141 704.221 840.057 701.793C841.792 700.348 848.865 689.601 854.305 681.144L857.887 672.896V662.332L888.266 590.726C888.988 584.193 889.777 575.496 888.866 575.272C887.411 574.906 855.353 573.084 857.903 570.901C860.452 568.713 890.688 568.352 890.688 568.352C890.688 568.352 861.18 559.61 862.274 557.061C863.368 554.511 893.237 564.709 894.692 562.159C896.148 559.61 896.148 525.369 896.148 525.369L895.949 525.649L896.148 525.369L896.143 525.227L892.138 525.003L896.143 525.227L896.138 524.998L896.143 525.227L905.251 525.731C905.251 525.731 897.237 561.432 898.331 562.159C899.425 562.887 917.637 565.803 919.097 566.53C920.552 567.258 899.064 575.639 899.064 575.639C899.064 575.639 920.919 600.41 918.369 600.776C915.82 601.142 896.875 580.376 896.875 580.376L894.682 585.561L900.285 623.038L912.904 679.826C912.904 679.826 925.656 683.831 924.562 683.831C923.468 683.831 912.177 684.197 912.177 684.197L903.872 706.439L910.94 786.68L944.209 777.816L946.397 683.47L950.768 663.797V551.234L950.045 519.171Z" fill="#AD5E27"/>
<path d="M899.608 528.825L905.256 525.731L907.261 515.167L896.876 515.711L896.148 525.364L899.608 528.825Z" fill="#884A20"/>
<path d="M893.339 516.378H911.306L910.218 503.509L895.161 503.265L893.339 516.378Z" fill="#D58E4C"/>
<path d="M932.378 482.565C932.378 482.565 960.975 492.584 961.703 492.945C962.431 493.312 950.549 520.266 950.549 520.266C950.549 520.266 927.783 495.434 927.234 494.162C926.689 492.884 932.378 482.565 932.378 482.565Z" fill="#353535"/>
<path d="M833.824 479.828C833.747 479.711 833.676 479.599 833.6 479.481C833.61 479.67 833.615 479.853 833.625 480.037C833.696 479.966 833.758 479.899 833.824 479.828Z" fill="#6E91A0"/>
<path d="M830.577 370.307C831.061 369.091 819.892 365.208 819.892 365.208L819.647 361.321C821.347 345.78 817.948 337.522 818.92 341.648C819.892 345.775 818.172 365.814 818.172 365.814C818.172 365.814 818.899 370.582 820.019 377.787L820.614 369.335C820.624 369.335 830.094 371.518 830.577 370.307Z" fill="#618693"/>
<path d="M798.433 443.404C798.25 444.04 796.794 447.322 796.794 447.322C796.794 447.322 803.532 441.495 805.175 441.129C806.152 440.91 807.989 440.92 809.327 440.966C808.931 440.274 808.707 439.852 808.707 439.765C808.707 439.73 808.717 439.602 808.742 439.404L808.727 439.399C808.727 439.399 803.17 436.575 801.623 436.575C800.076 436.575 792.881 440.579 792.79 441.037C792.698 441.49 801.898 438.305 801.898 438.305L805.175 439.399C805.17 439.394 798.616 442.767 798.433 443.404Z" fill="#618693"/>
<path d="M834.77 368.908C833.859 365.992 825.3 363.442 823.479 355.428C821.657 347.414 815.098 321.549 813.643 321.371C812.187 321.187 812.915 325.197 816.009 337.399C819.103 349.602 818.014 365.086 818.014 365.086L817.881 368.073C818.07 366.623 818.177 365.814 818.177 365.814C818.177 365.814 819.896 345.78 818.925 341.648C817.953 337.522 821.352 345.775 819.652 361.321L819.896 365.208C819.896 365.208 831.066 369.096 830.582 370.307C830.099 371.523 820.624 369.335 820.624 369.335L820.029 377.787C822.293 392.361 826.15 416.908 828.801 432.229C828.557 419.722 828.181 404.339 827.667 392.406C826.695 369.818 835.681 371.823 834.77 368.908Z" fill="#618693"/>
<path d="M948.585 313.723C942.392 307.896 908.513 287.496 908.513 287.496L848.774 282.881C848.774 282.881 796.316 309.596 791.462 314.939C786.602 320.282 773.978 444.62 776.405 448.991C778.115 452.064 795.019 481.028 805.532 498.07C809.892 495.8 827.153 486.605 833.625 480.041C833.615 479.853 833.61 479.669 833.6 479.486C825.697 467.142 814.991 450.354 810.656 443.205C808.239 443.521 805.018 444.04 803.623 444.681C801.257 445.775 796.52 453.606 793.787 452.512C791.055 451.418 795.426 441.582 795.426 441.582C795.426 441.582 787.956 443.77 787.045 442.31C786.134 440.854 791.961 436.661 795.059 435.206C798.153 433.751 803.985 434.295 805.806 433.384C806.748 432.916 809.282 425.044 811.516 417.299C813.846 399.128 816.925 375.401 817.876 368.068L818.009 365.081C818.009 365.081 819.103 349.597 816.004 337.394C812.91 325.192 812.177 321.182 813.638 321.366C815.093 321.549 821.652 347.414 823.474 355.423C825.295 363.437 833.854 365.987 834.765 368.903C835.676 371.818 826.69 369.813 827.662 392.396C828.176 404.329 828.552 419.711 828.796 432.219C829.906 438.646 830.806 443.46 831.29 445.215C832.465 449.535 833.01 465.376 833.605 479.471C833.681 479.588 833.753 479.7 833.829 479.817C834.246 479.379 834.623 478.952 834.938 478.545C834.628 478.952 834.251 479.379 833.829 479.817C837.024 484.809 839.742 489.037 841.36 491.551C862.493 491.622 908.976 491.404 934.388 488.442L933.655 488.198C933.655 488.198 934.373 482.509 935.289 475.013C934.378 474.713 933.839 474.54 933.839 474.54C933.839 474.54 934.378 474.718 935.289 475.013C935.833 470.556 936.449 465.457 937.024 460.537C935.747 450.212 934.653 441.022 934.388 437.567C933.661 428.097 936.21 394.218 936.21 394.218C936.21 394.218 939.141 353.418 939.507 349.414C939.874 345.409 938.78 320.816 940.235 320.816C940.235 320.816 941.812 319.3 942.54 331.441C943.268 343.582 943.023 356.212 943.023 356.212C943.023 356.212 944.967 348.442 947.639 348.442C950.31 348.442 942.779 376.612 942.779 382.927C942.779 388.01 939.319 411.178 937.843 420.912C938.179 426.25 938.505 431.273 938.749 434.748C940.332 434.59 944.056 434.305 947.791 434.651C952.707 435.104 958.447 438.656 958.355 439.567C958.264 440.478 950.799 440.203 950.341 440.203C949.888 440.203 956.9 443.21 956.259 444.029C955.719 444.721 943.283 442.63 939.003 442.009C938.703 445.765 937.909 452.929 937.019 460.537C937.655 465.676 938.337 471.095 938.988 476.225C945.054 478.219 954.915 481.481 959.749 483.186C962.233 467.345 966.08 442.452 966.08 440.478C966.069 437.572 954.778 319.549 948.585 313.723Z" fill="#6E91A0"/>
<path d="M947.633 348.447C944.962 348.447 943.018 356.217 943.018 356.217C943.018 356.217 943.262 343.587 942.534 331.446C941.807 319.305 940.229 320.821 940.229 320.821C938.774 320.821 939.863 345.409 939.502 349.419C939.135 353.423 936.204 394.223 936.204 394.223C936.204 394.223 936.545 399.917 936.993 407.255C937.253 411.514 937.553 416.328 937.843 420.917C939.319 411.183 942.779 388.015 942.779 382.932C942.774 376.617 950.305 348.447 947.633 348.447Z" fill="#618693"/>
<path d="M946.509 437.303C948.605 437.303 954.157 439.216 954.157 439.216C954.157 439.216 948.417 439.124 945.959 438.941C943.501 438.758 940.402 439.124 940.402 439.124L947.323 440.946L939.11 440.264C939.09 440.707 939.049 441.312 938.993 442.025C943.272 442.645 955.709 444.737 956.248 444.045C956.884 443.226 949.872 440.218 950.33 440.218C950.783 440.218 958.253 440.493 958.345 439.582C958.436 438.671 952.696 435.12 947.781 434.667C944.051 434.321 940.321 434.606 938.739 434.763C938.84 436.224 938.927 437.409 938.998 438.234C941.583 437.822 945.211 437.303 946.509 437.303Z" fill="#618693"/>
<path d="M805.17 441.124C803.532 441.49 796.789 447.317 796.789 447.317C796.789 447.317 798.245 444.04 798.428 443.398C798.611 442.762 805.165 439.394 805.165 439.394L801.888 438.3C801.888 438.3 792.688 441.485 792.78 441.032C792.871 440.574 800.066 436.57 801.613 436.57C803.16 436.57 808.717 439.394 808.717 439.394L808.732 439.399C808.936 437.501 810.086 428.443 811.516 417.299C809.277 425.044 806.743 432.916 805.806 433.384C803.985 434.295 798.158 433.751 795.059 435.206C791.966 436.661 786.134 440.854 787.045 442.31C787.956 443.765 795.426 441.582 795.426 441.582C795.426 441.582 791.055 451.418 793.787 452.512C796.52 453.606 801.257 445.775 803.623 444.681C805.018 444.035 808.239 443.521 810.656 443.205C810.101 442.294 809.648 441.531 809.322 440.966C807.989 440.92 806.147 440.91 805.17 441.124Z" fill="#618693"/>
<path d="M945.964 438.941C948.422 439.124 954.162 439.216 954.162 439.216C954.162 439.216 948.605 437.302 946.514 437.302C945.216 437.302 941.588 437.826 939.008 438.223C939.054 438.798 939.095 439.211 939.12 439.394C939.14 439.541 939.14 439.836 939.125 440.259L947.338 440.941L940.418 439.119C940.407 439.124 943.506 438.758 945.964 438.941Z" fill="#618693"/>
<path d="M938.983 476.235C939.497 480.305 939.426 480.341 939.858 483.776C939.991 484.809 940.118 485.801 940.235 486.742L958.981 492.157C958.981 492.157 958.559 490.727 959.739 483.201C954.91 481.491 945.049 478.229 938.983 476.235Z" fill="#517588"/>
<path d="M841.355 491.561C839.737 489.048 837.024 484.819 833.824 479.827C833.758 479.899 833.696 479.965 833.625 480.036C827.153 486.6 809.892 495.795 805.531 498.065C809.959 505.244 813.261 510.323 813.805 510.43C814.971 510.664 826.542 503.906 834.75 498.996C839.385 496.223 842.947 494.034 842.947 494.034C842.947 494.034 842.362 493.129 841.355 491.561Z" fill="#517588"/>
<path d="M937.014 460.547C936.439 465.467 935.823 470.566 935.278 475.024C936.184 475.319 937.456 475.736 938.983 476.24C938.337 471.105 937.655 465.686 937.014 460.547Z" fill="#6E91A0"/>
<path d="M938.982 476.235C937.456 475.731 936.184 475.319 935.278 475.019C934.362 482.514 933.645 488.203 933.645 488.203L934.377 488.447C936.56 488.193 938.585 487.918 940.428 487.623C939.995 484.193 939.501 480.306 938.982 476.235Z" fill="#6E91A0"/>
<path d="M875.183 311.168L865.897 329.202L895.949 361.987L914.528 327.563L896.86 309.168L875.183 311.168Z" fill="#191919"/>
<path d="M852.173 264.537L853.389 274.622L883.259 307.163H889.329C889.329 307.163 906.814 280.937 906.814 280.21C906.814 280.057 906.773 279.044 906.702 277.543C902.025 280.708 895.665 283.548 887.645 283.853C871.296 284.479 856.04 268.826 852.173 264.537Z" fill="#FBB981"/>
<path d="M851.689 260.537L852.173 264.537C856.04 268.832 871.296 284.479 887.65 283.853C895.675 283.543 902.03 280.708 906.707 277.543C906.452 271.849 905.847 259.082 905.847 259.082L851.689 260.537Z" fill="#EFA870"/>
<path d="M816.716 187.863C816.716 187.863 806.336 193.145 805.425 201.887C804.514 210.629 819.087 225.747 827.829 224.653C836.572 223.564 816.716 187.863 816.716 187.863Z" fill="#FBB981"/>
<path d="M812.284 201.277C812.284 201.277 825.214 208.365 824.237 210.589C823.265 212.817 809.088 202.528 812.284 201.277Z" fill="#D29363"/>
<path d="M944.881 187.013C944.881 187.013 955.262 192.295 956.173 201.037C957.083 209.779 942.51 224.897 933.768 223.803C925.026 222.714 944.881 187.013 944.881 187.013Z" fill="#FBB981"/>
<path d="M949.313 200.427C949.313 200.427 936.383 207.515 937.36 209.739C938.331 211.962 952.513 201.678 949.313 200.427Z" fill="#D29363"/>
<path d="M835.314 220.465C833.625 198.763 834.765 157.882 835.37 140.484C831.732 144.473 828.582 149.643 826.186 156.355C826.186 156.355 821.448 204.442 826.186 224.109C829.961 239.786 846.234 262.853 864.853 272.317C857.114 265.804 837.274 245.633 835.314 220.465Z" fill="#FEDBC2"/>
<path d="M927.595 141.827C917.418 135.07 902.371 129.274 891.395 129.03C877.992 128.729 851.689 122.603 835.37 140.484C834.765 157.882 833.625 198.763 835.314 220.465C837.273 245.633 857.114 265.804 864.858 272.317C869.601 274.729 874.496 276.271 879.376 276.566C887.11 277.034 894.82 273.584 901.918 268.201C907.327 259.041 923.234 234.219 926.022 219.376C928.76 204.767 927.941 157.128 927.595 141.827Z" fill="#FBB981"/>
<path d="M938.021 151.984C936.454 148.732 932.617 145.165 927.595 141.832C927.941 157.128 928.76 204.772 926.023 219.376C923.239 234.225 907.327 259.041 901.918 268.201C916.878 256.858 929.111 236.911 933.065 226.78C938.891 211.845 942.759 161.815 938.021 151.984Z" fill="#EFAB78"/>
<path d="M828.15 150.04C820.38 157.81 817.952 175.783 817.952 175.783C816.009 170.44 816.497 155.139 816.253 155.871C816.008 156.599 812.365 169.473 812.365 169.473C810.64 164.705 809.683 159.952 809.149 156.019C809.475 164.72 811.276 173.061 812.345 178.943C815.26 194.972 824.003 204.808 824.003 204.808C824.17 180.709 825.819 167.539 827.544 160.329C827.264 154.503 828.15 150.04 828.15 150.04Z" fill="#543C30"/>
<path d="M948.27 146.03C944.479 141.079 939.863 136.683 939.863 136.683C944.479 147.124 944.962 161.698 944.962 161.698C943.507 154.172 931.121 142.753 931.121 142.753C937.68 151.012 939.619 169.468 939.619 169.468C937.675 165.932 935.055 162.532 932.511 159.632C941.502 179.594 937.192 201.526 937.192 201.526C937.192 201.526 951.277 183.797 948.361 146.885C948.341 146.595 948.295 146.315 948.27 146.03Z" fill="#543C30"/>
<path d="M931.122 142.753C931.122 142.753 943.507 154.167 944.962 161.698C944.962 161.698 944.479 147.124 939.864 136.683C939.864 136.683 944.479 141.079 948.27 146.03C945.522 117.82 917.566 95.5014 875.733 93.3337C833.478 91.1456 832.018 118.471 832.018 118.471C812.422 124.928 808.59 141.013 809.15 156.014C809.684 159.948 810.641 164.7 812.366 169.468C812.366 169.468 816.009 156.599 816.253 155.867C816.498 155.139 816.009 170.44 817.953 175.778C817.953 175.778 820.38 157.805 828.15 150.035C828.15 150.035 827.265 154.498 827.545 160.319C829.55 151.943 831.651 151.618 831.651 151.618C844.037 138.866 844.037 131.584 844.037 131.584L858.244 128.307C904.142 124.089 924.12 141.003 932.511 159.632C935.055 162.533 937.676 165.937 939.619 169.468C939.619 169.468 937.676 151.012 931.122 142.753Z" fill="#6F513F"/>
<path d="M842.357 134.861C842.357 134.861 848.53 104.142 894.428 112.395C940.326 120.654 940.571 178.694 940.571 178.694C940.571 178.694 934.643 133.889 890.301 129.88C849.99 126.241 842.357 134.861 842.357 134.861Z" fill="#543C30"/>
<path d="M905.862 234.189C905.862 234.189 897.969 237.832 885.462 238.682C872.954 239.532 859.236 234.795 859.236 234.795C859.872 238.173 861.612 241.308 863.123 243.532C868.059 247.445 874.918 250.752 884.108 250.941C893.039 251.129 899.043 247.999 903.063 244.081C906.284 238.117 905.862 234.189 905.862 234.189Z" fill="#F4F9F8"/>
<path d="M910.823 229.574C910.823 229.574 897.71 235.522 881.437 235.283C865.164 235.044 852.539 230.184 852.539 230.184C852.539 230.184 855.603 237.573 863.123 243.537C861.612 241.313 859.872 238.178 859.236 234.8C859.236 234.8 872.954 239.537 885.462 238.687C897.97 237.838 905.862 234.194 905.862 234.194C905.862 234.194 906.284 238.122 903.063 244.091C909.485 237.832 910.823 229.574 910.823 229.574Z" fill="#E3E5E5"/>
<path d="M850.473 228.358C850.473 228.358 865.897 235.644 887.752 234.306C909.607 232.973 913.495 225.925 914.589 226.78C915.683 227.63 909.246 235.889 886.78 236.128C864.314 236.372 855.816 232.24 855.816 232.24C855.816 232.24 862.859 250.452 884.836 250.091C906.814 249.724 910.335 230.418 910.335 230.418L912.64 228.963C912.64 228.963 911.79 250.818 885.197 251.79C858.61 252.767 850.473 228.358 850.473 228.358Z" fill="#D29363"/>
<path d="M870.842 212.09C870.842 212.09 877.529 215.733 882.546 215.367C887.563 215 892.224 211.24 893.807 212.09C895.389 212.939 890.286 220.226 882.281 220.832C874.277 221.437 867.062 211.479 870.842 212.09Z" fill="#D29363"/>
<path d="M837.742 164.853C837.498 165.219 827.178 165.947 836.286 185.858L868.95 192.173C868.95 192.173 876.359 164.609 861.057 162.665C845.756 160.726 837.742 164.853 837.742 164.853Z" fill="#EFAB78"/>
<path d="M924.186 164.853C924.43 165.219 934.749 165.947 925.641 185.858L892.978 192.173C892.978 192.173 885.569 164.609 900.87 162.665C916.171 160.721 924.186 164.853 924.186 164.853Z" fill="#EFAB78"/>
<path d="M832.867 168.252C832.867 168.252 843.064 165.336 862.492 168.496L868.807 169.224C868.807 169.224 869.779 162.665 858.727 161.454C847.679 160.237 837.848 161.332 832.867 168.252Z" fill="#3F2211"/>
<path d="M852.072 193.628C861.399 195.333 865.612 192.071 867.49 189.267C867.184 188.647 866.757 187.995 866.167 187.313C862.844 183.487 857.745 179.024 850.957 179.024C846.306 179.024 841.65 181.446 839.187 182.963C839.421 186.153 841.421 191.685 852.072 193.628Z" fill="#F0F4FB"/>
<path d="M852.072 193.628C841.416 191.685 839.421 186.153 839.187 182.968C838.058 183.665 837.386 184.174 837.386 184.174C837.386 184.174 836.2 186.133 837.065 187.771C837.931 189.41 844.535 194.417 852.591 196.239C860.651 198.06 866.859 195.994 867.307 195.068C867.673 194.305 868.904 192.137 867.485 189.262C865.612 192.076 861.399 195.333 852.072 193.628Z" fill="#E4E6EA"/>
<path d="M836.404 185.344C836.404 185.344 841.294 176.964 853.735 178.414C866.177 179.864 870.029 192.285 869.377 193.639C868.726 194.992 865.8 183.044 854.188 180.276C842.576 177.508 833.793 188.993 836.404 185.344Z" fill="#3F2211"/>
<path d="M861.068 189.318C861.068 191.832 859.027 193.873 856.513 193.873C854 193.873 851.959 191.832 851.959 189.318C851.959 186.805 854 184.764 856.513 184.764C859.032 184.764 861.068 186.805 861.068 189.318Z" fill="#3F2211"/>
<path d="M856.743 185.95C856.743 187.028 855.868 187.909 854.784 187.909C853.705 187.909 852.825 187.033 852.825 185.95C852.825 184.866 853.7 183.991 854.784 183.991C855.868 183.991 856.743 184.871 856.743 185.95Z" fill="#F0F4FB"/>
<path d="M928.949 168.252C928.949 168.252 918.752 165.336 899.324 168.496L893.009 169.224C893.009 169.224 892.037 162.665 903.089 161.454C914.131 160.237 923.967 161.332 928.949 168.252Z" fill="#3F2211"/>
<path d="M910.722 193.023C920.965 189.695 922.563 185.288 922.614 182.963C920.146 181.441 915.5 179.029 910.855 179.029C904.072 179.029 898.968 183.492 895.645 187.319C894.973 188.092 894.515 188.83 894.205 189.527C895.711 192.092 899.985 196.514 910.722 193.023Z" fill="#F0F4FB"/>
<path d="M924.425 184.174C924.425 184.174 923.748 183.66 922.613 182.963C922.568 185.288 920.965 189.695 910.722 193.023C899.985 196.514 895.71 192.092 894.204 189.522C892.978 192.27 894.143 194.331 894.499 195.068C894.947 195.995 901.155 198.06 909.215 196.239C917.276 194.417 923.875 189.41 924.74 187.771C925.605 186.133 924.425 184.174 924.425 184.174Z" fill="#E4E6EA"/>
<path d="M925.407 185.344C925.407 185.344 920.517 176.964 908.076 178.414C895.635 179.864 891.783 192.285 892.434 193.639C893.085 194.992 896.011 183.044 907.623 180.276C919.235 177.508 928.023 188.993 925.407 185.344Z" fill="#3F2211"/>
<path d="M909.852 189.318C909.852 191.832 907.811 193.873 905.297 193.873C902.784 193.873 900.743 191.832 900.743 189.318C900.743 186.805 902.784 184.764 905.297 184.764C907.811 184.764 909.852 186.805 909.852 189.318Z" fill="#3F2211"/>
<path d="M903.567 187.909C904.649 187.909 905.526 187.032 905.526 185.95C905.526 184.868 904.649 183.991 903.567 183.991C902.485 183.991 901.608 184.868 901.608 185.95C901.608 187.032 902.485 187.909 903.567 187.909Z" fill="#F0F4FB"/>
<path d="M897.588 329.385L881.422 329.024L881.198 329.019L880.593 332.662L879.015 344.681L882.165 347.576C882.491 344.574 883.366 336.906 883.951 336.392C884.531 335.883 895.278 335.033 899.675 334.708L897.588 329.385Z" fill="#C12929"/>
<path d="M902.143 341.043L899.67 334.713C895.273 335.044 884.526 335.893 883.946 336.397C883.361 336.911 882.486 344.574 882.16 347.582L892.49 357.072L902.143 341.043Z" fill="#D83231"/>
<path d="M885.04 311.443C884.124 312.033 880.989 317.162 878.577 321.32C879.916 324.953 882.002 330.601 882.755 332.626C887.309 332.55 897.512 332.362 898.077 332.173C898.504 332.031 899.924 328.734 901.033 326.016C898.082 322.882 886.388 310.568 885.04 311.443Z" fill="#D83231"/>
<path d="M889.329 307.164H883.259L872.329 315.422L876.715 324.582L880.587 332.662C880.587 332.662 881.437 332.652 882.755 332.627C882.007 330.596 879.916 324.953 878.577 321.32C880.989 317.163 884.124 312.033 885.04 311.443C886.393 310.568 898.082 322.882 901.033 326.022C901.817 324.098 902.448 322.465 902.448 322.465L889.329 307.164Z" fill="#C12929"/>
<path d="M861.159 333.939C861.159 333.939 891.029 372.007 892.489 372.007C893.95 372.007 914.711 336.672 914.711 336.672L907.974 329.935C907.974 329.935 892.673 355.25 891.762 354.706C890.851 354.161 868.085 326.474 868.085 326.474L861.159 333.939Z" fill="#517588"/>
<path d="M840.78 288.952C840.297 290.407 861.907 341.409 864.096 341.409C866.284 341.409 883.264 307.169 883.264 307.169L853.15 270.496C853.145 270.491 841.263 287.491 840.78 288.952Z" fill="#353535"/>
<path d="M907.302 278.266L889.329 307.164C889.329 307.164 914.604 341.282 916.059 340.31C917.514 339.338 911.668 289.674 911.184 287.731C910.701 285.787 907.302 278.266 907.302 278.266Z" fill="#353535"/>
<path d="M940.805 490.595C940.688 489.653 940.56 488.661 940.428 487.628C938.586 487.923 936.561 488.198 934.378 488.452C908.966 491.414 862.482 491.633 841.35 491.561C842.357 493.129 842.942 494.034 842.942 494.034C842.942 494.034 839.375 496.222 834.745 498.996C835.004 501.453 835.304 503.092 835.661 503.509C837.849 506.059 885.202 506.786 901.231 505.697C917.26 504.603 942.031 501.693 942.031 500.599C942.031 500.303 941.537 496.365 940.805 490.595Z" fill="#517588"/>
<path d="M802.331 507.88C802.331 507.88 823.825 529.008 826.191 528.28C828.557 527.552 851.69 501.871 851.873 500.777C852.056 499.683 843.858 488.208 843.858 488.208C843.858 488.208 803.42 507.88 802.331 507.88Z" fill="#353535"/>
<path d="M897.832 504.842C874.639 505.086 848.413 505.086 848.413 505.086C848.413 505.086 889.94 520.993 894.677 521.599C899.415 522.204 900.02 505.326 900.02 505.326L900.056 504.807C899.313 504.822 898.57 504.837 897.832 504.842Z" fill="#353535"/>
<path d="M942.031 500.593C942.031 500.593 925.534 503.738 905.643 504.623C905.643 504.623 907.907 519.049 909.245 520.749C910.578 522.448 943.125 505.326 943.125 505.326L942.031 500.593Z" fill="#353535"/>
<path d="M799.843 788.614C799.843 788.614 800.087 809.014 800.448 810.958C800.814 812.902 816.233 804.037 819.148 803.188C822.064 802.338 835.905 815.451 837.243 814.479C838.576 813.507 841.492 790.314 841.492 789.342C841.492 788.37 826.557 779.261 824.491 778.534C822.425 777.806 801.298 787.281 799.843 788.614Z" fill="#CE8049"/>
<path d="M911.612 775.073C911.612 775.073 908.152 779.811 907.786 781.633C907.419 783.454 902.87 802.943 906.147 805.309C909.424 807.676 947.675 782.543 948.041 781.449C948.407 780.355 946.764 756.678 946.219 756.495C945.675 756.317 911.612 775.073 911.612 775.073Z" fill="#CE8049"/>
<path d="M909.245 802.943C909.245 802.943 907.607 813.507 908.151 816.239C908.696 818.972 931.645 819.333 936.927 819.333C942.209 819.333 972.078 820.972 999.221 820.972C999.221 820.972 998.127 811.863 995.944 809.863C993.756 807.859 953.322 797.661 944.763 781.088L909.245 802.943Z" fill="#733D1C"/>
<path d="M851.221 408.919C851.221 408.919 884.49 402.604 892.993 402.36C901.491 402.115 921.651 409.158 922.863 410.13C924.079 411.102 900.519 429.558 893.965 430.285C887.406 431.018 844.906 411.59 851.221 408.919Z" fill="#618693"/>
<path d="M834.099 117.738C834.099 117.738 835.676 104.259 850.372 98.3102C865.062 92.3617 884.373 96.1221 884.373 96.1221C884.373 96.1221 864.095 96 854.748 101.465C854.748 101.465 868.105 96.9719 888.989 100.615C888.989 100.615 862.762 101.099 854.381 106.325C854.381 106.325 871.866 102.559 892.021 107.419C892.021 107.419 860.935 102.925 845.395 122.231C845.395 122.231 841.874 127.452 841.39 134.011C841.39 134.011 839.813 123.081 847.583 114.461C847.583 114.461 841.635 118.349 839.085 125.875C839.085 125.875 839.935 114.583 847.1 109.118C847.1 109.118 839.691 113.611 837.019 121.02C837.019 121.02 838.597 112.522 843.212 108.029C843.207 108.024 837.62 111.184 834.099 117.738Z" fill="#8C6958"/>
<path d="M831.396 120.471C831.396 120.471 819.377 125.025 814.64 139.685C814.64 139.685 819.011 133.401 823.84 130.393C823.84 130.393 819.835 138.316 819.377 145.695C819.377 145.695 823.382 136.769 827.575 133.492C827.575 133.492 825.845 143.69 824.023 147.974C824.023 147.974 829.488 140.143 831.58 135.136C831.58 135.136 831.946 143.15 829.758 149.796C829.758 149.796 837.681 140.871 836.953 132.765L835.406 136.952C835.406 136.952 835.04 131.126 834.129 126.755L830.76 132.856C830.76 132.856 832.307 126.938 833.31 124.567C833.31 124.567 827.661 129.121 826.664 130.76C826.664 130.765 827.758 125.569 831.396 120.471Z" fill="#8C6958"/>
<path d="M877.692 186.672C877.692 186.672 874.776 211.285 877.936 212.334C881.091 213.382 881.335 181.334 877.692 186.672Z" fill="#FEDBC2"/>
<path d="M872.593 253.251C872.593 253.251 882.429 259.504 892.143 253.495C892.143 253.495 881.579 255.556 872.593 253.251Z" fill="#FEDBC2"/>
<path d="M100.751 142.479C140.096 142.479 171.991 110.584 171.991 71.2393C171.991 31.8949 140.096 0 100.751 0C61.4069 0 29.512 31.8949 29.512 71.2393C29.512 110.584 61.4069 142.479 100.751 142.479Z" fill="#F4A640"/>
<path d="M100.976 127.952C132.443 127.952 157.952 102.443 157.952 70.9762C157.952 39.5091 132.443 14 100.976 14C69.5091 14 44 39.5091 44 70.9762C44 102.443 69.5091 127.952 100.976 127.952Z" fill="white"/>
<path d="M151.122 280.146C178.942 252.326 178.942 207.22 151.122 179.4C123.301 151.579 78.1954 151.579 50.375 179.4C22.5546 207.22 22.5546 252.326 50.375 280.146C78.1954 307.967 123.301 307.967 151.122 280.146Z" fill="#F95A5A"/>
<path d="M141.037 270.061C163.287 247.81 163.287 211.735 141.037 189.485C118.786 167.235 82.7113 167.235 60.4609 189.485C38.2106 211.735 38.2106 247.81 60.4609 270.061C82.7113 292.311 118.786 292.311 141.037 270.061Z" fill="white"/>
<path d="M100.751 459.555C140.096 459.555 171.991 427.66 171.991 388.315C171.991 348.971 140.096 317.076 100.751 317.076C61.4069 317.076 29.512 348.971 29.512 388.315C29.512 427.66 61.4069 459.555 100.751 459.555Z" fill="#5ECBE3"/>
<path d="M100.752 445.291C132.219 445.291 157.728 419.782 157.728 388.315C157.728 356.848 132.219 331.339 100.752 331.339C69.2845 331.339 43.7754 356.848 43.7754 388.315C43.7754 419.782 69.2845 445.291 100.752 445.291Z" fill="white"/>
<path d="M151.12 597.22C178.94 569.4 178.94 524.294 151.12 496.473C123.3 468.653 78.1937 468.653 50.3733 496.473C22.5529 524.294 22.5529 569.4 50.3733 597.22C78.1937 625.04 123.3 625.04 151.12 597.22Z" fill="#2FC68D"/>
<path d="M141.034 587.135C163.285 564.884 163.285 528.809 141.034 506.559C118.784 484.308 82.7091 484.308 60.4588 506.559C38.2084 528.809 38.2084 564.884 60.4588 587.135C82.7091 609.385 118.784 609.385 141.034 587.135Z" fill="white"/>
<path d="M100.751 776.63C140.096 776.63 171.991 744.736 171.991 705.391C171.991 666.047 140.096 634.152 100.751 634.152C61.4069 634.152 29.512 666.047 29.512 705.391C29.512 744.736 61.4069 776.63 100.751 776.63Z" fill="#3F71EE"/>
<path d="M157.107 713.694C161.673 682.56 140.136 653.62 109.002 649.055C77.8686 644.489 48.9286 666.026 44.3627 697.16C39.7968 728.293 61.3341 757.233 92.4677 761.799C123.601 766.365 152.541 744.828 157.107 713.694Z" fill="white"/>
<path d="M81.3753 66.672C80.2833 66.672 79.1913 66.518 78.0993 66.21C77.0353 65.902 76.0413 65.426 75.1173 64.782C74.1933 64.138 73.3813 63.34 72.6813 62.388C72.0093 61.408 71.5053 60.246 71.1693 58.902L76.1673 56.97C76.4753 58.37 77.0633 59.49 77.9313 60.33C78.8273 61.17 79.9613 61.59 81.3333 61.59C82.0053 61.59 82.6213 61.478 83.1813 61.254C83.7693 61.002 84.2733 60.666 84.6933 60.246C85.1413 59.826 85.4773 59.336 85.7013 58.776C85.9533 58.188 86.0793 57.544 86.0793 56.844C86.0793 56.172 85.9533 55.556 85.7013 54.996C85.4773 54.408 85.1553 53.904 84.7353 53.484C84.3153 53.036 83.8113 52.7 83.2233 52.476C82.6633 52.224 82.0333 52.098 81.3333 52.098C80.4653 52.098 79.6953 52.294 79.0233 52.686C78.3513 53.05 77.7773 53.512 77.3013 54.072L71.9673 51.636L73.6473 37.272H89.8173V42.102H78.2253L77.1333 48.822L77.4693 48.906C78.0293 48.43 78.7153 48.024 79.5273 47.688C80.3393 47.352 81.3193 47.184 82.4673 47.184C83.6713 47.184 84.8193 47.422 85.9113 47.898C87.0033 48.346 87.9693 48.99 88.8093 49.83C89.6493 50.67 90.3213 51.692 90.8253 52.896C91.3293 54.072 91.5813 55.388 91.5813 56.844C91.5813 58.272 91.3293 59.588 90.8253 60.792C90.3213 61.996 89.6073 63.032 88.6833 63.9C87.7873 64.768 86.7093 65.454 85.4493 65.958C84.2173 66.434 82.8593 66.672 81.3753 66.672ZM94.5403 43.782C94.5403 42.802 94.7223 41.878 95.0863 41.01C95.4783 40.142 95.9963 39.386 96.6403 38.742C97.3123 38.07 98.0963 37.552 98.9923 37.188C99.8883 36.796 100.868 36.6 101.932 36.6C102.996 36.6 103.976 36.796 104.872 37.188C105.796 37.552 106.58 38.07 107.224 38.742C107.896 39.386 108.414 40.142 108.778 41.01C109.17 41.878 109.366 42.802 109.366 43.782C109.366 44.762 109.17 45.7 108.778 46.596C108.414 47.464 107.896 48.22 107.224 48.864C106.58 49.508 105.796 50.026 104.872 50.418C103.976 50.782 102.996 50.964 101.932 50.964C100.868 50.964 99.8883 50.782 98.9923 50.418C98.0963 50.026 97.3123 49.508 96.6403 48.864C95.9963 48.22 95.4783 47.464 95.0863 46.596C94.7223 45.7 94.5403 44.762 94.5403 43.782ZM99.0343 43.782C99.0343 44.706 99.3143 45.448 99.8743 46.008C100.434 46.568 101.12 46.848 101.932 46.848C102.744 46.848 103.43 46.568 103.99 46.008C104.55 45.448 104.83 44.706 104.83 43.782C104.83 42.858 104.55 42.116 103.99 41.556C103.43 40.996 102.744 40.716 101.932 40.716C101.12 40.716 100.434 40.996 99.8743 41.556C99.3143 42.116 99.0343 42.858 99.0343 43.782ZM99.8743 64.446L118.522 36.6L121.84 38.826L103.192 66.672L99.8743 64.446ZM112.348 59.49C112.348 58.51 112.53 57.586 112.894 56.718C113.286 55.85 113.804 55.094 114.448 54.45C115.12 53.778 115.904 53.26 116.8 52.896C117.696 52.504 118.676 52.308 119.74 52.308C120.804 52.308 121.784 52.504 122.68 52.896C123.604 53.26 124.388 53.778 125.032 54.45C125.704 55.094 126.222 55.85 126.586 56.718C126.978 57.586 127.174 58.51 127.174 59.49C127.174 60.47 126.978 61.408 126.586 62.304C126.222 63.172 125.704 63.928 125.032 64.572C124.388 65.216 123.604 65.72 122.68 66.084C121.784 66.476 120.804 66.672 119.74 66.672C118.676 66.672 117.696 66.476 116.8 66.084C115.904 65.72 115.12 65.216 114.448 64.572C113.804 63.928 113.286 63.172 112.894 62.304C112.53 61.408 112.348 60.47 112.348 59.49ZM116.842 59.49C116.842 60.414 117.122 61.156 117.682 61.716C118.242 62.276 118.928 62.556 119.74 62.556C120.552 62.556 121.238 62.276 121.798 61.716C122.358 61.156 122.638 60.414 122.638 59.49C122.638 58.566 122.358 57.824 121.798 57.264C121.238 56.704 120.552 56.424 119.74 56.424C118.928 56.424 118.242 56.704 117.682 57.264C117.122 57.824 116.842 58.566 116.842 59.49Z" fill="#17214D"/>
<path d="M83.3222 102.48C81.7222 102.48 80.2322 102.19 78.8522 101.61C77.4922 101.03 76.3122 100.24 75.3122 99.24C74.3122 98.22 73.5222 97.03 72.9422 95.67C72.3822 94.29 72.1022 92.82 72.1022 91.26C72.1022 89.7 72.3822 88.24 72.9422 86.88C73.5222 85.5 74.3122 84.31 75.3122 83.31C76.3122 82.29 77.4922 81.49 78.8522 80.91C80.2322 80.33 81.7222 80.04 83.3222 80.04C84.9222 80.04 86.4022 80.33 87.7622 80.91C89.1422 81.49 90.3322 82.29 91.3322 83.31C92.3322 84.31 93.1122 85.5 93.6722 86.88C94.2522 88.24 94.5422 89.7 94.5422 91.26C94.5422 92.82 94.2522 94.29 93.6722 95.67C93.1122 97.03 92.3322 98.22 91.3322 99.24C90.3322 100.24 89.1422 101.03 87.7622 101.61C86.4022 102.19 84.9222 102.48 83.3222 102.48ZM83.3222 98.64C84.3222 98.64 85.2522 98.46 86.1122 98.1C86.9922 97.74 87.7522 97.24 88.3922 96.6C89.0522 95.96 89.5622 95.19 89.9222 94.29C90.3022 93.37 90.4922 92.36 90.4922 91.26C90.4922 90.16 90.3022 89.16 89.9222 88.26C89.5622 87.34 89.0522 86.56 88.3922 85.92C87.7522 85.28 86.9922 84.78 86.1122 84.42C85.2522 84.06 84.3222 83.88 83.3222 83.88C82.3222 83.88 81.3822 84.06 80.5022 84.42C79.6422 84.78 78.8822 85.28 78.2222 85.92C77.5822 86.56 77.0722 87.34 76.6922 88.26C76.3322 89.16 76.1522 90.16 76.1522 91.26C76.1522 92.36 76.3322 93.37 76.6922 94.29C77.0722 95.19 77.5822 95.96 78.2222 96.6C78.8822 97.24 79.6422 97.74 80.5022 98.1C81.3822 98.46 82.3222 98.64 83.3222 98.64ZM100.58 92.79V102H97.8202V80.52H110.36V83.16H100.58V90.21H109.4V92.79H100.58ZM116.254 92.79V102H113.494V80.52H126.034V83.16H116.254V90.21H125.074V92.79H116.254Z" fill="#555185"/>
<path d="M198.784 47.932C200.152 46.744 200.98 45.088 200.98 43C200.98 38.644 197.416 35.8 193.024 35.8H183.16V61H193.744C198.244 61 201.88 58.084 201.88 53.62C201.88 51.064 200.656 49.12 198.784 47.932ZM193.024 41.2C194.356 41.2 195.22 42.136 195.22 43.432C195.22 44.728 194.32 45.664 193.024 45.664H188.92V41.2H193.024ZM193.744 55.6H188.92V50.776H193.744C195.184 50.776 196.12 51.784 196.12 53.188C196.12 54.592 195.184 55.6 193.744 55.6ZM209.966 46.204V43H204.566V61H209.966V52.864C209.966 49.3 213.134 48.4 215.366 48.76V42.64C213.098 42.64 210.686 43.792 209.966 46.204ZM226.003 61.504C231.295 61.504 235.543 57.364 235.543 52C235.543 46.636 231.295 42.496 226.003 42.496C220.711 42.496 216.463 46.636 216.463 52C216.463 57.364 220.711 61.504 226.003 61.504ZM226.003 56.248C223.663 56.248 221.863 54.556 221.863 52C221.863 49.444 223.663 47.752 226.003 47.752C228.343 47.752 230.143 49.444 230.143 52C230.143 54.556 228.343 56.248 226.003 56.248ZM249.145 42.496C246.769 42.496 244.969 43.36 243.997 44.692V43H238.597V61H243.997V51.172C243.997 48.616 245.365 47.464 247.345 47.464C249.073 47.464 250.477 48.508 250.477 50.74V61H255.877V49.948C255.877 45.088 252.781 42.496 249.145 42.496ZM266.106 55.96L272.91 46.6V43H259.23V48.04H265.674L258.87 57.4V61H273.27V55.96H266.106ZM280.23 54.16H293.01C293.154 53.476 293.226 52.756 293.226 52C293.226 46.564 289.338 42.496 284.082 42.496C278.394 42.496 274.506 46.636 274.506 52C274.506 57.364 278.322 61.504 284.478 61.504C287.898 61.504 290.562 60.244 292.326 57.796L288.006 55.312C287.286 56.104 286.026 56.68 284.55 56.68C282.57 56.68 280.914 56.032 280.23 54.16ZM280.122 50.128C280.626 48.292 281.994 47.284 284.046 47.284C285.666 47.284 287.286 48.04 287.862 50.128H280.122ZM192.052 87.756L197.524 79.8H190.9L183.196 91.5C182.26 92.904 181.72 94.668 181.72 96.612C181.72 101.832 185.5 105.504 191.08 105.504C196.624 105.504 200.44 101.832 200.44 96.612C200.44 91.716 197.056 88.152 192.052 87.756ZM191.08 100.104C189.136 100.104 187.48 98.844 187.48 96.612C187.48 94.38 189.136 93.12 191.08 93.12C192.988 93.12 194.68 94.416 194.68 96.612C194.68 98.808 192.988 100.104 191.08 100.104ZM203.305 96.828H216.985V91.644H203.305V96.828ZM238.585 88.188C238.585 82.968 234.805 79.296 229.225 79.296C223.681 79.296 219.865 82.968 219.865 88.188C219.865 93.084 223.249 96.648 228.253 97.044L222.781 105H229.405L237.109 93.3C238.045 91.896 238.585 90.132 238.585 88.188ZM225.625 88.188C225.625 85.992 227.317 84.696 229.225 84.696C231.169 84.696 232.825 85.956 232.825 88.188C232.825 90.42 231.169 91.68 229.225 91.68C227.317 91.68 225.625 90.384 225.625 88.188ZM256.209 99.456V79.8H250.449V105H265.209V99.456H256.209ZM272.214 98.16H284.994C285.138 97.476 285.21 96.756 285.21 96C285.21 90.564 281.322 86.496 276.066 86.496C270.378 86.496 266.49 90.636 266.49 96C266.49 101.364 270.306 105.504 276.462 105.504C279.882 105.504 282.546 104.244 284.31 101.796L279.99 99.312C279.27 100.104 278.01 100.68 276.534 100.68C274.554 100.68 272.898 100.032 272.214 98.16ZM272.106 94.128C272.61 92.292 273.978 91.284 276.03 91.284C277.65 91.284 279.27 92.04 279.846 94.128H272.106ZM292.682 92.256C292.682 91.608 293.258 91.248 294.194 91.248C295.382 91.248 296.102 91.896 296.606 92.832L301.214 90.348C299.702 87.792 297.11 86.496 294.194 86.496C290.45 86.496 287.138 88.476 287.138 92.4C287.138 98.628 295.994 97.584 295.994 99.564C295.994 100.284 295.346 100.68 294.05 100.68C292.466 100.68 291.458 99.924 290.99 98.556L286.31 101.22C287.714 104.136 290.45 105.504 294.05 105.504C297.938 105.504 301.538 103.74 301.538 99.6C301.538 92.94 292.682 94.308 292.682 92.256ZM308.432 92.256C308.432 91.608 309.008 91.248 309.944 91.248C311.132 91.248 311.852 91.896 312.356 92.832L316.964 90.348C315.452 87.792 312.86 86.496 309.944 86.496C306.2 86.496 302.888 88.476 302.888 92.4C302.888 98.628 311.744 97.584 311.744 99.564C311.744 100.284 311.096 100.68 309.8 100.68C308.216 100.68 307.208 99.924 306.74 98.556L302.06 101.22C303.464 104.136 306.2 105.504 309.8 105.504C313.688 105.504 317.288 103.74 317.288 99.6C317.288 92.94 308.432 94.308 308.432 92.256ZM328.448 105.504C333.74 105.504 337.988 101.364 337.988 96C337.988 90.636 333.74 86.496 328.448 86.496C323.156 86.496 318.908 90.636 318.908 96C318.908 101.364 323.156 105.504 328.448 105.504ZM328.448 100.248C326.108 100.248 324.308 98.556 324.308 96C324.308 93.444 326.108 91.752 328.448 91.752C330.788 91.752 332.588 93.444 332.588 96C332.588 98.556 330.788 100.248 328.448 100.248ZM351.591 86.496C349.215 86.496 347.415 87.36 346.443 88.692V87H341.043V105H346.443V95.172C346.443 92.616 347.811 91.464 349.791 91.464C351.519 91.464 352.923 92.508 352.923 94.74V105H358.323V93.948C358.323 89.088 355.227 86.496 351.591 86.496ZM367.143 92.256C367.143 91.608 367.719 91.248 368.655 91.248C369.843 91.248 370.563 91.896 371.067 92.832L375.675 90.348C374.163 87.792 371.571 86.496 368.655 86.496C364.911 86.496 361.599 88.476 361.599 92.4C361.599 98.628 370.455 97.584 370.455 99.564C370.455 100.284 369.807 100.68 368.511 100.68C366.927 100.68 365.919 99.924 365.451 98.556L360.771 101.22C362.175 104.136 364.911 105.504 368.511 105.504C372.399 105.504 375.999 103.74 375.999 99.6C375.999 92.94 367.143 94.308 367.143 92.256Z" fill="white"/>
<path d="M191.98 224.504C197.452 224.504 201.34 221.624 201.34 216.764C201.34 211.436 197.056 210.104 193.24 208.952C189.316 207.764 188.704 206.972 188.704 205.82C188.704 204.812 189.604 203.912 191.404 203.912C193.708 203.912 194.896 205.028 195.76 206.828L200.62 203.984C198.784 200.276 195.544 198.296 191.404 198.296C187.048 198.296 182.944 201.104 182.944 205.964C182.944 210.788 186.616 212.588 190.36 213.632C194.14 214.676 195.58 215.288 195.58 216.836C195.58 217.808 194.896 218.888 192.16 218.888C189.316 218.888 187.768 217.484 186.868 215.396L181.9 218.276C183.304 221.984 186.688 224.504 191.98 224.504ZM206.739 204.416C208.503 204.416 209.979 202.94 209.979 201.176C209.979 199.412 208.503 197.936 206.739 197.936C204.975 197.936 203.499 199.412 203.499 201.176C203.499 202.94 204.975 204.416 206.739 204.416ZM204.039 224H209.439V206H204.039V224ZM213.39 224H218.79V197.72H213.39V224ZM234.226 206L230.482 217.412L226.738 206H220.762L227.422 224H233.542L240.202 206H234.226ZM246.304 217.16H259.084C259.228 216.476 259.3 215.756 259.3 215C259.3 209.564 255.412 205.496 250.156 205.496C244.468 205.496 240.58 209.636 240.58 215C240.58 220.364 244.396 224.504 250.552 224.504C253.972 224.504 256.636 223.244 258.4 220.796L254.08 218.312C253.36 219.104 252.1 219.68 250.624 219.68C248.644 219.68 246.988 219.032 246.304 217.16ZM246.196 213.128C246.7 211.292 248.068 210.284 250.12 210.284C251.74 210.284 253.36 211.04 253.936 213.128H246.196ZM267.763 209.204V206H262.363V224H267.763V215.864C267.763 212.3 270.931 211.4 273.163 211.76V205.64C270.895 205.64 268.483 206.792 267.763 209.204ZM187.948 242.8L181.36 245.176L182.764 250.108L187.228 248.884V268H192.988V242.8H187.948ZM206.86 268.504C213.376 268.504 217.12 263.176 217.12 255.4C217.12 247.624 213.376 242.296 206.86 242.296C200.344 242.296 196.6 247.624 196.6 255.4C196.6 263.176 200.344 268.504 206.86 268.504ZM206.86 262.888C203.836 262.888 202.36 260.26 202.36 255.4C202.36 250.54 203.836 247.912 206.86 247.912C209.884 247.912 211.36 250.54 211.36 255.4C211.36 260.26 209.884 262.888 206.86 262.888ZM220.355 259.828H234.035V254.644H220.355V259.828ZM243.143 242.8L236.555 245.176L237.959 250.108L242.423 248.884V268H248.183V242.8H243.143ZM270.155 251.188C270.155 245.968 266.375 242.296 260.795 242.296C255.251 242.296 251.435 245.968 251.435 251.188C251.435 256.084 254.819 259.648 259.823 260.044L254.351 268H260.975L268.679 256.3C269.615 254.896 270.155 253.132 270.155 251.188ZM257.195 251.188C257.195 248.992 258.887 247.696 260.795 247.696C262.739 247.696 264.395 248.956 264.395 251.188C264.395 253.42 262.739 254.68 260.795 254.68C258.887 254.68 257.195 253.384 257.195 251.188ZM287.779 262.456V242.8H282.019V268H296.779V262.456H287.779ZM303.784 261.16H316.564C316.708 260.476 316.78 259.756 316.78 259C316.78 253.564 312.892 249.496 307.636 249.496C301.948 249.496 298.06 253.636 298.06 259C298.06 264.364 301.876 268.504 308.032 268.504C311.452 268.504 314.116 267.244 315.88 264.796L311.56 262.312C310.84 263.104 309.58 263.68 308.104 263.68C306.124 263.68 304.468 263.032 303.784 261.16ZM303.676 257.128C304.18 255.292 305.548 254.284 307.6 254.284C309.22 254.284 310.84 255.04 311.416 257.128H303.676ZM324.252 255.256C324.252 254.608 324.828 254.248 325.764 254.248C326.952 254.248 327.672 254.896 328.176 255.832L332.784 253.348C331.272 250.792 328.68 249.496 325.764 249.496C322.02 249.496 318.708 251.476 318.708 255.4C318.708 261.628 327.564 260.584 327.564 262.564C327.564 263.284 326.916 263.68 325.62 263.68C324.036 263.68 323.028 262.924 322.56 261.556L317.88 264.22C319.284 267.136 322.02 268.504 325.62 268.504C329.508 268.504 333.108 266.74 333.108 262.6C333.108 255.94 324.252 257.308 324.252 255.256ZM340.002 255.256C340.002 254.608 340.578 254.248 341.514 254.248C342.702 254.248 343.422 254.896 343.926 255.832L348.534 253.348C347.022 250.792 344.43 249.496 341.514 249.496C337.77 249.496 334.458 251.476 334.458 255.4C334.458 261.628 343.314 260.584 343.314 262.564C343.314 263.284 342.666 263.68 341.37 263.68C339.786 263.68 338.778 262.924 338.31 261.556L333.63 264.22C335.034 267.136 337.77 268.504 341.37 268.504C345.258 268.504 348.858 266.74 348.858 262.6C348.858 255.94 340.002 257.308 340.002 255.256ZM360.018 268.504C365.31 268.504 369.558 264.364 369.558 259C369.558 253.636 365.31 249.496 360.018 249.496C354.726 249.496 350.478 253.636 350.478 259C350.478 264.364 354.726 268.504 360.018 268.504ZM360.018 263.248C357.678 263.248 355.878 261.556 355.878 259C355.878 256.444 357.678 254.752 360.018 254.752C362.358 254.752 364.158 256.444 364.158 259C364.158 261.556 362.358 263.248 360.018 263.248ZM383.161 249.496C380.785 249.496 378.985 250.36 378.013 251.692V250H372.613V268H378.013V258.172C378.013 255.616 379.381 254.464 381.361 254.464C383.089 254.464 384.493 255.508 384.493 257.74V268H389.893V256.948C389.893 252.088 386.797 249.496 383.161 249.496ZM398.713 255.256C398.713 254.608 399.289 254.248 400.225 254.248C401.413 254.248 402.133 254.896 402.637 255.832L407.245 253.348C405.733 250.792 403.141 249.496 400.225 249.496C396.481 249.496 393.169 251.476 393.169 255.4C393.169 261.628 402.025 260.584 402.025 262.564C402.025 263.284 401.377 263.68 400.081 263.68C398.497 263.68 397.489 262.924 397.021 261.556L392.341 264.22C393.745 267.136 396.481 268.504 400.081 268.504C403.969 268.504 407.569 266.74 407.569 262.6C407.569 255.94 398.713 257.308 398.713 255.256Z" fill="white"/>
<path d="M208.108 362.96H195.472V368H202.204C201.304 370.412 199.108 371.888 195.76 371.888C190.864 371.888 187.84 368.756 187.84 364.472C187.84 360.044 191.008 356.912 195.256 356.912C198.1 356.912 200.368 358.208 201.412 359.864L206.308 357.056C204.184 353.672 200.116 351.296 195.292 351.296C187.876 351.296 182.08 357.128 182.08 364.436C182.08 371.672 187.768 377.504 195.688 377.504C202.744 377.504 208.108 372.824 208.108 365.12V362.96ZM219.815 377.504C225.107 377.504 229.355 373.364 229.355 368C229.355 362.636 225.107 358.496 219.815 358.496C214.523 358.496 210.275 362.636 210.275 368C210.275 373.364 214.523 377.504 219.815 377.504ZM219.815 372.248C217.475 372.248 215.675 370.556 215.675 368C215.675 365.444 217.475 363.752 219.815 363.752C222.155 363.752 223.955 365.444 223.955 368C223.955 370.556 222.155 372.248 219.815 372.248ZM232.41 377H237.81V350.72H232.41V377ZM254.829 351.8V360.692C253.641 359.324 251.877 358.496 249.465 358.496C244.749 358.496 240.861 362.636 240.861 368C240.861 373.364 244.749 377.504 249.465 377.504C251.877 377.504 253.641 376.676 254.829 375.308V377H260.229V351.8H254.829ZM250.545 372.392C248.061 372.392 246.261 370.7 246.261 368C246.261 365.3 248.061 363.608 250.545 363.608C253.029 363.608 254.829 365.3 254.829 368C254.829 370.7 253.029 372.392 250.545 372.392ZM181.792 421H198.928V415.456H190.468L194.644 411.244C196.948 408.94 198.568 406.348 198.568 403.324C198.568 398.248 194.536 395.296 190.036 395.296C186.544 395.296 183.16 397.06 181.54 400.804L186.4 403.648C187.084 402.064 188.344 400.912 190.108 400.912C191.8 400.912 192.808 401.992 192.808 403.576C192.808 405.052 191.728 406.528 190.252 408.04L181.792 416.824V421ZM211.184 421.504C217.7 421.504 221.444 416.176 221.444 408.4C221.444 400.624 217.7 395.296 211.184 395.296C204.668 395.296 200.924 400.624 200.924 408.4C200.924 416.176 204.668 421.504 211.184 421.504ZM211.184 415.888C208.16 415.888 206.684 413.26 206.684 408.4C206.684 403.54 208.16 400.912 211.184 400.912C214.208 400.912 215.684 403.54 215.684 408.4C215.684 413.26 214.208 415.888 211.184 415.888ZM224.68 412.828H238.36V407.644H224.68V412.828ZM261.04 411.64H258.52V406.24H252.688V411.64H247.432L255.46 395.8H249.268L241.24 411.64V416.968H252.688V421H258.52V416.968H261.04V411.64ZM280.139 404.188C280.139 398.968 276.359 395.296 270.779 395.296C265.235 395.296 261.419 398.968 261.419 404.188C261.419 409.084 264.803 412.648 269.807 413.044L264.335 421H270.959L278.663 409.3C279.599 407.896 280.139 406.132 280.139 404.188ZM267.179 404.188C267.179 401.992 268.871 400.696 270.779 400.696C272.723 400.696 274.379 401.956 274.379 404.188C274.379 406.42 272.723 407.68 270.779 407.68C268.871 407.68 267.179 406.384 267.179 404.188ZM297.764 415.456V395.8H292.004V421H306.764V415.456H297.764ZM313.769 414.16H326.549C326.693 413.476 326.765 412.756 326.765 412C326.765 406.564 322.877 402.496 317.621 402.496C311.933 402.496 308.045 406.636 308.045 412C308.045 417.364 311.861 421.504 318.017 421.504C321.437 421.504 324.101 420.244 325.865 417.796L321.545 415.312C320.825 416.104 319.565 416.68 318.089 416.68C316.109 416.68 314.453 416.032 313.769 414.16ZM313.661 410.128C314.165 408.292 315.533 407.284 317.585 407.284C319.205 407.284 320.825 408.04 321.401 410.128H313.661ZM334.237 408.256C334.237 407.608 334.813 407.248 335.749 407.248C336.937 407.248 337.657 407.896 338.161 408.832L342.769 406.348C341.257 403.792 338.665 402.496 335.749 402.496C332.005 402.496 328.693 404.476 328.693 408.4C328.693 414.628 337.549 413.584 337.549 415.564C337.549 416.284 336.901 416.68 335.605 416.68C334.021 416.68 333.013 415.924 332.545 414.556L327.865 417.22C329.269 420.136 332.005 421.504 335.605 421.504C339.493 421.504 343.093 419.74 343.093 415.6C343.093 408.94 334.237 410.308 334.237 408.256ZM349.987 408.256C349.987 407.608 350.563 407.248 351.499 407.248C352.687 407.248 353.407 407.896 353.911 408.832L358.519 406.348C357.007 403.792 354.415 402.496 351.499 402.496C347.755 402.496 344.443 404.476 344.443 408.4C344.443 414.628 353.299 413.584 353.299 415.564C353.299 416.284 352.651 416.68 351.355 416.68C349.771 416.68 348.763 415.924 348.295 414.556L343.615 417.22C345.019 420.136 347.755 421.504 351.355 421.504C355.243 421.504 358.843 419.74 358.843 415.6C358.843 408.94 349.987 410.308 349.987 408.256ZM370.003 421.504C375.295 421.504 379.543 417.364 379.543 412C379.543 406.636 375.295 402.496 370.003 402.496C364.711 402.496 360.463 406.636 360.463 412C360.463 417.364 364.711 421.504 370.003 421.504ZM370.003 416.248C367.663 416.248 365.863 414.556 365.863 412C365.863 409.444 367.663 407.752 370.003 407.752C372.343 407.752 374.143 409.444 374.143 412C374.143 414.556 372.343 416.248 370.003 416.248ZM393.145 402.496C390.769 402.496 388.969 403.36 387.997 404.692V403H382.597V421H387.997V411.172C387.997 408.616 389.365 407.464 391.345 407.464C393.073 407.464 394.477 408.508 394.477 410.74V421H399.877V409.948C399.877 405.088 396.781 402.496 393.145 402.496ZM408.697 408.256C408.697 407.608 409.273 407.248 410.209 407.248C411.397 407.248 412.117 407.896 412.621 408.832L417.229 406.348C415.717 403.792 413.125 402.496 410.209 402.496C406.465 402.496 403.153 404.476 403.153 408.4C403.153 414.628 412.009 413.584 412.009 415.564C412.009 416.284 411.361 416.68 410.065 416.68C408.481 416.68 407.473 415.924 407.005 414.556L402.325 417.22C403.729 420.136 406.465 421.504 410.065 421.504C413.953 421.504 417.553 419.74 417.553 415.6C417.553 408.94 408.697 410.308 408.697 408.256Z" fill="white"/>
<path d="M192.7 511.8H183.16V537H188.92V529.08H192.7C197.668 529.08 201.52 525.228 201.52 520.44C201.52 515.652 197.668 511.8 192.7 511.8ZM192.7 523.68H188.92V517.2H192.7C194.464 517.2 195.76 518.604 195.76 520.44C195.76 522.276 194.464 523.68 192.7 523.68ZM204.214 537H209.614V510.72H204.214V537ZM226.634 519V520.692C225.446 519.324 223.682 518.496 221.27 518.496C216.554 518.496 212.666 522.636 212.666 528C212.666 533.364 216.554 537.504 221.27 537.504C223.682 537.504 225.446 536.676 226.634 535.308V537H232.034V519H226.634ZM222.35 532.392C219.866 532.392 218.066 530.7 218.066 528C218.066 525.3 219.866 523.608 222.35 523.608C224.834 523.608 226.634 525.3 226.634 528C226.634 530.7 224.834 532.392 222.35 532.392ZM246.544 524.184V519H242.836V513.96L237.436 515.58V519H234.556V524.184H237.436V530.556C237.436 535.596 239.488 537.72 246.544 537V532.104C244.168 532.248 242.836 532.104 242.836 530.556V524.184H246.544ZM252.301 517.416C254.065 517.416 255.541 515.94 255.541 514.176C255.541 512.412 254.065 510.936 252.301 510.936C250.537 510.936 249.061 512.412 249.061 514.176C249.061 515.94 250.537 517.416 252.301 517.416ZM249.601 537H255.001V519H249.601V537ZM269.501 518.496C267.125 518.496 265.325 519.36 264.353 520.692V519H258.953V537H264.353V527.172C264.353 524.616 265.721 523.464 267.701 523.464C269.429 523.464 270.833 524.508 270.833 526.74V537H276.233V525.948C276.233 521.088 273.137 518.496 269.501 518.496ZM291.569 519V528.828C291.569 531.384 290.201 532.536 288.221 532.536C286.493 532.536 285.089 531.492 285.089 529.26V519H279.689V530.052C279.689 534.912 282.785 537.504 286.421 537.504C288.797 537.504 290.597 536.64 291.569 535.308V537H296.969V519H291.569ZM321.089 518.496C318.533 518.496 316.877 519.432 315.869 520.872C314.861 519.36 313.277 518.496 311.153 518.496C308.741 518.496 307.157 519.432 306.329 520.656V519H300.929V537H306.329V526.848C306.329 524.724 307.337 523.464 309.137 523.464C310.865 523.464 311.729 524.616 311.729 526.416V537H317.129V526.848C317.129 524.724 318.137 523.464 319.937 523.464C321.665 523.464 322.529 524.616 322.529 526.416V537H327.929V525.948C327.929 521.448 325.229 518.496 321.089 518.496ZM191.26 564.656H189.208L189.46 561.2H198.64V555.8H184.06L183.016 570.272H190.9C193.096 570.272 194.14 571.532 194.14 573.08C194.14 574.628 193.096 575.888 190.72 575.888C188.344 575.888 187.264 574.88 186.688 573.224L181.72 576.104C183.268 579.812 186.724 581.504 190.72 581.504C195.58 581.504 199.9 578.624 199.9 573.08C199.9 567.536 195.94 564.656 191.26 564.656ZM211.957 581.504C218.473 581.504 222.217 576.176 222.217 568.4C222.217 560.624 218.473 555.296 211.957 555.296C205.441 555.296 201.697 560.624 201.697 568.4C201.697 576.176 205.441 581.504 211.957 581.504ZM211.957 575.888C208.933 575.888 207.457 573.26 207.457 568.4C207.457 563.54 208.933 560.912 211.957 560.912C214.981 560.912 216.457 563.54 216.457 568.4C216.457 573.26 214.981 575.888 211.957 575.888ZM225.453 572.828H239.133V567.644H225.453V572.828ZM239.122 555.8V561.344H249.274L241.354 581H247.474L255.682 560.624V555.8H239.122ZM274.786 571.64H272.266V566.24H266.434V571.64H261.178L269.206 555.8H263.014L254.986 571.64V576.968H266.434V581H272.266V576.968H274.786V571.64ZM292.068 575.456V555.8H286.308V581H301.068V575.456H292.068ZM308.074 574.16H320.854C320.998 573.476 321.07 572.756 321.07 572C321.07 566.564 317.182 562.496 311.926 562.496C306.238 562.496 302.35 566.636 302.35 572C302.35 577.364 306.166 581.504 312.322 581.504C315.742 581.504 318.406 580.244 320.17 577.796L315.85 575.312C315.13 576.104 313.87 576.68 312.394 576.68C310.414 576.68 308.758 576.032 308.074 574.16ZM307.966 570.128C308.47 568.292 309.838 567.284 311.89 567.284C313.51 567.284 315.13 568.04 315.706 570.128H307.966ZM328.541 568.256C328.541 567.608 329.117 567.248 330.053 567.248C331.241 567.248 331.961 567.896 332.465 568.832L337.073 566.348C335.561 563.792 332.969 562.496 330.053 562.496C326.309 562.496 322.997 564.476 322.997 568.4C322.997 574.628 331.853 573.584 331.853 575.564C331.853 576.284 331.205 576.68 329.909 576.68C328.325 576.68 327.317 575.924 326.849 574.556L322.169 577.22C323.573 580.136 326.309 581.504 329.909 581.504C333.797 581.504 337.397 579.74 337.397 575.6C337.397 568.94 328.541 570.308 328.541 568.256ZM344.291 568.256C344.291 567.608 344.867 567.248 345.803 567.248C346.991 567.248 347.711 567.896 348.215 568.832L352.823 566.348C351.311 563.792 348.719 562.496 345.803 562.496C342.059 562.496 338.747 564.476 338.747 568.4C338.747 574.628 347.603 573.584 347.603 575.564C347.603 576.284 346.955 576.68 345.659 576.68C344.075 576.68 343.067 575.924 342.599 574.556L337.919 577.22C339.323 580.136 342.059 581.504 345.659 581.504C349.547 581.504 353.147 579.74 353.147 575.6C353.147 568.94 344.291 570.308 344.291 568.256ZM364.308 581.504C369.6 581.504 373.848 577.364 373.848 572C373.848 566.636 369.6 562.496 364.308 562.496C359.016 562.496 354.768 566.636 354.768 572C354.768 577.364 359.016 581.504 364.308 581.504ZM364.308 576.248C361.968 576.248 360.168 574.556 360.168 572C360.168 569.444 361.968 567.752 364.308 567.752C366.648 567.752 368.448 569.444 368.448 572C368.448 574.556 366.648 576.248 364.308 576.248ZM387.45 562.496C385.074 562.496 383.274 563.36 382.302 564.692V563H376.902V581H382.302V571.172C382.302 568.616 383.67 567.464 385.65 567.464C387.378 567.464 388.782 568.508 388.782 570.74V581H394.182V569.948C394.182 565.088 391.086 562.496 387.45 562.496ZM403.002 568.256C403.002 567.608 403.578 567.248 404.514 567.248C405.702 567.248 406.422 567.896 406.926 568.832L411.534 566.348C410.022 563.792 407.43 562.496 404.514 562.496C400.77 562.496 397.458 564.476 397.458 568.4C397.458 574.628 406.314 573.584 406.314 575.564C406.314 576.284 405.666 576.68 404.37 576.68C402.786 576.68 401.778 575.924 401.31 574.556L396.63 577.22C398.034 580.136 400.77 581.504 404.37 581.504C408.258 581.504 411.858 579.74 411.858 575.6C411.858 568.94 403.002 570.308 403.002 568.256Z" fill="white"/>
<path d="M193.24 671.8H183.16V697H193.24C200.188 697 205.48 691.528 205.48 684.4C205.48 677.272 200.188 671.8 193.24 671.8ZM193.24 691.456H188.92V677.344H193.24C197.2 677.344 199.936 680.08 199.936 684.4C199.936 688.72 197.2 691.456 193.24 691.456ZM211.239 677.416C213.003 677.416 214.479 675.94 214.479 674.176C214.479 672.412 213.003 670.936 211.239 670.936C209.475 670.936 207.999 672.412 207.999 674.176C207.999 675.94 209.475 677.416 211.239 677.416ZM208.539 697H213.939V679H208.539V697ZM230.958 679V680.692C229.77 679.324 228.006 678.496 225.594 678.496C220.878 678.496 216.99 682.636 216.99 688C216.99 693.364 220.878 697.504 225.594 697.504C228.006 697.504 229.77 696.676 230.958 695.308V697H236.358V679H230.958ZM226.674 692.392C224.19 692.392 222.39 690.7 222.39 688C222.39 685.3 224.19 683.608 226.674 683.608C229.158 683.608 230.958 685.3 230.958 688C230.958 690.7 229.158 692.392 226.674 692.392ZM260.48 678.496C257.924 678.496 256.268 679.432 255.26 680.872C254.252 679.36 252.668 678.496 250.544 678.496C248.132 678.496 246.548 679.432 245.72 680.656V679H240.32V697H245.72V686.848C245.72 684.724 246.728 683.464 248.528 683.464C250.256 683.464 251.12 684.616 251.12 686.416V697H256.52V686.848C256.52 684.724 257.528 683.464 259.328 683.464C261.056 683.464 261.92 684.616 261.92 686.416V697H267.32V685.948C267.32 681.448 264.62 678.496 260.48 678.496ZM279.651 697.504C284.943 697.504 289.191 693.364 289.191 688C289.191 682.636 284.943 678.496 279.651 678.496C274.359 678.496 270.111 682.636 270.111 688C270.111 693.364 274.359 697.504 279.651 697.504ZM279.651 692.248C277.311 692.248 275.511 690.556 275.511 688C275.511 685.444 277.311 683.752 279.651 683.752C281.991 683.752 283.791 685.444 283.791 688C283.791 690.556 281.991 692.248 279.651 692.248ZM302.794 678.496C300.418 678.496 298.618 679.36 297.646 680.692V679H292.246V697H297.646V687.172C297.646 684.616 299.014 683.464 300.994 683.464C302.722 683.464 304.126 684.508 304.126 686.74V697H309.526V685.948C309.526 681.088 306.43 678.496 302.794 678.496ZM326.302 671.8V680.692C325.114 679.324 323.35 678.496 320.938 678.496C316.222 678.496 312.334 682.636 312.334 688C312.334 693.364 316.222 697.504 320.938 697.504C323.35 697.504 325.114 696.676 326.302 695.308V697H331.702V671.8H326.302ZM322.018 692.392C319.534 692.392 317.734 690.7 317.734 688C317.734 685.3 319.534 683.608 322.018 683.608C324.502 683.608 326.302 685.3 326.302 688C326.302 690.7 324.502 692.392 322.018 692.392ZM181.36 715.8V721.344H191.512L183.592 741H189.712L197.92 720.624V715.8H181.36ZM207.819 724.656H205.767L206.019 721.2H215.199V715.8H200.619L199.575 730.272H207.459C209.655 730.272 210.699 731.532 210.699 733.08C210.699 734.628 209.655 735.888 207.279 735.888C204.903 735.888 203.823 734.88 203.247 733.224L198.279 736.104C199.827 739.812 203.283 741.504 207.279 741.504C212.139 741.504 216.459 738.624 216.459 733.08C216.459 727.536 212.499 724.656 207.819 724.656ZM219.512 732.828H233.192V727.644H219.512V732.828ZM242.3 715.8L235.712 718.176L237.116 723.108L241.58 721.884V741H247.34V715.8H242.3ZM261.211 741.504C267.727 741.504 271.471 736.176 271.471 728.4C271.471 720.624 267.727 715.296 261.211 715.296C254.695 715.296 250.951 720.624 250.951 728.4C250.951 736.176 254.695 741.504 261.211 741.504ZM261.211 735.888C258.187 735.888 256.711 733.26 256.711 728.4C256.711 723.54 258.187 720.912 261.211 720.912C264.235 720.912 265.711 723.54 265.711 728.4C265.711 733.26 264.235 735.888 261.211 735.888ZM283.887 741.504C290.403 741.504 294.147 736.176 294.147 728.4C294.147 720.624 290.403 715.296 283.887 715.296C277.371 715.296 273.627 720.624 273.627 728.4C273.627 736.176 277.371 741.504 283.887 741.504ZM283.887 735.888C280.863 735.888 279.387 733.26 279.387 728.4C279.387 723.54 280.863 720.912 283.887 720.912C286.911 720.912 288.387 723.54 288.387 728.4C288.387 733.26 286.911 735.888 283.887 735.888ZM312.143 735.456V715.8H306.383V741H321.143V735.456H312.143ZM328.148 734.16H340.928C341.072 733.476 341.144 732.756 341.144 732C341.144 726.564 337.256 722.496 332 722.496C326.312 722.496 322.424 726.636 322.424 732C322.424 737.364 326.24 741.504 332.396 741.504C335.816 741.504 338.48 740.244 340.244 737.796L335.924 735.312C335.204 736.104 333.944 736.68 332.468 736.68C330.488 736.68 328.832 736.032 328.148 734.16ZM328.04 730.128C328.544 728.292 329.912 727.284 331.964 727.284C333.584 727.284 335.204 728.04 335.78 730.128H328.04ZM348.615 728.256C348.615 727.608 349.191 727.248 350.127 727.248C351.315 727.248 352.035 727.896 352.539 728.832L357.147 726.348C355.635 723.792 353.043 722.496 350.127 722.496C346.383 722.496 343.071 724.476 343.071 728.4C343.071 734.628 351.927 733.584 351.927 735.564C351.927 736.284 351.279 736.68 349.983 736.68C348.399 736.68 347.391 735.924 346.923 734.556L342.243 737.22C343.647 740.136 346.383 741.504 349.983 741.504C353.871 741.504 357.471 739.74 357.471 735.6C357.471 728.94 348.615 730.308 348.615 728.256ZM364.365 728.256C364.365 727.608 364.941 727.248 365.877 727.248C367.065 727.248 367.785 727.896 368.289 728.832L372.897 726.348C371.385 723.792 368.793 722.496 365.877 722.496C362.133 722.496 358.821 724.476 358.821 728.4C358.821 734.628 367.677 733.584 367.677 735.564C367.677 736.284 367.029 736.68 365.733 736.68C364.149 736.68 363.141 735.924 362.673 734.556L357.993 737.22C359.397 740.136 362.133 741.504 365.733 741.504C369.621 741.504 373.221 739.74 373.221 735.6C373.221 728.94 364.365 730.308 364.365 728.256ZM384.382 741.504C389.674 741.504 393.922 737.364 393.922 732C393.922 726.636 389.674 722.496 384.382 722.496C379.09 722.496 374.842 726.636 374.842 732C374.842 737.364 379.09 741.504 384.382 741.504ZM384.382 736.248C382.042 736.248 380.242 734.556 380.242 732C380.242 729.444 382.042 727.752 384.382 727.752C386.722 727.752 388.522 729.444 388.522 732C388.522 734.556 386.722 736.248 384.382 736.248ZM407.524 722.496C405.148 722.496 403.348 723.36 402.376 724.692V723H396.976V741H402.376V731.172C402.376 728.616 403.744 727.464 405.724 727.464C407.452 727.464 408.856 728.508 408.856 730.74V741H414.256V729.948C414.256 725.088 411.16 722.496 407.524 722.496ZM423.076 728.256C423.076 727.608 423.652 727.248 424.588 727.248C425.776 727.248 426.496 727.896 427 728.832L431.608 726.348C430.096 723.792 427.504 722.496 424.588 722.496C420.844 722.496 417.532 724.476 417.532 728.4C417.532 734.628 426.388 733.584 426.388 735.564C426.388 736.284 425.74 736.68 424.444 736.68C422.86 736.68 421.852 735.924 421.384 734.556L416.704 737.22C418.108 740.136 420.844 741.504 424.444 741.504C428.332 741.504 431.932 739.74 431.932 735.6C431.932 728.94 423.076 730.308 423.076 728.256Z" fill="white"/>
<path d="M67.8161 228V205.74L62.7341 207.882L60.7181 203.22L69.1601 199.272H73.3181V228H67.8161ZM90.7409 228.672C88.8929 228.672 87.2269 228.294 85.7429 227.538C84.2589 226.754 82.9849 225.69 81.9209 224.346C80.8849 223.002 80.0869 221.42 79.5269 219.6C78.9669 217.752 78.6869 215.764 78.6869 213.636C78.6869 211.508 78.9669 209.534 79.5269 207.714C80.0869 205.866 80.8849 204.27 81.9209 202.926C82.9849 201.582 84.2589 200.532 85.7429 199.776C87.2269 198.992 88.8929 198.6 90.7409 198.6C92.5889 198.6 94.2549 198.992 95.7389 199.776C97.2229 200.532 98.4829 201.582 99.5189 202.926C100.583 204.27 101.395 205.866 101.955 207.714C102.515 209.534 102.795 211.508 102.795 213.636C102.795 215.764 102.515 217.752 101.955 219.6C101.395 221.42 100.583 223.002 99.5189 224.346C98.4829 225.69 97.2229 226.754 95.7389 227.538C94.2549 228.294 92.5889 228.672 90.7409 228.672ZM90.7409 223.464C91.7489 223.464 92.6589 223.226 93.4709 222.75C94.2829 222.246 94.9689 221.56 95.5289 220.692C96.1169 219.796 96.5509 218.746 96.8309 217.542C97.1389 216.338 97.2929 215.036 97.2929 213.636C97.2929 212.208 97.1389 210.906 96.8309 209.73C96.5509 208.526 96.1169 207.49 95.5289 206.622C94.9689 205.726 94.2829 205.04 93.4709 204.564C92.6589 204.06 91.7489 203.808 90.7409 203.808C89.7049 203.808 88.7809 204.06 87.9689 204.564C87.1569 205.04 86.4709 205.726 85.9109 206.622C85.3509 207.49 84.9169 208.526 84.6089 209.73C84.3289 210.906 84.1889 212.208 84.1889 213.636C84.1889 215.036 84.3289 216.338 84.6089 217.542C84.9169 218.746 85.3509 219.796 85.9109 220.692C86.4709 221.56 87.1569 222.246 87.9689 222.75C88.7809 223.226 89.7049 223.464 90.7409 223.464ZM105.991 205.782C105.991 204.802 106.173 203.878 106.537 203.01C106.929 202.142 107.447 201.386 108.091 200.742C108.763 200.07 109.547 199.552 110.443 199.188C111.339 198.796 112.319 198.6 113.383 198.6C114.447 198.6 115.427 198.796 116.323 199.188C117.247 199.552 118.031 200.07 118.675 200.742C119.347 201.386 119.865 202.142 120.229 203.01C120.621 203.878 120.817 204.802 120.817 205.782C120.817 206.762 120.621 207.7 120.229 208.596C119.865 209.464 119.347 210.22 118.675 210.864C118.031 211.508 117.247 212.026 116.323 212.418C115.427 212.782 114.447 212.964 113.383 212.964C112.319 212.964 111.339 212.782 110.443 212.418C109.547 212.026 108.763 211.508 108.091 210.864C107.447 210.22 106.929 209.464 106.537 208.596C106.173 207.7 105.991 206.762 105.991 205.782ZM110.485 205.782C110.485 206.706 110.765 207.448 111.325 208.008C111.885 208.568 112.571 208.848 113.383 208.848C114.195 208.848 114.881 208.568 115.441 208.008C116.001 207.448 116.281 206.706 116.281 205.782C116.281 204.858 116.001 204.116 115.441 203.556C114.881 202.996 114.195 202.716 113.383 202.716C112.571 202.716 111.885 202.996 111.325 203.556C110.765 204.116 110.485 204.858 110.485 205.782ZM111.325 226.446L129.973 198.6L133.291 200.826L114.643 228.672L111.325 226.446ZM123.799 221.49C123.799 220.51 123.981 219.586 124.345 218.718C124.737 217.85 125.255 217.094 125.899 216.45C126.571 215.778 127.355 215.26 128.251 214.896C129.147 214.504 130.127 214.308 131.191 214.308C132.255 214.308 133.235 214.504 134.131 214.896C135.055 215.26 135.839 215.778 136.483 216.45C137.155 217.094 137.673 217.85 138.037 218.718C138.429 219.586 138.625 220.51 138.625 221.49C138.625 222.47 138.429 223.408 138.037 224.304C137.673 225.172 137.155 225.928 136.483 226.572C135.839 227.216 135.055 227.72 134.131 228.084C133.235 228.476 132.255 228.672 131.191 228.672C130.127 228.672 129.147 228.476 128.251 228.084C127.355 227.72 126.571 227.216 125.899 226.572C125.255 225.928 124.737 225.172 124.345 224.304C123.981 223.408 123.799 222.47 123.799 221.49ZM128.293 221.49C128.293 222.414 128.573 223.156 129.133 223.716C129.693 224.276 130.379 224.556 131.191 224.556C132.003 224.556 132.689 224.276 133.249 223.716C133.809 223.156 134.089 222.414 134.089 221.49C134.089 220.566 133.809 219.824 133.249 219.264C132.689 218.704 132.003 218.424 131.191 218.424C130.379 218.424 129.693 218.704 129.133 219.264C128.573 219.824 128.293 220.566 128.293 221.49Z" fill="#17214D"/>
<path d="M83.8222 264.48C82.2222 264.48 80.7322 264.19 79.3522 263.61C77.9922 263.03 76.8122 262.24 75.8122 261.24C74.8122 260.22 74.0222 259.03 73.4422 257.67C72.8822 256.29 72.6022 254.82 72.6022 253.26C72.6022 251.7 72.8822 250.24 73.4422 248.88C74.0222 247.5 74.8122 246.31 75.8122 245.31C76.8122 244.29 77.9922 243.49 79.3522 242.91C80.7322 242.33 82.2222 242.04 83.8222 242.04C85.4222 242.04 86.9022 242.33 88.2622 242.91C89.6422 243.49 90.8322 244.29 91.8322 245.31C92.8322 246.31 93.6122 247.5 94.1722 248.88C94.7522 250.24 95.0422 251.7 95.0422 253.26C95.0422 254.82 94.7522 256.29 94.1722 257.67C93.6122 259.03 92.8322 260.22 91.8322 261.24C90.8322 262.24 89.6422 263.03 88.2622 263.61C86.9022 264.19 85.4222 264.48 83.8222 264.48ZM83.8222 260.64C84.8222 260.64 85.7522 260.46 86.6122 260.1C87.4922 259.74 88.2522 259.24 88.8922 258.6C89.5522 257.96 90.0622 257.19 90.4222 256.29C90.8022 255.37 90.9922 254.36 90.9922 253.26C90.9922 252.16 90.8022 251.16 90.4222 250.26C90.0622 249.34 89.5522 248.56 88.8922 247.92C88.2522 247.28 87.4922 246.78 86.6122 246.42C85.7522 246.06 84.8222 245.88 83.8222 245.88C82.8222 245.88 81.8822 246.06 81.0022 246.42C80.1422 246.78 79.3822 247.28 78.7222 247.92C78.0822 248.56 77.5722 249.34 77.1922 250.26C76.8322 251.16 76.6522 252.16 76.6522 253.26C76.6522 254.36 76.8322 255.37 77.1922 256.29C77.5722 257.19 78.0822 257.96 78.7222 258.6C79.3822 259.24 80.1422 259.74 81.0022 260.1C81.8822 260.46 82.8222 260.64 83.8222 260.64ZM101.08 254.79V264H98.3202V242.52H110.86V245.16H101.08V252.21H109.9V254.79H101.08ZM116.754 254.79V264H113.994V242.52H126.534V245.16H116.754V252.21H125.574V254.79H116.754Z" fill="#555185"/>
<path d="M69.1618 546V523.74L64.0798 525.882L62.0638 521.22L70.5058 517.272H74.6638V546H69.1618ZM90.4807 546.672C89.3887 546.672 88.2967 546.518 87.2047 546.21C86.1407 545.902 85.1467 545.426 84.2227 544.782C83.2987 544.138 82.4867 543.34 81.7867 542.388C81.1147 541.408 80.6107 540.246 80.2747 538.902L85.2727 536.97C85.5807 538.37 86.1687 539.49 87.0367 540.33C87.9327 541.17 89.0667 541.59 90.4387 541.59C91.1107 541.59 91.7267 541.478 92.2867 541.254C92.8747 541.002 93.3787 540.666 93.7987 540.246C94.2467 539.826 94.5827 539.336 94.8067 538.776C95.0587 538.188 95.1847 537.544 95.1847 536.844C95.1847 536.172 95.0587 535.556 94.8067 534.996C94.5827 534.408 94.2607 533.904 93.8407 533.484C93.4207 533.036 92.9167 532.7 92.3287 532.476C91.7687 532.224 91.1387 532.098 90.4387 532.098C89.5707 532.098 88.8007 532.294 88.1287 532.686C87.4567 533.05 86.8827 533.512 86.4067 534.072L81.0727 531.636L82.7527 517.272H98.9227V522.102H87.3307L86.2387 528.822L86.5747 528.906C87.1347 528.43 87.8207 528.024 88.6327 527.688C89.4447 527.352 90.4247 527.184 91.5727 527.184C92.7767 527.184 93.9247 527.422 95.0167 527.898C96.1087 528.346 97.0747 528.99 97.9147 529.83C98.7547 530.67 99.4267 531.692 99.9307 532.896C100.435 534.072 100.687 535.388 100.687 536.844C100.687 538.272 100.435 539.588 99.9307 540.792C99.4267 541.996 98.7127 543.032 97.7887 543.9C96.8927 544.768 95.8147 545.454 94.5547 545.958C93.3227 546.434 91.9647 546.672 90.4807 546.672ZM103.646 523.782C103.646 522.802 103.828 521.878 104.192 521.01C104.584 520.142 105.102 519.386 105.746 518.742C106.418 518.07 107.202 517.552 108.098 517.188C108.994 516.796 109.974 516.6 111.038 516.6C112.102 516.6 113.082 516.796 113.978 517.188C114.902 517.552 115.686 518.07 116.33 518.742C117.002 519.386 117.52 520.142 117.884 521.01C118.276 521.878 118.472 522.802 118.472 523.782C118.472 524.762 118.276 525.7 117.884 526.596C117.52 527.464 117.002 528.22 116.33 528.864C115.686 529.508 114.902 530.026 113.978 530.418C113.082 530.782 112.102 530.964 111.038 530.964C109.974 530.964 108.994 530.782 108.098 530.418C107.202 530.026 106.418 529.508 105.746 528.864C105.102 528.22 104.584 527.464 104.192 526.596C103.828 525.7 103.646 524.762 103.646 523.782ZM108.14 523.782C108.14 524.706 108.42 525.448 108.98 526.008C109.54 526.568 110.226 526.848 111.038 526.848C111.85 526.848 112.536 526.568 113.096 526.008C113.656 525.448 113.936 524.706 113.936 523.782C113.936 522.858 113.656 522.116 113.096 521.556C112.536 520.996 111.85 520.716 111.038 520.716C110.226 520.716 109.54 520.996 108.98 521.556C108.42 522.116 108.14 522.858 108.14 523.782ZM108.98 544.446L127.628 516.6L130.946 518.826L112.298 546.672L108.98 544.446ZM121.454 539.49C121.454 538.51 121.636 537.586 122 536.718C122.392 535.85 122.91 535.094 123.554 534.45C124.226 533.778 125.01 533.26 125.906 532.896C126.802 532.504 127.782 532.308 128.846 532.308C129.91 532.308 130.89 532.504 131.786 532.896C132.71 533.26 133.494 533.778 134.138 534.45C134.81 535.094 135.328 535.85 135.692 536.718C136.084 537.586 136.28 538.51 136.28 539.49C136.28 540.47 136.084 541.408 135.692 542.304C135.328 543.172 134.81 543.928 134.138 544.572C133.494 545.216 132.71 545.72 131.786 546.084C130.89 546.476 129.91 546.672 128.846 546.672C127.782 546.672 126.802 546.476 125.906 546.084C125.01 545.72 124.226 545.216 123.554 544.572C122.91 543.928 122.392 543.172 122 542.304C121.636 541.408 121.454 540.47 121.454 539.49ZM125.948 539.49C125.948 540.414 126.228 541.156 126.788 541.716C127.348 542.276 128.034 542.556 128.846 542.556C129.658 542.556 130.344 542.276 130.904 541.716C131.464 541.156 131.744 540.414 131.744 539.49C131.744 538.566 131.464 537.824 130.904 537.264C130.344 536.704 129.658 536.424 128.846 536.424C128.034 536.424 127.348 536.704 126.788 537.264C126.228 537.824 125.948 538.566 125.948 539.49Z" fill="#17214D"/>
<path d="M83.3222 582.48C81.7222 582.48 80.2322 582.19 78.8522 581.61C77.4922 581.03 76.3122 580.24 75.3122 579.24C74.3122 578.22 73.5222 577.03 72.9422 575.67C72.3822 574.29 72.1022 572.82 72.1022 571.26C72.1022 569.7 72.3822 568.24 72.9422 566.88C73.5222 565.5 74.3122 564.31 75.3122 563.31C76.3122 562.29 77.4922 561.49 78.8522 560.91C80.2322 560.33 81.7222 560.04 83.3222 560.04C84.9222 560.04 86.4022 560.33 87.7622 560.91C89.1422 561.49 90.3322 562.29 91.3322 563.31C92.3322 564.31 93.1122 565.5 93.6722 566.88C94.2522 568.24 94.5422 569.7 94.5422 571.26C94.5422 572.82 94.2522 574.29 93.6722 575.67C93.1122 577.03 92.3322 578.22 91.3322 579.24C90.3322 580.24 89.1422 581.03 87.7622 581.61C86.4022 582.19 84.9222 582.48 83.3222 582.48ZM83.3222 578.64C84.3222 578.64 85.2522 578.46 86.1122 578.1C86.9922 577.74 87.7522 577.24 88.3922 576.6C89.0522 575.96 89.5622 575.19 89.9222 574.29C90.3022 573.37 90.4922 572.36 90.4922 571.26C90.4922 570.16 90.3022 569.16 89.9222 568.26C89.5622 567.34 89.0522 566.56 88.3922 565.92C87.7522 565.28 86.9922 564.78 86.1122 564.42C85.2522 564.06 84.3222 563.88 83.3222 563.88C82.3222 563.88 81.3822 564.06 80.5022 564.42C79.6422 564.78 78.8822 565.28 78.2222 565.92C77.5822 566.56 77.0722 567.34 76.6922 568.26C76.3322 569.16 76.1522 570.16 76.1522 571.26C76.1522 572.36 76.3322 573.37 76.6922 574.29C77.0722 575.19 77.5822 575.96 78.2222 576.6C78.8822 577.24 79.6422 577.74 80.5022 578.1C81.3822 578.46 82.3222 578.64 83.3222 578.64ZM100.58 572.79V582H97.8202V560.52H110.36V563.16H100.58V570.21H109.4V572.79H100.58ZM116.254 572.79V582H113.494V560.52H126.034V563.16H116.254V570.21H125.074V572.79H116.254Z" fill="#555185"/>
<path d="M58.4271 705V700.002C60.0791 698.378 61.6051 696.866 63.0051 695.466C63.5931 694.878 64.1951 694.276 64.8111 693.66C65.4271 693.044 66.0011 692.47 66.5331 691.938C67.0651 691.406 67.5411 690.93 67.9611 690.51C68.3811 690.062 68.7031 689.712 68.9271 689.46C69.3751 688.928 69.7671 688.452 70.1031 688.032C70.4671 687.612 70.7471 687.206 70.9431 686.814C71.1671 686.394 71.3351 685.988 71.4471 685.596C71.5591 685.176 71.6151 684.728 71.6151 684.252C71.6151 683.328 71.2511 682.53 70.5231 681.858C69.7951 681.158 68.8011 680.808 67.5411 680.808C66.2811 680.808 65.3011 681.172 64.6011 681.9C63.9011 682.6 63.4251 683.398 63.1731 684.294L58.1751 682.236C58.3991 681.48 58.7631 680.71 59.2671 679.926C59.7711 679.114 60.4151 678.4 61.1991 677.784C61.9831 677.14 62.9071 676.622 63.9711 676.23C65.0631 675.81 66.2811 675.6 67.6251 675.6C69.0811 675.6 70.3971 675.824 71.5731 676.272C72.7491 676.692 73.7431 677.28 74.5551 678.036C75.3671 678.792 75.9971 679.688 76.4451 680.724C76.8931 681.732 77.1171 682.824 77.1171 684C77.1171 685.792 76.6691 687.444 75.7731 688.956C74.9051 690.44 73.8411 691.826 72.5811 693.114L68.9691 696.726C68.0171 697.678 66.9391 698.742 65.7351 699.918L65.9031 700.17H77.5371V705H58.4271ZM93.2838 705.672C91.4358 705.672 89.7698 705.294 88.2858 704.538C86.8018 703.754 85.5278 702.69 84.4638 701.346C83.4278 700.002 82.6298 698.42 82.0698 696.6C81.5098 694.752 81.2298 692.764 81.2298 690.636C81.2298 688.508 81.5098 686.534 82.0698 684.714C82.6298 682.866 83.4278 681.27 84.4638 679.926C85.5278 678.582 86.8018 677.532 88.2858 676.776C89.7698 675.992 91.4358 675.6 93.2838 675.6C95.1318 675.6 96.7978 675.992 98.2818 676.776C99.7658 677.532 101.026 678.582 102.062 679.926C103.126 681.27 103.938 682.866 104.498 684.714C105.058 686.534 105.338 688.508 105.338 690.636C105.338 692.764 105.058 694.752 104.498 696.6C103.938 698.42 103.126 700.002 102.062 701.346C101.026 702.69 99.7658 703.754 98.2818 704.538C96.7978 705.294 95.1318 705.672 93.2838 705.672ZM93.2838 700.464C94.2918 700.464 95.2018 700.226 96.0138 699.75C96.8258 699.246 97.5118 698.56 98.0718 697.692C98.6598 696.796 99.0938 695.746 99.3738 694.542C99.6818 693.338 99.8358 692.036 99.8358 690.636C99.8358 689.208 99.6818 687.906 99.3738 686.73C99.0938 685.526 98.6598 684.49 98.0718 683.622C97.5118 682.726 96.8258 682.04 96.0138 681.564C95.2018 681.06 94.2918 680.808 93.2838 680.808C92.2478 680.808 91.3238 681.06 90.5118 681.564C89.6998 682.04 89.0138 682.726 88.4538 683.622C87.8938 684.49 87.4598 685.526 87.1518 686.73C86.8718 687.906 86.7318 689.208 86.7318 690.636C86.7318 692.036 86.8718 693.338 87.1518 694.542C87.4598 695.746 87.8938 696.796 88.4538 697.692C89.0138 698.56 89.6998 699.246 90.5118 699.75C91.3238 700.226 92.2478 700.464 93.2838 700.464ZM108.534 682.782C108.534 681.802 108.716 680.878 109.08 680.01C109.472 679.142 109.99 678.386 110.634 677.742C111.306 677.07 112.09 676.552 112.986 676.188C113.882 675.796 114.862 675.6 115.926 675.6C116.99 675.6 117.97 675.796 118.866 676.188C119.79 676.552 120.574 677.07 121.218 677.742C121.89 678.386 122.408 679.142 122.772 680.01C123.164 680.878 123.36 681.802 123.36 682.782C123.36 683.762 123.164 684.7 122.772 685.596C122.408 686.464 121.89 687.22 121.218 687.864C120.574 688.508 119.79 689.026 118.866 689.418C117.97 689.782 116.99 689.964 115.926 689.964C114.862 689.964 113.882 689.782 112.986 689.418C112.09 689.026 111.306 688.508 110.634 687.864C109.99 687.22 109.472 686.464 109.08 685.596C108.716 684.7 108.534 683.762 108.534 682.782ZM113.028 682.782C113.028 683.706 113.308 684.448 113.868 685.008C114.428 685.568 115.114 685.848 115.926 685.848C116.738 685.848 117.424 685.568 117.984 685.008C118.544 684.448 118.824 683.706 118.824 682.782C118.824 681.858 118.544 681.116 117.984 680.556C117.424 679.996 116.738 679.716 115.926 679.716C115.114 679.716 114.428 679.996 113.868 680.556C113.308 681.116 113.028 681.858 113.028 682.782ZM113.868 703.446L132.516 675.6L135.834 677.826L117.186 705.672L113.868 703.446ZM126.342 698.49C126.342 697.51 126.524 696.586 126.888 695.718C127.28 694.85 127.798 694.094 128.442 693.45C129.114 692.778 129.898 692.26 130.794 691.896C131.69 691.504 132.67 691.308 133.734 691.308C134.798 691.308 135.778 691.504 136.674 691.896C137.598 692.26 138.382 692.778 139.026 693.45C139.698 694.094 140.216 694.85 140.58 695.718C140.972 696.586 141.168 697.51 141.168 698.49C141.168 699.47 140.972 700.408 140.58 701.304C140.216 702.172 139.698 702.928 139.026 703.572C138.382 704.216 137.598 704.72 136.674 705.084C135.778 705.476 134.798 705.672 133.734 705.672C132.67 705.672 131.69 705.476 130.794 705.084C129.898 704.72 129.114 704.216 128.442 703.572C127.798 702.928 127.28 702.172 126.888 701.304C126.524 700.408 126.342 699.47 126.342 698.49ZM130.836 698.49C130.836 699.414 131.116 700.156 131.676 700.716C132.236 701.276 132.922 701.556 133.734 701.556C134.546 701.556 135.232 701.276 135.792 700.716C136.352 700.156 136.632 699.414 136.632 698.49C136.632 697.566 136.352 696.824 135.792 696.264C135.232 695.704 134.546 695.424 133.734 695.424C132.922 695.424 132.236 695.704 131.676 696.264C131.116 696.824 130.836 697.566 130.836 698.49Z" fill="#17214D"/>
<path d="M83.8222 741.48C82.2222 741.48 80.7322 741.19 79.3522 740.61C77.9922 740.03 76.8122 739.24 75.8122 738.24C74.8122 737.22 74.0222 736.03 73.4422 734.67C72.8822 733.29 72.6022 731.82 72.6022 730.26C72.6022 728.7 72.8822 727.24 73.4422 725.88C74.0222 724.5 74.8122 723.31 75.8122 722.31C76.8122 721.29 77.9922 720.49 79.3522 719.91C80.7322 719.33 82.2222 719.04 83.8222 719.04C85.4222 719.04 86.9022 719.33 88.2622 719.91C89.6422 720.49 90.8322 721.29 91.8322 722.31C92.8322 723.31 93.6122 724.5 94.1722 725.88C94.7522 727.24 95.0422 728.7 95.0422 730.26C95.0422 731.82 94.7522 733.29 94.1722 734.67C93.6122 736.03 92.8322 737.22 91.8322 738.24C90.8322 739.24 89.6422 740.03 88.2622 740.61C86.9022 741.19 85.4222 741.48 83.8222 741.48ZM83.8222 737.64C84.8222 737.64 85.7522 737.46 86.6122 737.1C87.4922 736.74 88.2522 736.24 88.8922 735.6C89.5522 734.96 90.0622 734.19 90.4222 733.29C90.8022 732.37 90.9922 731.36 90.9922 730.26C90.9922 729.16 90.8022 728.16 90.4222 727.26C90.0622 726.34 89.5522 725.56 88.8922 724.92C88.2522 724.28 87.4922 723.78 86.6122 723.42C85.7522 723.06 84.8222 722.88 83.8222 722.88C82.8222 722.88 81.8822 723.06 81.0022 723.42C80.1422 723.78 79.3822 724.28 78.7222 724.92C78.0822 725.56 77.5722 726.34 77.1922 727.26C76.8322 728.16 76.6522 729.16 76.6522 730.26C76.6522 731.36 76.8322 732.37 77.1922 733.29C77.5722 734.19 78.0822 734.96 78.7222 735.6C79.3822 736.24 80.1422 736.74 81.0022 737.1C81.8822 737.46 82.8222 737.64 83.8222 737.64ZM101.08 731.79V741H98.3202V719.52H110.86V722.16H101.08V729.21H109.9V731.79H101.08ZM116.754 731.79V741H113.994V719.52H126.534V722.16H116.754V729.21H125.574V731.79H116.754Z" fill="#555185"/>
<path d="M60.399 386V367.45L56.164 369.235L54.484 365.35L61.519 362.06H64.984V386H60.399ZM69.8698 386V381.835C71.2464 380.482 72.5181 379.222 73.6848 378.055C74.1748 377.565 74.6764 377.063 75.1898 376.55C75.7031 376.037 76.1814 375.558 76.6248 375.115C77.0681 374.672 77.4648 374.275 77.8148 373.925C78.1648 373.552 78.4331 373.26 78.6198 373.05C78.9931 372.607 79.3198 372.21 79.5998 371.86C79.9031 371.51 80.1364 371.172 80.2998 370.845C80.4864 370.495 80.6264 370.157 80.7198 369.83C80.8131 369.48 80.8598 369.107 80.8598 368.71C80.8598 367.94 80.5564 367.275 79.9498 366.715C79.3431 366.132 78.5148 365.84 77.4648 365.84C76.4148 365.84 75.5981 366.143 75.0148 366.75C74.4314 367.333 74.0348 367.998 73.8248 368.745L69.6598 367.03C69.8464 366.4 70.1498 365.758 70.5698 365.105C70.9898 364.428 71.5264 363.833 72.1798 363.32C72.8331 362.783 73.6031 362.352 74.4898 362.025C75.3998 361.675 76.4148 361.5 77.5348 361.5C78.7481 361.5 79.8448 361.687 80.8248 362.06C81.8048 362.41 82.6331 362.9 83.3098 363.53C83.9864 364.16 84.5114 364.907 84.8848 365.77C85.2581 366.61 85.4448 367.52 85.4448 368.5C85.4448 369.993 85.0714 371.37 84.3248 372.63C83.6014 373.867 82.7148 375.022 81.6648 376.095L78.6548 379.105C77.8614 379.898 76.9631 380.785 75.9598 381.765L76.0998 381.975H85.7948V386H69.8698ZM92.057 386.21C91.217 386.21 90.4937 385.918 89.887 385.335C89.3037 384.728 89.012 384.005 89.012 383.165C89.012 382.325 89.3037 381.613 89.887 381.03C90.4937 380.447 91.217 380.155 92.057 380.155C92.897 380.155 93.6087 380.447 94.192 381.03C94.7754 381.613 95.067 382.325 95.067 383.165C95.067 384.005 94.7754 384.728 94.192 385.335C93.6087 385.918 92.897 386.21 92.057 386.21ZM106.636 386.56C105.726 386.56 104.816 386.432 103.906 386.175C103.02 385.918 102.191 385.522 101.421 384.985C100.651 384.448 99.9748 383.783 99.3914 382.99C98.8314 382.173 98.4114 381.205 98.1314 380.085L102.296 378.475C102.553 379.642 103.043 380.575 103.766 381.275C104.513 381.975 105.458 382.325 106.601 382.325C107.161 382.325 107.675 382.232 108.141 382.045C108.631 381.835 109.051 381.555 109.401 381.205C109.775 380.855 110.055 380.447 110.241 379.98C110.451 379.49 110.556 378.953 110.556 378.37C110.556 377.81 110.451 377.297 110.241 376.83C110.055 376.34 109.786 375.92 109.436 375.57C109.086 375.197 108.666 374.917 108.176 374.73C107.71 374.52 107.185 374.415 106.601 374.415C105.878 374.415 105.236 374.578 104.676 374.905C104.116 375.208 103.638 375.593 103.241 376.06L98.7964 374.03L100.196 362.06H113.671V366.085H104.011L103.101 371.685L103.381 371.755C103.848 371.358 104.42 371.02 105.096 370.74C105.773 370.46 106.59 370.32 107.546 370.32C108.55 370.32 109.506 370.518 110.416 370.915C111.326 371.288 112.131 371.825 112.831 372.525C113.531 373.225 114.091 374.077 114.511 375.08C114.931 376.06 115.141 377.157 115.141 378.37C115.141 379.56 114.931 380.657 114.511 381.66C114.091 382.663 113.496 383.527 112.726 384.25C111.98 384.973 111.081 385.545 110.031 385.965C109.005 386.362 107.873 386.56 106.636 386.56ZM117.607 367.485C117.607 366.668 117.759 365.898 118.062 365.175C118.389 364.452 118.821 363.822 119.357 363.285C119.917 362.725 120.571 362.293 121.317 361.99C122.064 361.663 122.881 361.5 123.767 361.5C124.654 361.5 125.471 361.663 126.217 361.99C126.987 362.293 127.641 362.725 128.177 363.285C128.737 363.822 129.169 364.452 129.472 365.175C129.799 365.898 129.962 366.668 129.962 367.485C129.962 368.302 129.799 369.083 129.472 369.83C129.169 370.553 128.737 371.183 128.177 371.72C127.641 372.257 126.987 372.688 126.217 373.015C125.471 373.318 124.654 373.47 123.767 373.47C122.881 373.47 122.064 373.318 121.317 373.015C120.571 372.688 119.917 372.257 119.357 371.72C118.821 371.183 118.389 370.553 118.062 369.83C117.759 369.083 117.607 368.302 117.607 367.485ZM121.352 367.485C121.352 368.255 121.586 368.873 122.052 369.34C122.519 369.807 123.091 370.04 123.767 370.04C124.444 370.04 125.016 369.807 125.482 369.34C125.949 368.873 126.182 368.255 126.182 367.485C126.182 366.715 125.949 366.097 125.482 365.63C125.016 365.163 124.444 364.93 123.767 364.93C123.091 364.93 122.519 365.163 122.052 365.63C121.586 366.097 121.352 366.715 121.352 367.485ZM122.052 384.705L137.592 361.5L140.357 363.355L124.817 386.56L122.052 384.705ZM132.447 380.575C132.447 379.758 132.599 378.988 132.902 378.265C133.229 377.542 133.661 376.912 134.197 376.375C134.757 375.815 135.411 375.383 136.157 375.08C136.904 374.753 137.721 374.59 138.607 374.59C139.494 374.59 140.311 374.753 141.057 375.08C141.827 375.383 142.481 375.815 143.017 376.375C143.577 376.912 144.009 377.542 144.312 378.265C144.639 378.988 144.802 379.758 144.802 380.575C144.802 381.392 144.639 382.173 144.312 382.92C144.009 383.643 143.577 384.273 143.017 384.81C142.481 385.347 141.827 385.767 141.057 386.07C140.311 386.397 139.494 386.56 138.607 386.56C137.721 386.56 136.904 386.397 136.157 386.07C135.411 385.767 134.757 385.347 134.197 384.81C133.661 384.273 133.229 383.643 132.902 382.92C132.599 382.173 132.447 381.392 132.447 380.575ZM136.192 380.575C136.192 381.345 136.426 381.963 136.892 382.43C137.359 382.897 137.931 383.13 138.607 383.13C139.284 383.13 139.856 382.897 140.322 382.43C140.789 381.963 141.022 381.345 141.022 380.575C141.022 379.805 140.789 379.187 140.322 378.72C139.856 378.253 139.284 378.02 138.607 378.02C137.931 378.02 137.359 378.253 136.892 378.72C136.426 379.187 136.192 379.805 136.192 380.575ZM83.8222 422.48C82.2222 422.48 80.7322 422.19 79.3522 421.61C77.9922 421.03 76.8122 420.24 75.8122 419.24C74.8122 418.22 74.0222 417.03 73.4422 415.67C72.8822 414.29 72.6022 412.82 72.6022 411.26C72.6022 409.7 72.8822 408.24 73.4422 406.88C74.0222 405.5 74.8122 404.31 75.8122 403.31C76.8122 402.29 77.9922 401.49 79.3522 400.91C80.7322 400.33 82.2222 400.04 83.8222 400.04C85.4222 400.04 86.9022 400.33 88.2622 400.91C89.6422 401.49 90.8322 402.29 91.8322 403.31C92.8322 404.31 93.6122 405.5 94.1722 406.88C94.7522 408.24 95.0422 409.7 95.0422 411.26C95.0422 412.82 94.7522 414.29 94.1722 415.67C93.6122 417.03 92.8322 418.22 91.8322 419.24C90.8322 420.24 89.6422 421.03 88.2622 421.61C86.9022 422.19 85.4222 422.48 83.8222 422.48ZM83.8222 418.64C84.8222 418.64 85.7522 418.46 86.6122 418.1C87.4922 417.74 88.2522 417.24 88.8922 416.6C89.5522 415.96 90.0622 415.19 90.4222 414.29C90.8022 413.37 90.9922 412.36 90.9922 411.26C90.9922 410.16 90.8022 409.16 90.4222 408.26C90.0622 407.34 89.5522 406.56 88.8922 405.92C88.2522 405.28 87.4922 404.78 86.6122 404.42C85.7522 404.06 84.8222 403.88 83.8222 403.88C82.8222 403.88 81.8822 404.06 81.0022 404.42C80.1422 404.78 79.3822 405.28 78.7222 405.92C78.0822 406.56 77.5722 407.34 77.1922 408.26C76.8322 409.16 76.6522 410.16 76.6522 411.26C76.6522 412.36 76.8322 413.37 77.1922 414.29C77.5722 415.19 78.0822 415.96 78.7222 416.6C79.3822 417.24 80.1422 417.74 81.0022 418.1C81.8822 418.46 82.8222 418.64 83.8222 418.64ZM101.08 412.79V422H98.3202V400.52H110.86V403.16H101.08V410.21H109.9V412.79H101.08ZM116.754 412.79V422H113.994V400.52H126.534V403.16H116.754V410.21H125.574V412.79H116.754Z" fill="#17214D"/>
</svg>
