<svg width="25" height="24" viewBox="0 0 25 24" fill="none" xmlns="http://www.w3.org/2000/svg">
<g id="Group">
<path id="Vector" d="M6.19229 4.09738C6.44723 4.09738 6.65627 4.09738 6.86628 4.09738C12.35 4.09738 17.8347 4.09738 23.3184 4.09738C23.4971 4.09738 23.6769 4.09148 23.8556 4.10131C24.6654 4.14458 25.1284 4.73468 24.9692 5.53622C24.388 8.47291 23.8107 11.4106 23.2139 14.3443C22.8476 16.1461 21.7037 17.0863 19.883 17.0902C16.1399 17.0991 12.3969 17.0991 8.65478 17.0902C6.83014 17.0863 5.61989 15.9592 5.36202 14.1329C4.82478 10.3238 4.25922 6.51872 3.71319 2.71165C3.66631 2.38611 3.51979 2.26318 3.1994 2.26908C2.53225 2.28285 1.8651 2.2799 1.19796 2.27006C0.497596 2.26023 0.0179914 1.81274 0.000409191 1.17446C-0.0161963 0.521423 0.474153 0.0277134 1.18819 0.0139446C1.93641 -0.000807671 2.68659 -0.00965904 3.43383 0.0178786C4.68803 0.0641024 5.62087 0.86466 5.86702 2.09992C5.994 2.74115 6.07801 3.39025 6.19229 4.09738Z" fill="#17214D"/>
<path id="Vector_2" d="M18.944 23.9992C17.3411 24.0002 16.0254 22.6764 16.0254 21.0625C16.0264 19.4555 17.3636 18.1179 18.9528 18.1337C20.5382 18.1494 21.8334 19.4535 21.85 21.0477C21.8656 22.6508 20.5391 23.9982 18.944 23.9992Z" fill="#17214D"/>
<path id="Vector_3" d="M6.11915 21.0733C6.11622 19.4849 7.39288 18.1553 8.93524 18.1395C10.4922 18.1238 11.8148 19.4682 11.8168 21.0664C11.8187 22.6488 10.5323 23.9864 8.99384 24.0001C7.43195 24.0139 6.12208 22.6803 6.11915 21.0733Z" fill="#17214D"/>
</g>
</svg>
