<svg width="1111" height="255" viewBox="0 0 1111 255" fill="none" xmlns="http://www.w3.org/2000/svg">
<rect x="34.7031" y="21.2754" width="141.203" height="66.8868" rx="3" fill="#212A37"/>
<path d="M35.9232 0V0.0128751C16.2727 0.187977 0 16.5343 0 36.1972V163.576C0 183.342 16.4532 199.755 36.2327 199.76H163.771C183.546 199.76 199.994 183.342 199.994 163.576V118.462V116.051H195.175C193.504 143.584 205.788 193.168 163.769 194.937H36.2301C19.1297 194.937 4.82174 180.661 4.82174 163.574V36.1946C4.77017 18.154 20.7103 3.62564 38.6461 4.82303C40.2886 4.75093 43.999 4.87453 45.577 4.82303V0.00257503C42.782 0 38.7131 0.00772509 35.9232 0ZM60.0448 0V4.82045C62.7393 4.82045 67.0041 4.82045 69.696 4.82045V0C67.0041 0 62.7393 0 60.0448 0ZM84.169 0V4.82045C86.8635 4.82045 91.1283 4.82045 93.8228 4.82045V0C91.1257 0 86.8609 0 84.169 0ZM108.301 0V4.82045C110.995 4.82045 115.26 4.82045 117.952 4.82045V0C115.258 0 110.995 0 108.301 0ZM132.42 0V4.82045C135.114 4.82045 139.379 4.82045 142.071 4.82045V0C139.379 0 135.114 0 132.42 0ZM156.544 0V4.82045C206.891 2.42568 193.493 51.1014 195.198 83.7168H200.022C198.924 53.6147 209.712 4.10975 166.188 0.0927011V0C163.166 0 159.566 0 156.544 0ZM197.823 89.4565C196.564 89.4282 195.288 89.6265 194.048 90.0745C189.035 91.8873 186.181 97.2511 187.488 102.427C189.948 112.871 205.489 112.681 207.755 102.283H277.938H280.354V97.47H277.938H207.825L208.023 97.3747C206.37 93.0049 202.57 89.4282 197.823 89.4565ZM197.738 94.2692C204.679 94.5963 205.195 104.438 198.261 105.45C190.394 106.161 189.837 94.3027 197.738 94.2692Z" fill="white"/>
<path opacity="0.45" d="M36.237 19.2407C26.8308 19.2407 19.2578 26.801 19.2578 36.1921V163.571C19.2578 168.268 21.1504 172.504 24.2188 175.568L103.757 255H163.781C251.949 249.472 260.26 175.017 255.33 103.622L175.797 24.1925C172.728 21.1282 168.484 19.2407 163.784 19.2407H36.237Z" fill="url(#paint0_linear_3598_104)"/>
<path d="M35.9766 19H163.523C172.927 19 180.5 26.5603 180.5 35.954V163.33C180.5 172.721 172.929 180.284 163.523 180.284H35.9766C26.573 180.284 19 172.724 19 163.33V35.9514C19 26.5603 26.573 19 35.9766 19Z" fill="white"/>
<path d="M320.884 0C275.067 1.82055 285.546 52.7778 284.643 83.7168H289.467C291.141 56.0919 278.849 6.61268 320.884 4.82046H448.422C465.536 4.82046 479.838 19.1016 479.838 36.1946V81.3066V83.7194H484.663V81.3066V36.1946C484.665 16.4261 468.217 0 448.425 0H320.884ZM287.057 89.4514C273.339 89.7269 273.331 110.036 287.057 110.304C300.769 110.036 300.759 89.7217 287.057 89.4514ZM482.254 89.4514C476.517 89.4514 471.809 94.156 471.809 99.8828C471.752 112.068 489.722 114.051 492.398 102.283H562.584H564.998V97.47H562.584H492.396C491.295 92.8942 487.159 89.4514 482.254 89.4514ZM287.057 94.2718C294.4 94.2718 294.408 105.489 287.057 105.486C279.695 105.486 279.705 94.2744 287.057 94.2718ZM482.254 94.2718C489.598 94.2718 489.606 105.489 482.254 105.486C474.893 105.486 474.901 94.2744 482.254 94.2718ZM284.646 116.049C285.659 146.522 275 196.637 319.517 199.724V199.753C319.976 199.737 321.639 199.802 322.124 199.817V199.753C323.707 199.753 327.631 199.753 329.166 199.753V194.935C277.485 197.543 291.249 149.73 289.467 116.049H284.646ZM479.841 116.049C478.168 149.607 491.594 197.749 440.13 194.935V199.753C441.334 199.753 443.753 199.753 444.954 199.753C446.326 199.753 448.417 199.753 449.771 199.753V199.719C494.322 196.627 483.639 146.511 484.658 116.046L479.841 116.049ZM343.636 194.935V199.753C346.33 199.753 350.595 199.753 353.287 199.753V194.935C350.595 194.935 346.33 194.935 343.636 194.935ZM367.76 194.935V199.753C370.455 199.753 374.719 199.753 377.414 199.753V194.935C374.719 194.935 370.452 194.935 367.76 194.935ZM391.892 194.935V199.753C394.587 199.753 398.851 199.753 401.543 199.753V194.935C398.851 194.935 394.587 194.935 391.892 194.935ZM416.014 194.935V199.753C418.708 199.753 422.973 199.753 425.665 199.753V194.935C422.97 194.935 418.708 194.935 416.014 194.935Z" fill="white"/>
<path opacity="0.45" d="M320.882 19.2407C311.475 19.2407 303.902 26.801 303.902 36.1921V163.571C303.902 168.268 305.795 172.504 308.863 175.568L388.401 255H448.426C536.594 249.471 544.904 175.017 539.974 103.622L460.441 24.1925C457.373 21.1282 453.129 19.2407 448.428 19.2407H320.882Z" fill="url(#paint1_linear_3598_104)"/>
<path d="M320.977 19H448.523C457.927 19 465.5 26.5603 465.5 35.954V163.33C465.5 172.721 457.929 180.284 448.523 180.284H320.977C311.573 180.284 304 172.724 304 163.33V35.9514C304 26.5603 311.573 19 320.977 19Z" fill="white"/>
<path d="M360.921 112.562C362.412 113.515 363.157 114.885 363.157 116.67C363.157 118.247 362.594 119.53 361.467 120.518C360.34 121.506 358.945 122 357.281 122H349.637V103.8H356.761C358.39 103.8 359.751 104.285 360.843 105.256C361.952 106.209 362.507 107.457 362.507 109C362.507 110.456 361.978 111.643 360.921 112.562ZM356.761 107.7H353.797V110.924H356.761C357.229 110.924 357.61 110.777 357.905 110.482C358.2 110.17 358.347 109.78 358.347 109.312C358.347 108.844 358.2 108.463 357.905 108.168C357.61 107.856 357.229 107.7 356.761 107.7ZM357.281 118.1C357.801 118.1 358.217 117.944 358.529 117.632C358.841 117.303 358.997 116.878 358.997 116.358C358.997 115.838 358.841 115.422 358.529 115.11C358.217 114.781 357.801 114.616 357.281 114.616H353.797V118.1H357.281ZM380.619 119.634C378.782 121.454 376.546 122.364 373.911 122.364C371.276 122.364 369.04 121.454 367.203 119.634C365.366 117.814 364.447 115.569 364.447 112.9C364.447 110.231 365.366 107.986 367.203 106.166C369.04 104.346 371.276 103.436 373.911 103.436C376.546 103.436 378.782 104.346 380.619 106.166C382.456 107.986 383.375 110.231 383.375 112.9C383.375 115.569 382.456 117.814 380.619 119.634ZM370.115 116.8C371.138 117.805 372.403 118.308 373.911 118.308C375.419 118.308 376.676 117.805 377.681 116.8C378.704 115.795 379.215 114.495 379.215 112.9C379.215 111.305 378.704 110.005 377.681 109C376.676 107.995 375.419 107.492 373.911 107.492C372.403 107.492 371.138 107.995 370.115 109C369.11 110.005 368.607 111.305 368.607 112.9C368.607 114.495 369.11 115.795 370.115 116.8ZM401.109 119.634C399.272 121.454 397.036 122.364 394.401 122.364C391.767 122.364 389.531 121.454 387.693 119.634C385.856 117.814 384.937 115.569 384.937 112.9C384.937 110.231 385.856 107.986 387.693 106.166C389.531 104.346 391.767 103.436 394.401 103.436C397.036 103.436 399.272 104.346 401.109 106.166C402.947 107.986 403.865 110.231 403.865 112.9C403.865 115.569 402.947 117.814 401.109 119.634ZM390.605 116.8C391.628 117.805 392.893 118.308 394.401 118.308C395.909 118.308 397.166 117.805 398.171 116.8C399.194 115.795 399.705 114.495 399.705 112.9C399.705 111.305 399.194 110.005 398.171 109C397.166 107.995 395.909 107.492 394.401 107.492C392.893 107.492 391.628 107.995 390.605 109C389.6 110.005 389.097 111.305 389.097 112.9C389.097 114.495 389.6 115.795 390.605 116.8ZM420.923 122H416.191L410.367 113.576V122H406.207V103.8H410.367V111.704L415.931 103.8H420.663L414.527 112.666L420.923 122Z" fill="#AAA8C2"/>
<path d="M367.28 88.18C367.28 89.4333 366.82 90.44 365.9 91.2C364.967 91.9467 363.833 92.32 362.5 92.32C361.313 92.32 360.267 91.9733 359.36 91.28C358.453 90.5867 357.827 89.64 357.48 88.44L359.24 87.72C359.36 88.1467 359.527 88.5333 359.74 88.88C359.953 89.2267 360.2 89.5267 360.48 89.78C360.773 90.02 361.093 90.2133 361.44 90.36C361.787 90.4933 362.153 90.56 362.54 90.56C363.38 90.56 364.067 90.3467 364.6 89.92C365.133 89.48 365.4 88.9 365.4 88.18C365.4 87.58 365.18 87.0667 364.74 86.64C364.327 86.2267 363.553 85.8267 362.42 85.44C361.273 85.0267 360.56 84.7467 360.28 84.6C358.76 83.8267 358 82.6867 358 81.18C358 80.1267 358.42 79.2267 359.26 78.48C360.113 77.7333 361.16 77.36 362.4 77.36C363.493 77.36 364.44 77.64 365.24 78.2C366.04 78.7467 366.573 79.4333 366.84 80.26L365.12 80.98C364.96 80.4467 364.64 80.0067 364.16 79.66C363.693 79.3 363.12 79.12 362.44 79.12C361.72 79.12 361.113 79.32 360.62 79.72C360.127 80.0933 359.88 80.58 359.88 81.18C359.88 81.6733 360.073 82.1 360.46 82.46C360.887 82.82 361.813 83.2467 363.24 83.74C364.693 84.2333 365.727 84.84 366.34 85.56C366.967 86.2667 367.28 87.14 367.28 88.18ZM374.179 79.44V92H372.339V79.44H368.339V77.68H378.179V79.44H374.179ZM388.46 77.68V79.44H381.94V83.98H387.82V85.7H381.94V90.24H388.46V92H380.1V77.68H388.46ZM392.78 86.2V92H390.94V77.68H395.82C397.06 77.68 398.113 78.0933 398.98 78.92C399.86 79.7467 400.3 80.7533 400.3 81.94C400.3 83.1533 399.86 84.1667 398.98 84.98C398.127 85.7933 397.073 86.2 395.82 86.2H392.78ZM392.78 79.44V84.44H395.86C396.593 84.44 397.2 84.1933 397.68 83.7C398.173 83.2067 398.42 82.62 398.42 81.94C398.42 81.2733 398.173 80.6933 397.68 80.2C397.2 79.6933 396.593 79.44 395.86 79.44H392.78ZM414.704 90.24V92H405.984V90.16L409.524 86.58C410.71 85.3667 411.53 84.46 411.984 83.86C412.437 83.2467 412.664 82.6067 412.664 81.94C412.664 81.34 412.43 80.8267 411.964 80.4C411.497 79.9733 410.897 79.76 410.164 79.76C409.537 79.76 408.997 79.9467 408.544 80.32C408.09 80.6933 407.797 81.1467 407.664 81.68L405.984 81C406.25 80.16 406.764 79.4533 407.524 78.88C408.284 78.2933 409.177 78 410.204 78C411.444 78 412.477 78.38 413.304 79.14C414.13 79.9 414.544 80.8333 414.544 81.94C414.544 83.26 413.817 84.6867 412.364 86.22L408.364 90.24H414.704Z" fill="#AAA8C2"/>
<path d="M606.763 0C606.23 0.0180252 604.665 0.0772509 604.154 0.0618007V0.0927011C559.616 3.19819 570.306 53.3134 569.283 83.7683H574.102C575.876 49.9942 562.14 2.29693 613.808 4.88226V0.0592257C612.292 0.0592257 608.331 0.0592257 606.766 0.0592257L606.763 0ZM628.276 0.0618007V4.88226C630.97 4.88226 635.235 4.88226 637.929 4.88226V0.0618007C635.235 0.0618007 630.97 0.0618007 628.276 0.0618007ZM652.4 0.0618007V4.88226C655.094 4.88226 659.359 4.88226 662.051 4.88226V0.0618007C659.356 0.0618007 655.092 0.0618007 652.4 0.0618007ZM676.532 0.0618007V4.88226C679.226 4.88226 683.491 4.88226 686.185 4.88226V0.0618007C683.491 0.0618007 679.224 0.0618007 676.532 0.0618007ZM700.651 0.0618007V4.88226C703.345 4.88226 707.61 4.88226 710.304 4.88226V0.0618007C707.61 0.0618007 703.345 0.0618007 700.651 0.0618007ZM724.775 0.0618007V4.88226C776.556 2.351 762.66 50.0199 764.483 83.7683H769.302C768.289 53.2928 778.946 3.17244 734.421 0.0978511V0.0618007C731.726 0.0618007 727.467 0.0618007 724.775 0.0618007ZM571.696 89.5157C557.974 89.7861 557.984 110.095 571.696 110.368C585.401 110.095 585.409 89.781 571.696 89.5157ZM766.892 89.5157C761.154 89.5157 756.446 94.2075 756.446 99.9369C756.616 111.906 773.498 114.414 776.321 102.35H777.327V102.296H847.219H849.632V97.4752H847.219C846.785 97.4752 776.667 97.4752 776.3 97.4752C775.086 93.0719 771.669 89.5132 766.892 89.5157ZM571.696 94.3336C579.048 94.3311 579.04 105.548 571.696 105.548C564.343 105.543 564.335 94.3311 571.696 94.3336ZM766.892 94.3336C774.243 94.3311 774.235 105.548 766.892 105.548C759.543 105.545 759.535 94.3311 766.892 94.3336ZM569.283 116.103C570.193 147.075 559.701 197.989 605.526 199.817C605.523 199.817 733.065 199.817 733.065 199.817C752.86 199.817 769.297 183.391 769.297 163.623V118.511V116.1H764.478C762.805 143.725 775.094 193.202 733.062 194.997H605.523C588.41 194.997 574.099 180.713 574.099 163.623V118.511V116.1L569.283 116.103Z" fill="white"/>
<path opacity="0.45" d="M605.522 19.2407C596.116 19.2407 588.543 26.801 588.543 36.1921V163.571C588.543 168.268 590.436 172.504 593.504 175.568L673.042 255H733.066C821.234 249.471 829.545 175.017 824.615 103.622L745.079 24.1925C742.011 21.1282 737.767 19.2407 733.066 19.2407H605.522Z" fill="url(#paint2_linear_3598_104)"/>
<path d="M605.723 19.146H733.269C742.676 19.146 750.246 26.7063 750.246 36.1V163.476C750.246 172.867 742.676 180.43 733.269 180.43H605.723C596.319 180.43 588.746 172.87 588.746 163.476V36.0974C588.746 26.7063 596.317 19.146 605.723 19.146Z" fill="white"/>
<path d="M629.141 103.8C631.654 103.8 633.751 104.675 635.433 106.426C637.131 108.159 637.981 110.317 637.981 112.9C637.981 115.483 637.131 117.649 635.433 119.4C633.751 121.133 631.654 122 629.141 122H621.861V103.8H629.141ZM629.141 117.996C630.579 117.996 631.741 117.537 632.625 116.618C633.526 115.682 633.977 114.443 633.977 112.9C633.977 111.357 633.526 110.127 632.625 109.208C631.741 108.272 630.579 107.804 629.141 107.804H626.021V117.996H629.141ZM644.48 117.996H651.76V122H640.32V103.8H651.63V107.804H644.48V110.82H650.98V114.772H644.48V117.996ZM666.327 103.8V107.804H661.647V122H657.487V107.804H652.807V103.8H666.327ZM678.423 122L677.513 119.14H670.753L669.843 122H665.293L671.481 103.8H676.785L682.973 122H678.423ZM672.001 115.24H676.265L674.133 108.558L672.001 115.24ZM684.525 103.8H688.685V122H684.525V103.8ZM695.972 117.996H702.472V122H691.812V103.8H695.972V117.996ZM710.42 122.364C708.566 122.364 707.014 121.965 705.766 121.168C704.536 120.353 703.66 119.253 703.14 117.866L706.728 115.786C707.456 117.467 708.73 118.308 710.55 118.308C712.197 118.308 713.02 117.814 713.02 116.826C713.02 116.289 712.752 115.873 712.214 115.578C711.694 115.266 710.706 114.911 709.25 114.512C708.488 114.304 707.82 114.07 707.248 113.81C706.676 113.55 706.113 113.212 705.558 112.796C705.021 112.363 704.605 111.825 704.31 111.184C704.033 110.543 703.894 109.806 703.894 108.974C703.894 107.293 704.492 105.949 705.688 104.944C706.902 103.939 708.34 103.436 710.004 103.436C711.495 103.436 712.812 103.791 713.956 104.502C715.1 105.195 716.002 106.209 716.66 107.544L713.15 109.598C712.821 108.905 712.414 108.385 711.928 108.038C711.443 107.674 710.802 107.492 710.004 107.492C709.38 107.492 708.895 107.631 708.548 107.908C708.219 108.168 708.054 108.489 708.054 108.87C708.054 109.321 708.262 109.711 708.678 110.04C709.112 110.369 709.996 110.733 711.33 111.132C712.058 111.357 712.622 111.539 713.02 111.678C713.419 111.817 713.922 112.051 714.528 112.38C715.152 112.692 715.62 113.03 715.932 113.394C716.262 113.741 716.548 114.209 716.79 114.798C717.05 115.37 717.18 116.029 717.18 116.774C717.18 118.507 716.556 119.877 715.308 120.882C714.06 121.87 712.431 122.364 710.42 122.364Z" fill="#AAA8C2"/>
<path d="M652.28 88.18C652.28 89.4333 651.82 90.44 650.9 91.2C649.967 91.9467 648.833 92.32 647.5 92.32C646.313 92.32 645.267 91.9733 644.36 91.28C643.453 90.5867 642.827 89.64 642.48 88.44L644.24 87.72C644.36 88.1467 644.527 88.5333 644.74 88.88C644.953 89.2267 645.2 89.5267 645.48 89.78C645.773 90.02 646.093 90.2133 646.44 90.36C646.787 90.4933 647.153 90.56 647.54 90.56C648.38 90.56 649.067 90.3467 649.6 89.92C650.133 89.48 650.4 88.9 650.4 88.18C650.4 87.58 650.18 87.0667 649.74 86.64C649.327 86.2267 648.553 85.8267 647.42 85.44C646.273 85.0267 645.56 84.7467 645.28 84.6C643.76 83.8267 643 82.6867 643 81.18C643 80.1267 643.42 79.2267 644.26 78.48C645.113 77.7333 646.16 77.36 647.4 77.36C648.493 77.36 649.44 77.64 650.24 78.2C651.04 78.7467 651.573 79.4333 651.84 80.26L650.12 80.98C649.96 80.4467 649.64 80.0067 649.16 79.66C648.693 79.3 648.12 79.12 647.44 79.12C646.72 79.12 646.113 79.32 645.62 79.72C645.127 80.0933 644.88 80.58 644.88 81.18C644.88 81.6733 645.073 82.1 645.46 82.46C645.887 82.82 646.813 83.2467 648.24 83.74C649.693 84.2333 650.727 84.84 651.34 85.56C651.967 86.2667 652.28 87.14 652.28 88.18ZM659.179 79.44V92H657.339V79.44H653.339V77.68H663.179V79.44H659.179ZM673.46 77.68V79.44H666.94V83.98H672.82V85.7H666.94V90.24H673.46V92H665.1V77.68H673.46ZM677.78 86.2V92H675.94V77.68H680.82C682.06 77.68 683.113 78.0933 683.98 78.92C684.86 79.7467 685.3 80.7533 685.3 81.94C685.3 83.1533 684.86 84.1667 683.98 84.98C683.127 85.7933 682.073 86.2 680.82 86.2H677.78ZM677.78 79.44V84.44H680.86C681.593 84.44 682.2 84.1933 682.68 83.7C683.173 83.2067 683.42 82.62 683.42 81.94C683.42 81.2733 683.173 80.6933 682.68 80.2C682.2 79.6933 681.593 79.44 680.86 79.44H677.78ZM700.004 88.12C700.004 89.32 699.557 90.32 698.664 91.12C697.784 91.92 696.69 92.32 695.384 92.32C694.357 92.32 693.43 92.0133 692.604 91.4C691.764 90.76 691.197 89.9267 690.904 88.9L692.584 88.2C692.797 88.96 693.144 89.5467 693.624 89.96C694.117 90.36 694.704 90.56 695.384 90.56C696.13 90.56 696.777 90.3267 697.324 89.86C697.857 89.38 698.124 88.8 698.124 88.12C698.124 87.44 697.844 86.8667 697.284 86.4C696.737 85.9333 696.077 85.7 695.304 85.7H694.124V83.98H695.164C695.897 83.98 696.497 83.78 696.964 83.38C697.43 82.9667 697.664 82.4333 697.664 81.78C697.664 81.18 697.444 80.6933 697.004 80.32C696.564 79.9467 695.984 79.76 695.264 79.76C694.104 79.76 693.31 80.3533 692.884 81.54L691.184 80.82C691.49 79.98 692.004 79.3 692.724 78.78C693.444 78.26 694.29 78 695.264 78C696.477 78 697.497 78.36 698.324 79.08C699.137 79.7733 699.544 80.6733 699.544 81.78C699.544 83.1 698.93 84.08 697.704 84.72V84.8C698.424 85.1067 698.984 85.5533 699.384 86.14C699.797 86.7267 700.004 87.3867 700.004 88.12Z" fill="#AAA8C2"/>
<path d="M890.15 0C844.333 1.82055 854.809 52.7752 853.907 83.7168H858.731C860.405 56.1897 848.116 6.58178 890.15 4.82046H1017.69C1034.8 4.82046 1049.1 19.1016 1049.1 36.1946V163.574C1049.17 182.093 1032.5 196.537 1014.23 194.937C1013.01 194.904 1010.62 194.963 1009.4 194.937V199.758C1012.46 199.758 1015.99 199.758 1019.05 199.758V199.719C1038.22 198.985 1053.93 182.884 1053.93 163.574V36.1946C1053.93 16.4261 1037.48 0 1017.69 0H890.15ZM856.32 89.4514C842.618 89.7243 842.611 110.039 856.32 110.304C870.048 110.034 870.035 89.7243 856.32 89.4514ZM856.32 94.2718C863.674 94.2744 863.682 105.489 856.32 105.486C848.969 105.489 848.98 94.2718 856.32 94.2718ZM853.91 116.049C854.92 146.527 844.266 196.634 888.789 199.724V199.755C889.289 199.74 890.874 199.799 891.398 199.817V199.755C892.981 199.755 896.906 199.755 898.437 199.755V194.935C846.752 197.538 860.513 149.735 858.731 116.049H853.91ZM912.91 194.935V199.755C915.605 199.755 919.869 199.755 922.561 199.755V194.935C919.867 194.935 915.602 194.935 912.91 194.935ZM937.029 194.935V199.755C939.724 199.755 943.988 199.755 946.68 199.755V194.935C943.988 194.935 939.724 194.935 937.029 194.935ZM961.164 194.935V199.755C963.858 199.755 968.123 199.755 970.817 199.755V194.935C968.12 194.935 963.855 194.935 961.164 194.935ZM985.285 194.935V199.755C987.98 199.755 992.244 199.755 994.936 199.755V194.935C992.244 194.935 987.98 194.935 985.285 194.935Z" fill="#F4A640"/>
<path opacity="0.45" d="M890.153 19.2407C880.747 19.2407 873.174 26.801 873.174 36.1921V163.571C873.174 168.268 875.066 172.504 878.135 175.568L957.673 255H1017.7C1105.87 249.471 1114.18 175.017 1109.25 103.622L1029.71 24.1925C1026.64 21.1282 1022.4 19.2407 1017.7 19.2407H890.153Z" fill="url(#paint3_linear_3598_104)"/>
<path d="M890.52 19.146H1018.07C1027.47 19.146 1035.04 26.7063 1035.04 36.1V163.476C1035.04 172.867 1027.47 180.43 1018.07 180.43H890.52C881.116 180.43 873.543 172.87 873.543 163.476V36.1C873.543 26.7063 881.113 19.146 890.52 19.146Z" fill="#F4A640"/>
<path d="M905.553 103.8C907.338 103.8 908.846 104.407 910.077 105.62C911.307 106.833 911.923 108.307 911.923 110.04C911.923 111.773 911.307 113.247 910.077 114.46C908.846 115.673 907.338 116.28 905.553 116.28H902.823V122H898.663V103.8H905.553ZM905.553 112.38C906.194 112.38 906.723 112.155 907.139 111.704C907.555 111.253 907.763 110.699 907.763 110.04C907.763 109.381 907.555 108.827 907.139 108.376C906.723 107.925 906.194 107.7 905.553 107.7H902.823V112.38H905.553ZM923.74 122L922.83 119.14H916.07L915.16 122H910.61L916.798 103.8H922.102L928.29 122H923.74ZM917.318 115.24H921.582L919.45 108.558L917.318 115.24ZM942.326 103.8L936.216 115.006V122H932.056V115.006L925.946 103.8H930.678L934.136 110.82L937.594 103.8H942.326ZM962.083 103.8V122H957.923V111.418L953.217 119.14H952.749L948.043 111.418V122H943.883V103.8H948.043L952.983 111.886L957.923 103.8H962.083ZM969.371 117.996H976.651V122H965.211V103.8H976.521V107.804H969.371V110.82H975.871V114.772H969.371V117.996ZM989.138 103.8H993.298V122H990.178L983.158 112.12V122H978.998V103.8H982.118L989.138 113.68V103.8ZM1008.64 103.8V107.804H1003.96V122H999.796V107.804H995.116V103.8H1008.64Z" fill="#17214D"/>
<path d="M936.28 88.18C936.28 89.4333 935.82 90.44 934.9 91.2C933.967 91.9467 932.833 92.32 931.5 92.32C930.313 92.32 929.267 91.9733 928.36 91.28C927.453 90.5867 926.827 89.64 926.48 88.44L928.24 87.72C928.36 88.1467 928.527 88.5333 928.74 88.88C928.953 89.2267 929.2 89.5267 929.48 89.78C929.773 90.02 930.093 90.2133 930.44 90.36C930.787 90.4933 931.153 90.56 931.54 90.56C932.38 90.56 933.067 90.3467 933.6 89.92C934.133 89.48 934.4 88.9 934.4 88.18C934.4 87.58 934.18 87.0667 933.74 86.64C933.327 86.2267 932.553 85.8267 931.42 85.44C930.273 85.0267 929.56 84.7467 929.28 84.6C927.76 83.8267 927 82.6867 927 81.18C927 80.1267 927.42 79.2267 928.26 78.48C929.113 77.7333 930.16 77.36 931.4 77.36C932.493 77.36 933.44 77.64 934.24 78.2C935.04 78.7467 935.573 79.4333 935.84 80.26L934.12 80.98C933.96 80.4467 933.64 80.0067 933.16 79.66C932.693 79.3 932.12 79.12 931.44 79.12C930.72 79.12 930.113 79.32 929.62 79.72C929.127 80.0933 928.88 80.58 928.88 81.18C928.88 81.6733 929.073 82.1 929.46 82.46C929.887 82.82 930.813 83.2467 932.24 83.74C933.693 84.2333 934.727 84.84 935.34 85.56C935.967 86.2667 936.28 87.14 936.28 88.18ZM943.179 79.44V92H941.339V79.44H937.339V77.68H947.179V79.44H943.179ZM957.46 77.68V79.44H950.94V83.98H956.82V85.7H950.94V90.24H957.46V92H949.1V77.68H957.46ZM961.78 86.2V92H959.94V77.68H964.82C966.06 77.68 967.113 78.0933 967.98 78.92C968.86 79.7467 969.3 80.7533 969.3 81.94C969.3 83.1533 968.86 84.1667 967.98 84.98C967.127 85.7933 966.073 86.2 964.82 86.2H961.78ZM961.78 79.44V84.44H964.86C965.593 84.44 966.2 84.1933 966.68 83.7C967.173 83.2067 967.42 82.62 967.42 81.94C967.42 81.2733 967.173 80.6933 966.68 80.2C966.2 79.6933 965.593 79.44 964.86 79.44H961.78ZM983.324 89.12V92H981.484V89.12H974.984V87.72L981.324 78.32H983.324V87.4H985.084V89.12H983.324ZM977.064 87.4H981.484V81.02H981.404L977.064 87.4Z" fill="#17214D"/>
<path d="M57.3504 122.364C54.6291 122.364 52.3671 121.463 50.5644 119.66C48.7791 117.84 47.8864 115.587 47.8864 112.9C47.8864 110.213 48.7791 107.969 50.5644 106.166C52.3671 104.346 54.6291 103.436 57.3504 103.436C58.9798 103.436 60.4878 103.817 61.8744 104.58C63.2611 105.325 64.3531 106.348 65.1504 107.648L61.5624 109.728C61.1638 109.017 60.5918 108.471 59.8464 108.09C59.1011 107.691 58.2691 107.492 57.3504 107.492C55.7384 107.492 54.4471 107.986 53.4764 108.974C52.5231 109.962 52.0464 111.271 52.0464 112.9C52.0464 114.529 52.5231 115.838 53.4764 116.826C54.4471 117.814 55.7384 118.308 57.3504 118.308C58.2691 118.308 59.1011 118.109 59.8464 117.71C60.6091 117.311 61.1811 116.765 61.5624 116.072L65.1504 118.152C64.3704 119.452 63.2871 120.483 61.9004 121.246C60.5138 121.991 58.9971 122.364 57.3504 122.364ZM76.98 103.8H81.14V122H76.98V114.772H71.26V122H67.1V103.8H71.26V110.768H76.98V103.8ZM99.6561 119.634C97.8188 121.454 95.5828 122.364 92.9481 122.364C90.3134 122.364 88.0774 121.454 86.2401 119.634C84.4028 117.814 83.4841 115.569 83.4841 112.9C83.4841 110.231 84.4028 107.986 86.2401 106.166C88.0774 104.346 90.3134 103.436 92.9481 103.436C95.5828 103.436 97.8188 104.346 99.6561 106.166C101.493 107.986 102.412 110.231 102.412 112.9C102.412 115.569 101.493 117.814 99.6561 119.634ZM89.1521 116.8C90.1748 117.805 91.4401 118.308 92.9481 118.308C94.4561 118.308 95.7128 117.805 96.7181 116.8C97.7408 115.795 98.2521 114.495 98.2521 112.9C98.2521 111.305 97.7408 110.005 96.7181 109C95.7128 107.995 94.4561 107.492 92.9481 107.492C91.4401 107.492 90.1748 107.995 89.1521 109C88.1468 110.005 87.6441 111.305 87.6441 112.9C87.6441 114.495 88.1468 115.795 89.1521 116.8ZM120.146 119.634C118.309 121.454 116.073 122.364 113.438 122.364C110.804 122.364 108.568 121.454 106.73 119.634C104.893 117.814 103.974 115.569 103.974 112.9C103.974 110.231 104.893 107.986 106.73 106.166C108.568 104.346 110.804 103.436 113.438 103.436C116.073 103.436 118.309 104.346 120.146 106.166C121.984 107.986 122.902 110.231 122.902 112.9C122.902 115.569 121.984 117.814 120.146 119.634ZM109.642 116.8C110.665 117.805 111.93 118.308 113.438 118.308C114.946 118.308 116.203 117.805 117.208 116.8C118.231 115.795 118.742 114.495 118.742 112.9C118.742 111.305 118.231 110.005 117.208 109C116.203 107.995 114.946 107.492 113.438 107.492C111.93 107.492 110.665 107.995 109.642 109C108.637 110.005 108.134 111.305 108.134 112.9C108.134 114.495 108.637 115.795 109.642 116.8ZM130.954 122.364C129.1 122.364 127.548 121.965 126.3 121.168C125.07 120.353 124.194 119.253 123.674 117.866L127.262 115.786C127.99 117.467 129.264 118.308 131.084 118.308C132.731 118.308 133.554 117.814 133.554 116.826C133.554 116.289 133.286 115.873 132.748 115.578C132.228 115.266 131.24 114.911 129.784 114.512C129.022 114.304 128.354 114.07 127.782 113.81C127.21 113.55 126.647 113.212 126.092 112.796C125.555 112.363 125.139 111.825 124.844 111.184C124.567 110.543 124.428 109.806 124.428 108.974C124.428 107.293 125.026 105.949 126.222 104.944C127.436 103.939 128.874 103.436 130.538 103.436C132.029 103.436 133.346 103.791 134.49 104.502C135.634 105.195 136.536 106.209 137.194 107.544L133.684 109.598C133.355 108.905 132.948 108.385 132.462 108.038C131.977 107.674 131.336 107.492 130.538 107.492C129.914 107.492 129.429 107.631 129.082 107.908C128.753 108.168 128.588 108.489 128.588 108.87C128.588 109.321 128.796 109.711 129.212 110.04C129.646 110.369 130.53 110.733 131.864 111.132C132.592 111.357 133.156 111.539 133.554 111.678C133.953 111.817 134.456 112.051 135.062 112.38C135.686 112.692 136.154 113.03 136.466 113.394C136.796 113.741 137.082 114.209 137.324 114.798C137.584 115.37 137.714 116.029 137.714 116.774C137.714 118.507 137.09 119.877 135.842 120.882C134.594 121.87 132.965 122.364 130.954 122.364ZM143.826 117.996H151.106V122H139.666V103.8H150.976V107.804H143.826V110.82H150.326V114.772H143.826V117.996Z" fill="#AAA8C2"/>
<path d="M82.28 88.18C82.28 89.4333 81.82 90.44 80.9 91.2C79.9667 91.9467 78.8333 92.32 77.5 92.32C76.3133 92.32 75.2667 91.9733 74.36 91.28C73.4533 90.5867 72.8267 89.64 72.48 88.44L74.24 87.72C74.36 88.1467 74.5267 88.5333 74.74 88.88C74.9533 89.2267 75.2 89.5267 75.48 89.78C75.7733 90.02 76.0933 90.2133 76.44 90.36C76.7867 90.4933 77.1533 90.56 77.54 90.56C78.38 90.56 79.0667 90.3467 79.6 89.92C80.1333 89.48 80.4 88.9 80.4 88.18C80.4 87.58 80.18 87.0667 79.74 86.64C79.3267 86.2267 78.5533 85.8267 77.42 85.44C76.2733 85.0267 75.56 84.7467 75.28 84.6C73.76 83.8267 73 82.6867 73 81.18C73 80.1267 73.42 79.2267 74.26 78.48C75.1133 77.7333 76.16 77.36 77.4 77.36C78.4933 77.36 79.44 77.64 80.24 78.2C81.04 78.7467 81.5733 79.4333 81.84 80.26L80.12 80.98C79.96 80.4467 79.64 80.0067 79.16 79.66C78.6933 79.3 78.12 79.12 77.44 79.12C76.72 79.12 76.1133 79.32 75.62 79.72C75.1267 80.0933 74.88 80.58 74.88 81.18C74.88 81.6733 75.0733 82.1 75.46 82.46C75.8867 82.82 76.8133 83.2467 78.24 83.74C79.6933 84.2333 80.7267 84.84 81.34 85.56C81.9667 86.2667 82.28 87.14 82.28 88.18ZM89.1794 79.44V92H87.3394V79.44H83.3394V77.68H93.1794V79.44H89.1794ZM103.46 77.68V79.44H96.9402V83.98H102.82V85.7H96.9402V90.24H103.46V92H95.1002V77.68H103.46ZM107.78 86.2V92H105.94V77.68H110.82C112.06 77.68 113.113 78.0933 113.98 78.92C114.86 79.7467 115.3 80.7533 115.3 81.94C115.3 83.1533 114.86 84.1667 113.98 84.98C113.127 85.7933 112.073 86.2 110.82 86.2H107.78ZM107.78 79.44V84.44H110.86C111.593 84.44 112.2 84.1933 112.68 83.7C113.173 83.2067 113.42 82.62 113.42 81.94C113.42 81.2733 113.173 80.6933 112.68 80.2C112.2 79.6933 111.593 79.44 110.86 79.44H107.78ZM126.184 78.32V92H124.344V80.6L121.684 81.76L120.984 80.2L125.004 78.32H126.184Z" fill="#AAA8C2"/>
<defs>
<linearGradient id="paint0_linear_3598_104" x1="75.8637" y1="79.8529" x2="215.816" y2="211.053" gradientUnits="userSpaceOnUse">
<stop stop-color="#333333"/>
<stop offset="0.1315" stop-color="#515151" stop-opacity="0.8685"/>
<stop offset="0.4343" stop-color="#909090" stop-opacity="0.5657"/>
<stop offset="0.6905" stop-color="#BEBEBE" stop-opacity="0.3095"/>
<stop offset="0.8869" stop-color="#DADADA" stop-opacity="0.1131"/>
<stop offset="1" stop-color="#E5E5E5" stop-opacity="0"/>
</linearGradient>
<linearGradient id="paint1_linear_3598_104" x1="360.506" y1="79.8529" x2="500.459" y2="211.053" gradientUnits="userSpaceOnUse">
<stop stop-color="#333333"/>
<stop offset="0.1315" stop-color="#515151" stop-opacity="0.8685"/>
<stop offset="0.4343" stop-color="#909090" stop-opacity="0.5657"/>
<stop offset="0.6905" stop-color="#BEBEBE" stop-opacity="0.3095"/>
<stop offset="0.8869" stop-color="#DADADA" stop-opacity="0.1131"/>
<stop offset="1" stop-color="#E5E5E5" stop-opacity="0"/>
</linearGradient>
<linearGradient id="paint2_linear_3598_104" x1="645.144" y1="79.8529" x2="785.096" y2="211.053" gradientUnits="userSpaceOnUse">
<stop stop-color="#333333"/>
<stop offset="0.1315" stop-color="#515151" stop-opacity="0.8685"/>
<stop offset="0.4343" stop-color="#909090" stop-opacity="0.5657"/>
<stop offset="0.6905" stop-color="#BEBEBE" stop-opacity="0.3095"/>
<stop offset="0.8869" stop-color="#DADADA" stop-opacity="0.1131"/>
<stop offset="1" stop-color="#E5E5E5" stop-opacity="0"/>
</linearGradient>
<linearGradient id="paint3_linear_3598_104" x1="929.772" y1="79.8529" x2="1069.72" y2="211.053" gradientUnits="userSpaceOnUse">
<stop stop-color="#333333"/>
<stop offset="0.1315" stop-color="#515151" stop-opacity="0.8685"/>
<stop offset="0.4343" stop-color="#909090" stop-opacity="0.5657"/>
<stop offset="0.6905" stop-color="#BEBEBE" stop-opacity="0.3095"/>
<stop offset="0.8869" stop-color="#DADADA" stop-opacity="0.1131"/>
<stop offset="1" stop-color="#E5E5E5" stop-opacity="0"/>
</linearGradient>
</defs>
</svg>
