<svg width="40" height="40" viewBox="0 0 40 40" fill="none" xmlns="http://www.w3.org/2000/svg">
<path d="M20 40C31.0457 40 40 31.0457 40 20C40 8.95431 31.0457 0 20 0C8.95431 0 0 8.95431 0 20C0 31.0457 8.95431 40 20 40Z" fill="#2FC68D"/>
<path d="M8.92263 19V9.99L6.86563 10.857L6.04963 8.97L9.46663 7.372H11.1496V19H8.92263ZM17.5517 19.272C17.1097 19.272 16.6677 19.2097 16.2257 19.085C15.7951 18.9603 15.3927 18.7677 15.0187 18.507C14.6447 18.2463 14.3161 17.9233 14.0327 17.538C13.7607 17.1413 13.5567 16.671 13.4207 16.127L15.4437 15.345C15.5684 15.9117 15.8064 16.365 16.1577 16.705C16.5204 17.045 16.9794 17.215 17.5347 17.215C17.8067 17.215 18.0561 17.1697 18.2827 17.079C18.5207 16.977 18.7247 16.841 18.8947 16.671C19.0761 16.501 19.2121 16.3027 19.3027 16.076C19.4047 15.838 19.4557 15.5773 19.4557 15.294C19.4557 15.022 19.4047 14.7727 19.3027 14.546C19.2121 14.308 19.0817 14.104 18.9117 13.934C18.7417 13.7527 18.5377 13.6167 18.2997 13.526C18.0731 13.424 17.8181 13.373 17.5347 13.373C17.1834 13.373 16.8717 13.4523 16.5997 13.611C16.3277 13.7583 16.0954 13.9453 15.9027 14.172L13.7437 13.186L14.4237 7.372H20.9687V9.327H16.2767L15.8347 12.047L15.9707 12.081C16.1974 11.8883 16.4751 11.724 16.8037 11.588C17.1324 11.452 17.5291 11.384 17.9937 11.384C18.4811 11.384 18.9457 11.4803 19.3877 11.673C19.8297 11.8543 20.2207 12.115 20.5607 12.455C20.9007 12.795 21.1727 13.2087 21.3767 13.696C21.5807 14.172 21.6827 14.7047 21.6827 15.294C21.6827 15.872 21.5807 16.4047 21.3767 16.892C21.1727 17.3793 20.8837 17.7987 20.5097 18.15C20.1471 18.5013 19.7107 18.779 19.2007 18.983C18.7021 19.1757 18.1524 19.272 17.5517 19.272ZM22.8804 10.007C22.8804 9.61033 22.9541 9.23633 23.1014 8.885C23.2601 8.53367 23.4698 8.22767 23.7304 7.967C24.0024 7.695 24.3198 7.48533 24.6824 7.338C25.0451 7.17933 25.4418 7.1 25.8724 7.1C26.3031 7.1 26.6998 7.17933 27.0624 7.338C27.4364 7.48533 27.7538 7.695 28.0144 7.967C28.2864 8.22767 28.4961 8.53367 28.6434 8.885C28.8021 9.23633 28.8814 9.61033 28.8814 10.007C28.8814 10.4037 28.8021 10.7833 28.6434 11.146C28.4961 11.4973 28.2864 11.8033 28.0144 12.064C27.7538 12.3247 27.4364 12.5343 27.0624 12.693C26.6998 12.8403 26.3031 12.914 25.8724 12.914C25.4418 12.914 25.0451 12.8403 24.6824 12.693C24.3198 12.5343 24.0024 12.3247 23.7304 12.064C23.4698 11.8033 23.2601 11.4973 23.1014 11.146C22.9541 10.7833 22.8804 10.4037 22.8804 10.007ZM24.6994 10.007C24.6994 10.381 24.8128 10.6813 25.0394 10.908C25.2661 11.1347 25.5438 11.248 25.8724 11.248C26.2011 11.248 26.4788 11.1347 26.7054 10.908C26.9321 10.6813 27.0454 10.381 27.0454 10.007C27.0454 9.633 26.9321 9.33267 26.7054 9.106C26.4788 8.87933 26.2011 8.766 25.8724 8.766C25.5438 8.766 25.2661 8.87933 25.0394 9.106C24.8128 9.33267 24.6994 9.633 24.6994 10.007ZM25.0394 18.371L32.5874 7.1L33.9304 8.001L26.3824 19.272L25.0394 18.371ZM30.0884 16.365C30.0884 15.9683 30.1621 15.5943 30.3094 15.243C30.4681 14.8917 30.6778 14.5857 30.9384 14.325C31.2104 14.053 31.5278 13.8433 31.8904 13.696C32.2531 13.5373 32.6498 13.458 33.0804 13.458C33.5111 13.458 33.9078 13.5373 34.2704 13.696C34.6444 13.8433 34.9618 14.053 35.2224 14.325C35.4944 14.5857 35.7041 14.8917 35.8514 15.243C36.0101 15.5943 36.0894 15.9683 36.0894 16.365C36.0894 16.7617 36.0101 17.1413 35.8514 17.504C35.7041 17.8553 35.4944 18.1613 35.2224 18.422C34.9618 18.6827 34.6444 18.8867 34.2704 19.034C33.9078 19.1927 33.5111 19.272 33.0804 19.272C32.6498 19.272 32.2531 19.1927 31.8904 19.034C31.5278 18.8867 31.2104 18.6827 30.9384 18.422C30.6778 18.1613 30.4681 17.8553 30.3094 17.504C30.1621 17.1413 30.0884 16.7617 30.0884 16.365ZM31.9074 16.365C31.9074 16.739 32.0208 17.0393 32.2474 17.266C32.4741 17.4927 32.7518 17.606 33.0804 17.606C33.4091 17.606 33.6868 17.4927 33.9134 17.266C34.1401 17.0393 34.2534 16.739 34.2534 16.365C34.2534 15.991 34.1401 15.6907 33.9134 15.464C33.6868 15.2373 33.4091 15.124 33.0804 15.124C32.7518 15.124 32.4741 15.2373 32.2474 15.464C32.0208 15.6907 31.9074 15.991 31.9074 16.365ZM19.4575 28.42C19.4575 29.48 19.1042 30.3667 18.3975 31.08C17.6842 31.8 16.8109 32.16 15.7775 32.16C14.7375 32.16 13.8642 31.8 13.1575 31.08C12.4509 30.3667 12.0975 29.48 12.0975 28.42C12.0975 27.36 12.4509 26.4733 13.1575 25.76C13.8642 25.04 14.7375 24.68 15.7775 24.68C16.8175 24.68 17.6909 25.0433 18.3975 25.77C19.1042 26.4833 19.4575 27.3667 19.4575 28.42ZM13.0375 28.42C13.0375 29.2467 13.2975 29.93 13.8175 30.47C14.3442 31.01 14.9975 31.28 15.7775 31.28C16.5575 31.28 17.2075 31.01 17.7275 30.47C18.2542 29.9367 18.5175 29.2533 18.5175 28.42C18.5175 27.5867 18.2542 26.9033 17.7275 26.37C17.2075 25.83 16.5575 25.56 15.7775 25.56C14.9975 25.56 14.3442 25.83 13.8175 26.37C13.2975 26.91 13.0375 27.5933 13.0375 28.42ZM21.4632 28.93V32H20.5432V24.84H24.7232V25.72H21.4632V28.07H24.4032V28.93H21.4632ZM26.6879 28.93V32H25.7679V24.84H29.9479V25.72H26.6879V28.07H29.6279V28.93H26.6879Z" fill="#FAFAFB"/>
</svg>
