<svg width="18" height="18" viewBox="0 0 18 18" fill="none" xmlns="http://www.w3.org/2000/svg">
<g id="Group">
<path id="Vector" d="M3.69482 1.40591C3.69482 1.19012 3.69201 1.0158 3.69553 0.841476C3.70536 0.319213 3.96464 0.00641774 4.38903 9.15358e-05C4.82466 -0.00623467 5.09307 0.315699 5.1015 0.857643C5.10431 1.02072 5.1022 1.18379 5.1022 1.37569C6.15686 1.37569 7.18974 1.37569 8.26618 1.37569C8.26618 1.15216 8.25494 0.932152 8.26829 0.714249C8.29499 0.278444 8.58588 -0.00693758 8.97865 0.000794447C9.35878 0.00782356 9.63562 0.284771 9.66232 0.705112C9.67637 0.925123 9.66513 1.14654 9.66513 1.38553C10.7395 1.38553 11.7773 1.38553 12.8656 1.38553C12.8656 1.26322 12.8656 1.13951 12.8656 1.0165C12.867 0.337489 13.0926 0.00782356 13.5598 0.00149736C14.0376 -0.00482884 14.2709 0.331866 14.2723 1.03267C14.2723 1.13811 14.2723 1.24284 14.2723 1.40451C14.5344 1.40451 14.7859 1.40381 15.0375 1.40451C16.7955 1.40943 17.9928 2.60368 17.9963 4.35955C17.9991 5.62479 17.9998 6.89003 17.9949 8.15457C17.9928 8.61216 17.7082 8.91863 17.3042 8.92496C16.8882 8.93128 16.5931 8.61708 16.5917 8.14121C16.5868 6.91112 16.591 5.68102 16.5896 4.45163C16.5889 3.3586 16.043 2.81314 14.9511 2.81174C14.7417 2.81174 14.5316 2.81174 14.2723 2.81174C14.2723 2.98817 14.273 3.14703 14.2723 3.30518C14.2709 3.88438 14.0229 4.20842 13.5781 4.21475C13.1228 4.22107 12.8663 3.8886 12.8649 3.28901C12.8649 3.14843 12.8649 3.00855 12.8649 2.83985C11.8089 2.83985 10.7634 2.83985 9.66653 2.83985C9.66653 3.05705 9.67707 3.27566 9.66443 3.49286C9.63913 3.93007 9.35316 4.21826 8.96249 4.21615C8.57112 4.21405 8.29147 3.92585 8.26688 3.48583C8.25564 3.27636 8.26477 3.06549 8.26477 2.83423C7.21152 2.83423 6.18637 2.83423 5.1268 2.83423C5.11907 2.94248 5.10431 3.05284 5.10291 3.1639C5.09448 3.88227 4.87947 4.20913 4.4073 4.21545C3.92388 4.22178 3.70185 3.8893 3.69342 3.14703C3.69201 3.05424 3.68569 2.96075 3.67726 2.77378C3.21071 2.82158 2.73853 2.80682 2.30501 2.92912C1.72393 3.0936 1.41406 3.6468 1.41266 4.33635C1.40985 6.17517 1.41195 8.01469 1.41195 9.8535C1.41195 11.5756 1.40985 13.2971 1.41266 15.0192C1.41406 16.0187 1.98179 16.5874 2.98024 16.5888C4.67781 16.5916 6.37609 16.5881 8.07366 16.5902C8.51632 16.5909 8.79245 16.7835 8.86834 17.13C8.97584 17.62 8.6442 17.9939 8.0856 17.9953C6.32901 17.9988 4.57312 17.9974 2.81653 17.9939C2.64227 17.9932 2.46591 17.9721 2.29447 17.9398C0.984049 17.6917 0.0158153 16.5769 0.0108968 15.2462C-0.00245326 11.5447 -0.0052638 7.84318 0.0123021 4.14165C0.0193285 2.64515 1.25878 1.44036 2.76032 1.40662C3.06245 1.40029 3.36388 1.40591 3.69482 1.40591Z" fill="#17214D"/>
<path id="Vector_2" d="M17.9965 13.7351C18.0007 16.0709 16.0966 17.9877 13.7617 17.9961C11.4121 18.0053 9.48826 16.0835 9.49317 13.7337C9.49809 11.3986 11.4107 9.4895 13.7455 9.4895C16.0804 9.4902 17.9923 11.4 17.9965 13.7351ZM13.7526 10.8974C12.1913 10.8946 10.9076 12.1683 10.9006 13.7274C10.8935 15.2906 12.1632 16.5791 13.7202 16.5889C15.2977 16.5995 16.5905 15.3166 16.5898 13.7421C16.5891 12.1817 15.3117 10.9002 13.7526 10.8974Z" fill="#17214D"/>
<path id="Vector_3" d="M7.44244 8.08141C7.05247 8.07438 6.73769 7.7391 6.75455 7.35039C6.77142 6.97433 7.09182 6.67278 7.46773 6.67981C7.85769 6.68684 8.17247 7.02213 8.15561 7.41084C8.13875 7.78689 7.81835 8.08844 7.44244 8.08141Z" fill="#17214D"/>
<path id="Vector_4" d="M14.2701 7.36445C14.2792 7.75456 13.9588 8.08212 13.5682 8.08212C13.1916 8.08142 12.8775 7.77424 12.8684 7.39748C12.8592 7.00737 13.1803 6.67981 13.5703 6.67981C13.9462 6.68051 14.261 6.98768 14.2701 7.36445Z" fill="#17214D"/>
<path id="Vector_5" d="M8.15567 13.4981C8.15497 13.8882 7.82613 14.2088 7.43617 14.1982C7.05955 14.1877 6.7532 13.8728 6.75391 13.496C6.75461 13.1059 7.08344 12.7854 7.47341 12.7959C7.85002 12.8065 8.15637 13.1221 8.15567 13.4981Z" fill="#17214D"/>
<path id="Vector_6" d="M4.3819 6.67916C4.75992 6.67002 5.0754 6.96595 5.09297 7.34622C5.11123 7.74267 4.80769 8.07163 4.41492 8.08147C4.0369 8.09061 3.72142 7.79468 3.70385 7.41441C3.68629 7.01796 3.98912 6.689 4.3819 6.67916Z" fill="#17214D"/>
<path id="Vector_7" d="M10.5187 6.67912C10.9108 6.68334 11.2192 7.00879 11.2066 7.40523C11.1947 7.78621 10.8834 8.08635 10.5047 8.08284C10.1126 8.07862 9.80413 7.75317 9.81678 7.35673C9.82943 6.97575 10.1407 6.6749 10.5187 6.67912Z" fill="#17214D"/>
<path id="Vector_8" d="M7.46572 9.74385C7.84795 9.74947 8.1529 10.0531 8.15641 10.432C8.16063 10.8242 7.84022 11.1398 7.44464 11.1342C7.06241 11.1286 6.75746 10.8249 6.75395 10.4461C6.74973 10.0538 7.06943 9.73823 7.46572 9.74385Z" fill="#17214D"/>
<path id="Vector_9" d="M5.09296 13.5037C5.08945 13.8861 4.78802 14.1926 4.40929 14.1989C4.01722 14.2052 3.70033 13.8875 3.70314 13.4911C3.70666 13.1087 4.00739 12.8022 4.38681 12.7959C4.77888 12.7889 5.09647 13.1073 5.09296 13.5037Z" fill="#17214D"/>
<path id="Vector_10" d="M4.40065 9.74244C4.7871 9.74384 5.09064 10.0461 5.09345 10.4327C5.09696 10.8348 4.78007 11.1447 4.37746 11.1335C3.99031 11.123 3.69661 10.8151 3.70223 10.4271C3.70855 10.0398 4.0135 9.74103 4.40065 9.74244Z" fill="#17214D"/>
<path id="Vector_11" d="M14.4391 13.0103C14.6422 13.0342 14.7827 13.0398 14.919 13.0679C15.2436 13.1354 15.4678 13.4201 15.4657 13.7483C15.4635 14.0766 15.2394 14.3866 14.9099 14.414C14.4813 14.4498 14.0449 14.4533 13.617 14.4175C13.2741 14.3887 13.0711 14.1412 13.057 13.7989C13.0359 13.2858 13.0331 12.7699 13.0563 12.2567C13.0739 11.8645 13.3774 11.6009 13.7435 11.6002C14.1103 11.5995 14.4019 11.8631 14.4356 12.2539C14.456 12.495 14.4391 12.7403 14.4391 13.0103Z" fill="#17214D"/>
</g>
</svg>
