<svg width="8" height="13" viewBox="0 0 8 13" fill="none" xmlns="http://www.w3.org/2000/svg">
<g clip-path="url(#clip0_674_3939)">
<path d="M4.95684 6.51056C4.85568 6.57918 4.79158 6.61045 4.74287 6.65755C3.3088 8.04298 1.87473 9.42841 0.444401 10.8171C-0.139635 11.3839 -0.143382 12.1834 0.426085 12.6833C0.933942 13.1291 1.70322 13.1031 2.21191 12.613C3.65681 11.2191 5.09837 9.82147 6.54077 8.42548C6.89544 8.08237 7.2501 7.73966 7.60227 7.39452C8.12678 6.88006 8.13552 6.12603 7.6106 5.61645C5.80729 3.86476 4.00107 2.1151 2.19151 0.3691C1.67783 -0.126278 0.864007 -0.119375 0.374466 0.367882C-0.128395 0.868131 -0.127147 1.62906 0.392366 2.13378C1.83685 3.53789 3.28632 4.93632 4.73496 6.33637C4.78325 6.38387 4.84236 6.42123 4.95684 6.51056Z" fill="#17214D"/>
</g>
<defs>
<clipPath id="clip0_674_3939">
<rect width="8" height="13" fill="white" transform="matrix(-1 0 0 1 8 0)"/>
</clipPath>
</defs>
</svg>
