<svg width="40" height="40" viewBox="0 0 40 40" fill="none" xmlns="http://www.w3.org/2000/svg">
<path d="M20 40C31.0457 40 40 31.0457 40 20C40 8.95431 31.0457 0 20 0C8.95431 0 0 8.95431 0 20C0 31.0457 8.95431 40 20 40Z" fill="#F95A5A"/>
<path d="M6.67556 21V11.99L4.61856 12.857L3.80256 10.97L7.21956 9.372H8.90256V21H6.67556ZM15.9546 21.272C15.2066 21.272 14.5323 21.119 13.9316 20.813C13.331 20.4957 12.8153 20.065 12.3846 19.521C11.9653 18.977 11.6423 18.3367 11.4156 17.6C11.189 16.852 11.0756 16.0473 11.0756 15.186C11.0756 14.3247 11.189 13.5257 11.4156 12.789C11.6423 12.041 11.9653 11.395 12.3846 10.851C12.8153 10.307 13.331 9.882 13.9316 9.576C14.5323 9.25867 15.2066 9.1 15.9546 9.1C16.7026 9.1 17.377 9.25867 17.9776 9.576C18.5783 9.882 19.0883 10.307 19.5076 10.851C19.9383 11.395 20.267 12.041 20.4936 12.789C20.7203 13.5257 20.8336 14.3247 20.8336 15.186C20.8336 16.0473 20.7203 16.852 20.4936 17.6C20.267 18.3367 19.9383 18.977 19.5076 19.521C19.0883 20.065 18.5783 20.4957 17.9776 20.813C17.377 21.119 16.7026 21.272 15.9546 21.272ZM15.9546 19.164C16.3626 19.164 16.731 19.0677 17.0596 18.875C17.3883 18.671 17.666 18.3933 17.8926 18.042C18.1306 17.6793 18.3063 17.2543 18.4196 16.767C18.5443 16.2797 18.6066 15.7527 18.6066 15.186C18.6066 14.608 18.5443 14.081 18.4196 13.605C18.3063 13.1177 18.1306 12.6983 17.8926 12.347C17.666 11.9843 17.3883 11.7067 17.0596 11.514C16.731 11.31 16.3626 11.208 15.9546 11.208C15.5353 11.208 15.1613 11.31 14.8326 11.514C14.504 11.7067 14.2263 11.9843 13.9996 12.347C13.773 12.6983 13.5973 13.1177 13.4726 13.605C13.3593 14.081 13.3026 14.608 13.3026 15.186C13.3026 15.7527 13.3593 16.2797 13.4726 16.767C13.5973 17.2543 13.773 17.6793 13.9996 18.042C14.2263 18.3933 14.504 18.671 14.8326 18.875C15.1613 19.0677 15.5353 19.164 15.9546 19.164ZM22.1275 12.007C22.1275 11.6103 22.2012 11.2363 22.3485 10.885C22.5072 10.5337 22.7168 10.2277 22.9775 9.967C23.2495 9.695 23.5668 9.48533 23.9295 9.338C24.2922 9.17933 24.6888 9.1 25.1195 9.1C25.5502 9.1 25.9468 9.17933 26.3095 9.338C26.6835 9.48533 27.0008 9.695 27.2615 9.967C27.5335 10.2277 27.7432 10.5337 27.8905 10.885C28.0492 11.2363 28.1285 11.6103 28.1285 12.007C28.1285 12.4037 28.0492 12.7833 27.8905 13.146C27.7432 13.4973 27.5335 13.8033 27.2615 14.064C27.0008 14.3247 26.6835 14.5343 26.3095 14.693C25.9468 14.8403 25.5502 14.914 25.1195 14.914C24.6888 14.914 24.2922 14.8403 23.9295 14.693C23.5668 14.5343 23.2495 14.3247 22.9775 14.064C22.7168 13.8033 22.5072 13.4973 22.3485 13.146C22.2012 12.7833 22.1275 12.4037 22.1275 12.007ZM23.9465 12.007C23.9465 12.381 24.0598 12.6813 24.2865 12.908C24.5132 13.1347 24.7908 13.248 25.1195 13.248C25.4482 13.248 25.7258 13.1347 25.9525 12.908C26.1792 12.6813 26.2925 12.381 26.2925 12.007C26.2925 11.633 26.1792 11.3327 25.9525 11.106C25.7258 10.8793 25.4482 10.766 25.1195 10.766C24.7908 10.766 24.5132 10.8793 24.2865 11.106C24.0598 11.3327 23.9465 11.633 23.9465 12.007ZM24.2865 20.371L31.8345 9.1L33.1775 10.001L25.6295 21.272L24.2865 20.371ZM29.3355 18.365C29.3355 17.9683 29.4092 17.5943 29.5565 17.243C29.7152 16.8917 29.9248 16.5857 30.1855 16.325C30.4575 16.053 30.7748 15.8433 31.1375 15.696C31.5002 15.5373 31.8968 15.458 32.3275 15.458C32.7582 15.458 33.1548 15.5373 33.5175 15.696C33.8915 15.8433 34.2088 16.053 34.4695 16.325C34.7415 16.5857 34.9512 16.8917 35.0985 17.243C35.2572 17.5943 35.3365 17.9683 35.3365 18.365C35.3365 18.7617 35.2572 19.1413 35.0985 19.504C34.9512 19.8553 34.7415 20.1613 34.4695 20.422C34.2088 20.6827 33.8915 20.8867 33.5175 21.034C33.1548 21.1927 32.7582 21.272 32.3275 21.272C31.8968 21.272 31.5002 21.1927 31.1375 21.034C30.7748 20.8867 30.4575 20.6827 30.1855 20.422C29.9248 20.1613 29.7152 19.8553 29.5565 19.504C29.4092 19.1413 29.3355 18.7617 29.3355 18.365ZM31.1545 18.365C31.1545 18.739 31.2678 19.0393 31.4945 19.266C31.7212 19.4927 31.9988 19.606 32.3275 19.606C32.6562 19.606 32.9338 19.4927 33.1605 19.266C33.3872 19.0393 33.5005 18.739 33.5005 18.365C33.5005 17.991 33.3872 17.6907 33.1605 17.464C32.9338 17.2373 32.6562 17.124 32.3275 17.124C31.9988 17.124 31.7212 17.2373 31.4945 17.464C31.2678 17.6907 31.1545 17.991 31.1545 18.365ZM17.9575 30.42C17.9575 31.48 17.6042 32.3667 16.8975 33.08C16.1842 33.8 15.3109 34.16 14.2775 34.16C13.2375 34.16 12.3642 33.8 11.6575 33.08C10.9509 32.3667 10.5975 31.48 10.5975 30.42C10.5975 29.36 10.9509 28.4733 11.6575 27.76C12.3642 27.04 13.2375 26.68 14.2775 26.68C15.3175 26.68 16.1909 27.0433 16.8975 27.77C17.6042 28.4833 17.9575 29.3667 17.9575 30.42ZM11.5375 30.42C11.5375 31.2467 11.7975 31.93 12.3175 32.47C12.8442 33.01 13.4975 33.28 14.2775 33.28C15.0575 33.28 15.7075 33.01 16.2275 32.47C16.7542 31.9367 17.0175 31.2533 17.0175 30.42C17.0175 29.5867 16.7542 28.9033 16.2275 28.37C15.7075 27.83 15.0575 27.56 14.2775 27.56C13.4975 27.56 12.8442 27.83 12.3175 28.37C11.7975 28.91 11.5375 29.5933 11.5375 30.42ZM19.9632 30.93V34H19.0432V26.84H23.2232V27.72H19.9632V30.07H22.9032V30.93H19.9632ZM25.1879 30.93V34H24.2679V26.84H28.4479V27.72H25.1879V30.07H28.1279V30.93H25.1879Z" fill="#FAFAFB"/>
</svg>
