<svg width="928" height="214" viewBox="0 0 928 214" fill="none" xmlns="http://www.w3.org/2000/svg">
<rect x="29" y="17.7794" width="118" height="55.8957" rx="3" fill="#212A37"/>
<path d="M30.0202 0V0.0107595C13.5987 0.157088 0 13.8173 0 30.2491V136.697C0 153.215 13.7496 166.931 30.2788 166.935H136.86C153.385 166.935 167.13 153.215 167.13 136.697V98.9956V96.9814H163.103C161.707 119.989 171.972 161.426 136.858 162.905H30.2766C15.9862 162.905 4.02941 150.975 4.02941 136.695V30.247C3.98632 15.1708 17.3071 3.02986 32.2956 4.03049C33.6682 3.97024 36.7689 4.07353 38.0876 4.03049V0.00215189C35.7519 0 32.3517 0.00645567 30.0202 0ZM50.178 0V4.02834C52.4298 4.02834 55.9938 4.02834 58.2433 4.02834V0C55.9938 0 52.4298 0 50.178 0ZM70.338 0V4.02834C72.5898 4.02834 76.1537 4.02834 78.4055 4.02834V0C76.1516 0 72.5876 0 70.338 0ZM90.5045 0V4.02834C92.7562 4.02834 96.3202 4.02834 98.5698 4.02834V0C96.3181 0 92.7562 0 90.5045 0ZM110.66 0V4.02834C112.912 4.02834 116.476 4.02834 118.725 4.02834V0C116.476 0 112.912 0 110.66 0ZM130.82 0V4.02834C172.894 2.02708 161.698 42.7043 163.122 69.9601H167.154C166.236 44.8045 175.251 3.43442 138.879 0.0774681V0C136.354 0 133.346 0 130.82 0ZM165.316 74.7567C164.264 74.733 163.198 74.8987 162.161 75.2732C157.972 76.7881 155.587 81.2705 156.68 85.5958C158.735 94.3239 171.722 94.1646 173.616 85.4753H232.267H234.286V81.4534H232.267H173.674L173.84 81.3738C172.459 77.722 169.283 74.733 165.316 74.7567ZM165.245 78.7786C171.045 79.0519 171.476 87.2764 165.682 88.1221C159.108 88.716 158.643 78.8066 165.245 78.7786Z" fill="white"/>
<path opacity="0.45" d="M30.2829 16.0789C22.4223 16.0789 16.0938 22.3969 16.0938 30.2448V136.692C16.0938 140.617 17.6753 144.157 20.2395 146.718L86.7076 213.097H136.868C210.548 208.477 217.493 146.258 213.373 86.5942L146.91 20.217C144.345 17.6563 140.799 16.0789 136.871 16.0789H30.2829Z" fill="url(#paint0_linear_16177_13494)"/>
<path d="M30.187 16.0001H136.775C144.633 16.0001 150.962 22.318 150.962 30.1681V136.614C150.962 144.462 144.635 150.782 136.775 150.782H30.187C22.3285 150.782 16 144.464 16 136.614V30.166C16 22.318 22.3285 16.0001 30.187 16.0001Z" fill="white"/>
<path d="M268.153 0C229.865 1.52139 238.622 44.1052 237.868 69.9601H241.9C243.298 46.8746 233.026 5.52606 268.153 4.02834H374.735C389.036 4.02834 400.988 15.9627 400.988 30.247V67.946V69.9623H405.02V67.946V30.247C405.022 13.7269 391.277 0 374.737 0H268.153ZM239.885 74.7524C228.422 74.9827 228.415 91.9546 239.885 92.1784C251.344 91.9546 251.336 74.9784 239.885 74.7524ZM403.007 74.7524C398.213 74.7524 394.278 78.6839 394.278 83.4697C394.231 93.6525 409.248 95.3094 411.484 85.4753H470.137H472.154V81.4534H470.137H411.482C410.562 77.6295 407.106 74.7524 403.007 74.7524ZM239.885 78.7807C246.022 78.7807 246.028 88.1544 239.885 88.1522C233.733 88.1522 233.742 78.7829 239.885 78.7807ZM403.007 78.7807C409.144 78.7807 409.151 88.1544 403.007 88.1522C396.856 88.1522 396.862 78.7829 403.007 78.7807ZM237.87 96.9793C238.717 122.445 229.809 164.325 267.011 166.905V166.929C267.395 166.916 268.785 166.97 269.19 166.982V166.929C270.513 166.929 273.793 166.929 275.075 166.929V162.902C231.887 165.082 243.389 125.126 241.9 96.9793H237.87ZM400.991 96.9793C399.592 125.023 410.812 165.255 367.805 162.902V166.929C368.811 166.929 370.832 166.929 371.837 166.929C372.983 166.929 374.73 166.929 375.862 166.929V166.901C413.092 164.316 404.164 122.436 405.016 96.9771L400.991 96.9793ZM287.167 162.902V166.929C289.419 166.929 292.983 166.929 295.232 166.929V162.902C292.983 162.902 289.419 162.902 287.167 162.902ZM307.327 162.902V166.929C309.579 166.929 313.143 166.929 315.395 166.929V162.902C313.143 162.902 309.577 162.902 307.327 162.902ZM327.494 162.902V166.929C329.745 166.929 333.309 166.929 335.559 166.929V162.902C333.309 162.902 329.745 162.902 327.494 162.902ZM347.651 162.902V166.929C349.903 166.929 353.467 166.929 355.717 166.929V162.902C353.465 162.902 349.903 162.902 347.651 162.902Z" fill="white"/>
<path opacity="0.45" d="M268.15 16.0789C260.289 16.0789 253.961 22.3969 253.961 30.2448V136.692C253.961 140.617 255.543 144.157 258.107 146.718L324.575 213.097H374.736C448.416 208.477 455.36 146.258 451.241 86.5942L384.777 20.217C382.213 17.6563 378.666 16.0789 374.738 16.0789H268.15Z" fill="url(#paint1_linear_16177_13494)"/>
<path d="M268.187 16.0001H374.775C382.633 16.0001 388.962 22.318 388.962 30.1681V136.614C388.962 144.462 382.635 150.782 374.775 150.782H268.187C260.329 150.782 254 144.464 254 136.614V30.166C254 22.318 260.329 16.0001 268.187 16.0001Z" fill="white"/>
<path d="M507.057 0C506.611 0.0150632 505.303 0.0645567 504.876 0.0516454V0.0774681C467.657 2.67265 476.59 44.5528 475.735 70.0032H479.762C481.245 41.779 469.766 1.91949 512.943 4.07999V0.0494935C511.676 0.0494935 508.367 0.0494935 507.059 0.0494935L507.057 0ZM525.034 0.0516454V4.07999C527.286 4.07999 530.85 4.07999 533.101 4.07999V0.0516454C530.85 0.0516454 527.286 0.0516454 525.034 0.0516454ZM545.194 0.0516454V4.07999C547.446 4.07999 551.01 4.07999 553.259 4.07999V0.0516454C551.007 0.0516454 547.443 0.0516454 545.194 0.0516454ZM565.36 0.0516454V4.07999C567.612 4.07999 571.176 4.07999 573.428 4.07999V0.0516454C571.176 0.0516454 567.61 0.0516454 565.36 0.0516454ZM585.516 0.0516454V4.07999C587.768 4.07999 591.332 4.07999 593.583 4.07999V0.0516454C591.332 0.0516454 587.768 0.0516454 585.516 0.0516454ZM605.676 0.0516454V4.07999C648.948 1.96468 637.336 41.8005 638.859 70.0032H642.887C642.04 44.5355 650.945 2.65113 613.737 0.0817719V0.0516454C611.485 0.0516454 607.926 0.0516454 605.676 0.0516454ZM477.752 74.8062C466.284 75.0322 466.293 92.0041 477.752 92.2322C489.204 92.0041 489.211 75.0278 477.752 74.8062ZM640.872 74.8062C636.078 74.8062 632.143 78.727 632.143 83.5149C632.285 93.5169 646.392 95.6128 648.752 85.5312H649.592V85.486H707.999H710.016V81.4577H707.999C707.637 81.4577 649.041 81.4577 648.735 81.4577C647.72 77.778 644.865 74.8041 640.872 74.8062ZM477.752 78.8324C483.895 78.8302 483.889 88.2039 477.752 88.2039C471.606 88.1996 471.6 78.8302 477.752 78.8324ZM640.872 78.8324C647.015 78.8302 647.009 88.2039 640.872 88.2039C634.731 88.2017 634.724 78.8302 640.872 78.8324ZM475.735 97.0245C476.496 122.907 467.728 165.455 506.022 166.982C506.02 166.982 612.604 166.982 612.604 166.982C629.146 166.982 642.882 153.256 642.882 136.735V99.0365V97.0223H638.855C637.457 120.108 647.726 161.454 612.601 162.954H506.02C491.719 162.954 479.76 151.018 479.76 136.735V99.0365V97.0223L475.735 97.0245Z" fill="#F4A640"/>
<path opacity="0.45" d="M506.017 16.0789C498.157 16.0789 491.828 22.3969 491.828 30.2448V136.692C491.828 140.617 493.41 144.157 495.974 146.718L562.442 213.097H612.603C686.283 208.477 693.228 146.258 689.108 86.5942L622.642 20.217C620.078 17.6563 616.531 16.0789 612.603 16.0789H506.017Z" fill="url(#paint2_linear_16177_13494)"/>
<path d="M506.187 16.0001H612.775C620.635 16.0001 626.962 22.318 626.962 30.1681V136.614C626.962 144.462 620.635 150.782 612.775 150.782H506.187C498.329 150.782 492 144.464 492 136.614V30.166C492 22.318 498.326 16.0001 506.187 16.0001Z" fill="#F4A640"/>
<path d="M524.24 87.9H517.8V104H524.24C528.679 104 532.06 100.504 532.06 95.95C532.06 91.396 528.679 87.9 524.24 87.9ZM524.24 100.458H521.48V91.442H524.24C526.77 91.442 528.518 93.19 528.518 95.95C528.518 98.71 526.77 100.458 524.24 100.458ZM537.809 100.458V97.606H543.559V94.11H537.809V91.442H544.134V87.9H534.129V104H544.249V100.458H537.809ZM557.135 87.9H545.175V91.442H549.315V104H552.995V91.442H557.135V87.9ZM567.836 104H571.861L566.387 87.9H561.695L556.221 104H560.246L561.051 101.47H567.031L567.836 104ZM562.155 98.02L564.041 92.109L565.927 98.02H562.155ZM573.234 87.9V104H576.914V87.9H573.234ZM583.36 100.458V87.9H579.68V104H589.11V100.458H583.36ZM596.141 104.322C599.637 104.322 602.121 102.482 602.121 99.377C602.121 95.973 599.384 95.122 596.946 94.386C594.439 93.627 594.048 93.121 594.048 92.385C594.048 91.741 594.623 91.166 595.773 91.166C597.245 91.166 598.004 91.879 598.556 93.029L601.661 91.212C600.488 88.843 598.418 87.578 595.773 87.578C592.99 87.578 590.368 89.372 590.368 92.477C590.368 95.559 592.714 96.709 595.106 97.376C597.521 98.043 598.441 98.434 598.441 99.423C598.441 100.044 598.004 100.734 596.256 100.734C594.439 100.734 593.45 99.837 592.875 98.503L589.701 100.343C590.598 102.712 592.76 104.322 596.141 104.322Z" fill="#17214D"/>
<path d="M542.738 72.753C542.738 73.8183 542.347 74.674 541.565 75.32C540.772 75.9547 539.808 76.272 538.675 76.272C537.666 76.272 536.777 75.9773 536.006 75.388C535.235 74.7987 534.703 73.994 534.408 72.974L535.904 72.362C536.006 72.7247 536.148 73.0533 536.329 73.348C536.51 73.6427 536.72 73.8977 536.958 74.113C537.207 74.317 537.479 74.4813 537.774 74.606C538.069 74.7193 538.38 74.776 538.709 74.776C539.423 74.776 540.007 74.5947 540.46 74.232C540.913 73.858 541.14 73.365 541.14 72.753C541.14 72.243 540.953 71.8067 540.579 71.444C540.228 71.0927 539.57 70.7527 538.607 70.424C537.632 70.0727 537.026 69.8347 536.788 69.71C535.496 69.0527 534.85 68.0837 534.85 66.803C534.85 65.9077 535.207 65.1427 535.921 64.508C536.646 63.8733 537.536 63.556 538.59 63.556C539.519 63.556 540.324 63.794 541.004 64.27C541.684 64.7347 542.137 65.3183 542.364 66.021L540.902 66.633C540.766 66.1797 540.494 65.8057 540.086 65.511C539.689 65.205 539.202 65.052 538.624 65.052C538.012 65.052 537.496 65.222 537.077 65.562C536.658 65.8793 536.448 66.293 536.448 66.803C536.448 67.2223 536.612 67.585 536.941 67.891C537.304 68.197 538.091 68.5597 539.304 68.979C540.539 69.3983 541.418 69.914 541.939 70.526C542.472 71.1267 542.738 71.869 542.738 72.753ZM548.602 65.324V76H547.038V65.324H543.638V63.828H552.002V65.324H548.602ZM560.741 63.828V65.324H555.199V69.183H560.197V70.645H555.199V74.504H560.741V76H553.635V63.828H560.741ZM564.413 71.07V76H562.849V63.828H566.997C568.051 63.828 568.946 64.1793 569.683 64.882C570.431 65.5847 570.805 66.4403 570.805 67.449C570.805 68.4803 570.431 69.3417 569.683 70.033C568.958 70.7243 568.062 71.07 566.997 71.07H564.413ZM564.413 65.324V69.574H567.031C567.654 69.574 568.17 69.3643 568.578 68.945C568.997 68.5257 569.207 68.027 569.207 67.449C569.207 66.8823 568.997 66.3893 568.578 65.97C568.17 65.5393 567.654 65.324 567.031 65.324H564.413ZM583.303 72.702C583.303 73.722 582.923 74.572 582.164 75.252C581.416 75.932 580.487 76.272 579.376 76.272C578.503 76.272 577.716 76.0113 577.013 75.49C576.299 74.946 575.817 74.2377 575.568 73.365L576.996 72.77C577.177 73.416 577.472 73.9147 577.88 74.266C578.299 74.606 578.798 74.776 579.376 74.776C580.011 74.776 580.56 74.5777 581.025 74.181C581.478 73.773 581.705 73.28 581.705 72.702C581.705 72.124 581.467 71.6367 580.991 71.24C580.526 70.8433 579.965 70.645 579.308 70.645H578.305V69.183H579.189C579.812 69.183 580.322 69.013 580.719 68.673C581.116 68.3217 581.314 67.8683 581.314 67.313C581.314 66.803 581.127 66.3893 580.753 66.072C580.379 65.7547 579.886 65.596 579.274 65.596C578.288 65.596 577.614 66.1003 577.251 67.109L575.806 66.497C576.067 65.783 576.503 65.205 577.115 64.763C577.727 64.321 578.447 64.1 579.274 64.1C580.305 64.1 581.172 64.406 581.875 65.018C582.566 65.6073 582.912 66.3723 582.912 67.313C582.912 68.435 582.391 69.268 581.348 69.812V69.88C581.96 70.1407 582.436 70.5203 582.776 71.019C583.127 71.5177 583.303 72.0787 583.303 72.702Z" fill="#17214D"/>
<path d="M743.876 0C705.588 1.52139 714.343 44.103 713.589 69.9601H717.621C719.019 46.9564 708.749 5.50023 743.876 4.02834H850.458C864.759 4.02834 876.709 15.9627 876.709 30.247V136.695C876.769 152.171 862.837 164.241 847.568 162.905C846.551 162.877 844.549 162.926 843.534 162.905V166.933C846.092 166.933 849.042 166.933 851.595 166.933V166.901C867.616 166.287 880.743 152.832 880.743 136.695V30.247C880.743 13.7269 867 0 850.458 0H743.876ZM715.606 74.7524C704.155 74.9805 704.149 91.9568 715.606 92.1784C727.078 91.9525 727.067 74.9805 715.606 74.7524ZM715.606 78.7807C721.751 78.7829 721.758 88.1544 715.606 88.1522C709.463 88.1544 709.471 78.7807 715.606 78.7807ZM713.591 96.9793C714.436 122.449 705.532 164.323 742.739 166.905V166.931C743.157 166.918 744.482 166.967 744.919 166.982V166.931C746.242 166.931 749.522 166.931 750.802 166.931V162.902C707.61 165.078 719.11 125.13 717.621 96.9793H713.591ZM762.897 162.902V166.931C765.148 166.931 768.712 166.931 770.962 166.931V162.902C768.71 162.902 765.146 162.902 762.897 162.902ZM783.052 162.902V166.931C785.304 166.931 788.868 166.931 791.118 166.931V162.902C788.868 162.902 785.304 162.902 783.052 162.902ZM803.221 162.902V166.931C805.473 166.931 809.037 166.931 811.288 166.931V162.902C809.034 162.902 805.47 162.902 803.221 162.902ZM823.379 162.902V166.931C825.63 166.931 829.194 166.931 831.444 166.931V162.902C829.194 162.902 825.63 162.902 823.379 162.902Z" fill="white"/>
<path opacity="0.45" d="M743.879 16.0789C736.018 16.0789 729.689 22.3969 729.689 30.2448V136.692C729.689 140.617 731.271 144.157 733.835 146.718L800.303 213.097H850.464C924.144 208.477 931.089 146.258 926.969 86.5942L860.503 20.217C857.939 17.6563 854.392 16.0789 850.464 16.0789H743.879Z" fill="url(#paint3_linear_16177_13494)"/>
<path d="M744.187 16.0001H850.775C858.633 16.0001 864.962 22.318 864.962 30.1681V136.614C864.962 144.462 858.635 150.782 850.775 150.782H744.187C736.329 150.782 730 144.464 730 136.614V30.1681C730 22.318 736.326 16.0001 744.187 16.0001Z" fill="white"/>
<g opacity="0.5">
<path d="M755.527 87.9H749.432V104H753.112V98.94H755.527C758.701 98.94 761.162 96.479 761.162 93.42C761.162 90.361 758.701 87.9 755.527 87.9ZM755.527 95.49H753.112V91.35H755.527C756.654 91.35 757.482 92.247 757.482 93.42C757.482 94.593 756.654 95.49 755.527 95.49ZM771.616 104H775.641L770.167 87.9H765.475L760.001 104H764.026L764.831 101.47H770.811L771.616 104ZM765.935 98.02L767.821 92.109L769.707 98.02H765.935ZM788.058 87.9H783.872L780.813 94.11L777.754 87.9H773.568L778.973 97.813V104H782.653V97.813L788.058 87.9ZM805.535 87.9H801.855L797.485 95.053L793.115 87.9H789.435V104H793.115V94.639L797.278 101.47H797.692L801.855 94.639V104H805.535V87.9ZM811.982 100.458V97.606H817.732V94.11H811.982V91.442H818.307V87.9H808.302V104H818.422V100.458H811.982ZM829.469 87.9V96.64L823.259 87.9H820.499V104H824.179V95.26L830.389 104H833.149V87.9H829.469ZM846.717 87.9H834.757V91.442H838.897V104H842.577V91.442H846.717V87.9Z" fill="#555185"/>
<path d="M780.738 72.753C780.738 73.8183 780.347 74.674 779.565 75.32C778.772 75.9547 777.808 76.272 776.675 76.272C775.666 76.272 774.777 75.9773 774.006 75.388C773.235 74.7987 772.703 73.994 772.408 72.974L773.904 72.362C774.006 72.7247 774.148 73.0533 774.329 73.348C774.51 73.6427 774.72 73.8977 774.958 74.113C775.207 74.317 775.479 74.4813 775.774 74.606C776.069 74.7193 776.38 74.776 776.709 74.776C777.423 74.776 778.007 74.5947 778.46 74.232C778.913 73.858 779.14 73.365 779.14 72.753C779.14 72.243 778.953 71.8067 778.579 71.444C778.228 71.0927 777.57 70.7527 776.607 70.424C775.632 70.0727 775.026 69.8347 774.788 69.71C773.496 69.0527 772.85 68.0837 772.85 66.803C772.85 65.9077 773.207 65.1427 773.921 64.508C774.646 63.8733 775.536 63.556 776.59 63.556C777.519 63.556 778.324 63.794 779.004 64.27C779.684 64.7347 780.137 65.3183 780.364 66.021L778.902 66.633C778.766 66.1797 778.494 65.8057 778.086 65.511C777.689 65.205 777.202 65.052 776.624 65.052C776.012 65.052 775.496 65.222 775.077 65.562C774.658 65.8793 774.448 66.293 774.448 66.803C774.448 67.2223 774.612 67.585 774.941 67.891C775.304 68.197 776.091 68.5597 777.304 68.979C778.539 69.3983 779.418 69.914 779.939 70.526C780.472 71.1267 780.738 71.869 780.738 72.753ZM786.602 65.324V76H785.038V65.324H781.638V63.828H790.002V65.324H786.602ZM798.741 63.828V65.324H793.199V69.183H798.197V70.645H793.199V74.504H798.741V76H791.635V63.828H798.741ZM802.413 71.07V76H800.849V63.828H804.997C806.051 63.828 806.946 64.1793 807.683 64.882C808.431 65.5847 808.805 66.4403 808.805 67.449C808.805 68.4803 808.431 69.3417 807.683 70.033C806.958 70.7243 806.062 71.07 804.997 71.07H802.413ZM802.413 65.324V69.574H805.031C805.654 69.574 806.17 69.3643 806.578 68.945C806.997 68.5257 807.207 68.027 807.207 67.449C807.207 66.8823 806.997 66.3893 806.578 65.97C806.17 65.5393 805.654 65.324 805.031 65.324H802.413ZM820.725 73.552V76H819.161V73.552H813.636V72.362L819.025 64.372H820.725V72.09H822.221V73.552H820.725ZM815.404 72.09H819.161V66.667H819.093L815.404 72.09Z" fill="#555185"/>
</g>
<g opacity="0.5">
<path d="M46.2139 104.322C49.1579 104.322 51.7339 102.873 53.1139 100.596L49.9399 98.756C49.2499 99.998 47.8469 100.734 46.2139 100.734C43.3619 100.734 41.5219 98.825 41.5219 95.95C41.5219 93.075 43.3619 91.166 46.2139 91.166C47.8469 91.166 49.2269 91.902 49.9399 93.144L53.1139 91.304C51.7109 89.027 49.1349 87.578 46.2139 87.578C41.3609 87.578 37.8419 91.212 37.8419 95.95C37.8419 100.688 41.3609 104.322 46.2139 104.322ZM63.5785 87.9V94.064H58.5185V87.9H54.8385V104H58.5185V97.606H63.5785V104H67.2585V87.9H63.5785ZM77.7041 104.322C82.3271 104.322 86.0761 100.688 86.0761 95.95C86.0761 91.212 82.3271 87.578 77.7041 87.578C73.0811 87.578 69.3321 91.212 69.3321 95.95C69.3321 100.688 73.0811 104.322 77.7041 104.322ZM77.7041 100.734C75.0821 100.734 73.0121 98.825 73.0121 95.95C73.0121 93.075 75.0821 91.166 77.7041 91.166C80.3261 91.166 82.3961 93.075 82.3961 95.95C82.3961 98.825 80.3261 100.734 77.7041 100.734ZM95.8301 104.322C100.453 104.322 104.202 100.688 104.202 95.95C104.202 91.212 100.453 87.578 95.8301 87.578C91.2071 87.578 87.4581 91.212 87.4581 95.95C87.4581 100.688 91.2071 104.322 95.8301 104.322ZM95.8301 100.734C93.2081 100.734 91.1381 98.825 91.1381 95.95C91.1381 93.075 93.2081 91.166 95.8301 91.166C98.4521 91.166 100.522 93.075 100.522 95.95C100.522 98.825 98.4521 100.734 95.8301 100.734ZM111.325 104.322C114.821 104.322 117.305 102.482 117.305 99.377C117.305 95.973 114.568 95.122 112.13 94.386C109.623 93.627 109.232 93.121 109.232 92.385C109.232 91.741 109.807 91.166 110.957 91.166C112.429 91.166 113.188 91.879 113.74 93.029L116.845 91.212C115.672 88.843 113.602 87.578 110.957 87.578C108.174 87.578 105.552 89.372 105.552 92.477C105.552 95.559 107.898 96.709 110.29 97.376C112.705 98.043 113.625 98.434 113.625 99.423C113.625 100.044 113.188 100.734 111.44 100.734C109.623 100.734 108.634 99.837 108.059 98.503L104.885 100.343C105.782 102.712 107.944 104.322 111.325 104.322ZM122.712 100.458V97.606H128.462V94.11H122.712V91.442H129.037V87.9H119.032V104H129.152V100.458H122.712Z" fill="#555185"/>
<path d="M66.738 72.753C66.738 73.8183 66.347 74.674 65.565 75.32C64.7717 75.9547 63.8083 76.272 62.675 76.272C61.6663 76.272 60.7767 75.9773 60.006 75.388C59.2353 74.7987 58.7027 73.994 58.408 72.974L59.904 72.362C60.006 72.7247 60.1477 73.0533 60.329 73.348C60.5103 73.6427 60.72 73.8977 60.958 74.113C61.2073 74.317 61.4793 74.4813 61.774 74.606C62.0687 74.7193 62.3803 74.776 62.709 74.776C63.423 74.776 64.0067 74.5947 64.46 74.232C64.9133 73.858 65.14 73.365 65.14 72.753C65.14 72.243 64.953 71.8067 64.579 71.444C64.2277 71.0927 63.5703 70.7527 62.607 70.424C61.6323 70.0727 61.026 69.8347 60.788 69.71C59.496 69.0527 58.85 68.0837 58.85 66.803C58.85 65.9077 59.207 65.1427 59.921 64.508C60.6463 63.8733 61.536 63.556 62.59 63.556C63.5193 63.556 64.324 63.794 65.004 64.27C65.684 64.7347 66.1373 65.3183 66.364 66.021L64.902 66.633C64.766 66.1797 64.494 65.8057 64.086 65.511C63.6893 65.205 63.202 65.052 62.624 65.052C62.012 65.052 61.4963 65.222 61.077 65.562C60.6577 65.8793 60.448 66.293 60.448 66.803C60.448 67.2223 60.6123 67.585 60.941 67.891C61.3037 68.197 62.0913 68.5597 63.304 68.979C64.5393 69.3983 65.4177 69.914 65.939 70.526C66.4717 71.1267 66.738 71.869 66.738 72.753ZM72.6025 65.324V76H71.0385V65.324H67.6385V63.828H76.0025V65.324H72.6025ZM84.7411 63.828V65.324H79.1991V69.183H84.1971V70.645H79.1991V74.504H84.7411V76H77.6351V63.828H84.7411ZM88.413 71.07V76H86.849V63.828H90.997C92.051 63.828 92.9463 64.1793 93.683 64.882C94.431 65.5847 94.805 66.4403 94.805 67.449C94.805 68.4803 94.431 69.3417 93.683 70.033C92.9577 70.7243 92.0623 71.07 90.997 71.07H88.413ZM88.413 65.324V69.574H91.031C91.6543 69.574 92.17 69.3643 92.578 68.945C92.9973 68.5257 93.207 68.027 93.207 67.449C93.207 66.8823 92.9973 66.3893 92.578 65.97C92.17 65.5393 91.6543 65.324 91.031 65.324H88.413ZM104.056 64.372V76H102.492V66.31L100.231 67.296L99.6361 65.97L103.053 64.372H104.056Z" fill="#555185"/>
</g>
<path d="M300.642 95.651C301.516 94.892 302.045 93.834 302.045 92.5C302.045 89.717 299.768 87.9 296.962 87.9H290.66V104H297.422C300.297 104 302.62 102.137 302.62 99.285C302.62 97.652 301.838 96.41 300.642 95.651ZM296.962 91.35C297.813 91.35 298.365 91.948 298.365 92.776C298.365 93.604 297.79 94.202 296.962 94.202H294.34V91.35H296.962ZM297.422 100.55H294.34V97.468H297.422C298.342 97.468 298.94 98.112 298.94 99.009C298.94 99.906 298.342 100.55 297.422 100.55ZM312.133 104.322C316.756 104.322 320.505 100.688 320.505 95.95C320.505 91.212 316.756 87.578 312.133 87.578C307.51 87.578 303.761 91.212 303.761 95.95C303.761 100.688 307.51 104.322 312.133 104.322ZM312.133 100.734C309.511 100.734 307.441 98.825 307.441 95.95C307.441 93.075 309.511 91.166 312.133 91.166C314.755 91.166 316.825 93.075 316.825 95.95C316.825 98.825 314.755 100.734 312.133 100.734ZM330.259 104.322C334.882 104.322 338.631 100.688 338.631 95.95C338.631 91.212 334.882 87.578 330.259 87.578C325.636 87.578 321.887 91.212 321.887 95.95C321.887 100.688 325.636 104.322 330.259 104.322ZM330.259 100.734C327.637 100.734 325.567 98.825 325.567 95.95C325.567 93.075 327.637 91.166 330.259 91.166C332.881 91.166 334.951 93.075 334.951 95.95C334.951 98.825 332.881 100.734 330.259 100.734ZM353.721 104L348.063 95.743L353.491 87.9H349.305L344.383 94.892V87.9H340.703V104H344.383V96.548L349.535 104H353.721Z" fill="#AAA8C2"/>
<path d="M304.738 72.753C304.738 73.8183 304.347 74.674 303.565 75.32C302.772 75.9547 301.808 76.272 300.675 76.272C299.666 76.272 298.777 75.9773 298.006 75.388C297.235 74.7987 296.703 73.994 296.408 72.974L297.904 72.362C298.006 72.7247 298.148 73.0533 298.329 73.348C298.51 73.6427 298.72 73.8977 298.958 74.113C299.207 74.317 299.479 74.4813 299.774 74.606C300.069 74.7193 300.38 74.776 300.709 74.776C301.423 74.776 302.007 74.5947 302.46 74.232C302.913 73.858 303.14 73.365 303.14 72.753C303.14 72.243 302.953 71.8067 302.579 71.444C302.228 71.0927 301.57 70.7527 300.607 70.424C299.632 70.0727 299.026 69.8347 298.788 69.71C297.496 69.0527 296.85 68.0837 296.85 66.803C296.85 65.9077 297.207 65.1427 297.921 64.508C298.646 63.8733 299.536 63.556 300.59 63.556C301.519 63.556 302.324 63.794 303.004 64.27C303.684 64.7347 304.137 65.3183 304.364 66.021L302.902 66.633C302.766 66.1797 302.494 65.8057 302.086 65.511C301.689 65.205 301.202 65.052 300.624 65.052C300.012 65.052 299.496 65.222 299.077 65.562C298.658 65.8793 298.448 66.293 298.448 66.803C298.448 67.2223 298.612 67.585 298.941 67.891C299.304 68.197 300.091 68.5597 301.304 68.979C302.539 69.3983 303.418 69.914 303.939 70.526C304.472 71.1267 304.738 71.869 304.738 72.753ZM310.602 65.324V76H309.038V65.324H305.638V63.828H314.002V65.324H310.602ZM322.741 63.828V65.324H317.199V69.183H322.197V70.645H317.199V74.504H322.741V76H315.635V63.828H322.741ZM326.413 71.07V76H324.849V63.828H328.997C330.051 63.828 330.946 64.1793 331.683 64.882C332.431 65.5847 332.805 66.4403 332.805 67.449C332.805 68.4803 332.431 69.3417 331.683 70.033C330.958 70.7243 330.062 71.07 328.997 71.07H326.413ZM326.413 65.324V69.574H329.031C329.654 69.574 330.17 69.3643 330.578 68.945C330.997 68.5257 331.207 68.027 331.207 67.449C331.207 66.8823 330.997 66.3893 330.578 65.97C330.17 65.5393 329.654 65.324 329.031 65.324H326.413ZM345.048 74.504V76H337.636V74.436L340.645 71.393C341.654 70.3617 342.351 69.591 342.736 69.081C343.121 68.5597 343.314 68.0157 343.314 67.449C343.314 66.939 343.116 66.5027 342.719 66.14C342.322 65.7773 341.812 65.596 341.189 65.596C340.656 65.596 340.197 65.7547 339.812 66.072C339.427 66.3893 339.177 66.7747 339.064 67.228L337.636 66.65C337.863 65.936 338.299 65.3353 338.945 64.848C339.591 64.3493 340.35 64.1 341.223 64.1C342.277 64.1 343.155 64.423 343.858 65.069C344.561 65.715 344.912 66.5083 344.912 67.449C344.912 68.571 344.294 69.7837 343.059 71.087L339.659 74.504H345.048Z" fill="#AAA8C2"/>
<defs>
<linearGradient id="paint0_linear_16177_13494" x1="63.398" y1="66.7311" x2="180.353" y2="176.372" gradientUnits="userSpaceOnUse">
<stop stop-color="#333333"/>
<stop offset="0.1315" stop-color="#515151" stop-opacity="0.8685"/>
<stop offset="0.4343" stop-color="#909090" stop-opacity="0.5657"/>
<stop offset="0.6905" stop-color="#BEBEBE" stop-opacity="0.3095"/>
<stop offset="0.8869" stop-color="#DADADA" stop-opacity="0.1131"/>
<stop offset="1" stop-color="#E5E5E5" stop-opacity="0"/>
</linearGradient>
<linearGradient id="paint1_linear_16177_13494" x1="301.263" y1="66.7311" x2="418.218" y2="176.372" gradientUnits="userSpaceOnUse">
<stop stop-color="#333333"/>
<stop offset="0.1315" stop-color="#515151" stop-opacity="0.8685"/>
<stop offset="0.4343" stop-color="#909090" stop-opacity="0.5657"/>
<stop offset="0.6905" stop-color="#BEBEBE" stop-opacity="0.3095"/>
<stop offset="0.8869" stop-color="#DADADA" stop-opacity="0.1131"/>
<stop offset="1" stop-color="#E5E5E5" stop-opacity="0"/>
</linearGradient>
<linearGradient id="paint2_linear_16177_13494" x1="539.128" y1="66.7311" x2="656.083" y2="176.372" gradientUnits="userSpaceOnUse">
<stop stop-color="#333333"/>
<stop offset="0.1315" stop-color="#515151" stop-opacity="0.8685"/>
<stop offset="0.4343" stop-color="#909090" stop-opacity="0.5657"/>
<stop offset="0.6905" stop-color="#BEBEBE" stop-opacity="0.3095"/>
<stop offset="0.8869" stop-color="#DADADA" stop-opacity="0.1131"/>
<stop offset="1" stop-color="#E5E5E5" stop-opacity="0"/>
</linearGradient>
<linearGradient id="paint3_linear_16177_13494" x1="776.988" y1="66.7311" x2="893.942" y2="176.372" gradientUnits="userSpaceOnUse">
<stop stop-color="#333333"/>
<stop offset="0.1315" stop-color="#515151" stop-opacity="0.8685"/>
<stop offset="0.4343" stop-color="#909090" stop-opacity="0.5657"/>
<stop offset="0.6905" stop-color="#BEBEBE" stop-opacity="0.3095"/>
<stop offset="0.8869" stop-color="#DADADA" stop-opacity="0.1131"/>
<stop offset="1" stop-color="#E5E5E5" stop-opacity="0"/>
</linearGradient>
</defs>
</svg>
